%TF.GenerationSoftware,KiCad,Pcbnew,9.0.0*%
%TF.CreationDate,2025-03-12T10:53:54-03:00*%
%TF.ProjectId,ReceiverSide,52656365-6976-4657-9253-6964652e6b69,rev?*%
%TF.SameCoordinates,Original*%
%TF.FileFunction,Copper,L2,Bot*%
%TF.FilePolarity,Positive*%
%FSLAX46Y46*%
G04 Gerber Fmt 4.6, Leading zero omitted, Abs format (unit mm)*
G04 Created by KiCad (PCBNEW 9.0.0) date 2025-03-12 10:53:54*
%MOMM*%
%LPD*%
G01*
G04 APERTURE LIST*
%TA.AperFunction,ComponentPad*%
%ADD10R,1.700000X1.700000*%
%TD*%
%TA.AperFunction,ComponentPad*%
%ADD11O,1.700000X1.700000*%
%TD*%
%TA.AperFunction,ComponentPad*%
%ADD12R,1.800000X1.800000*%
%TD*%
%TA.AperFunction,ComponentPad*%
%ADD13C,1.800000*%
%TD*%
%TA.AperFunction,ComponentPad*%
%ADD14C,1.400000*%
%TD*%
%TA.AperFunction,ComponentPad*%
%ADD15O,1.400000X1.400000*%
%TD*%
%TA.AperFunction,ComponentPad*%
%ADD16R,1.308000X1.308000*%
%TD*%
%TA.AperFunction,ComponentPad*%
%ADD17C,1.308000*%
%TD*%
%TA.AperFunction,ComponentPad*%
%ADD18R,1.600000X1.600000*%
%TD*%
%TA.AperFunction,ComponentPad*%
%ADD19O,1.600000X1.600000*%
%TD*%
G04 APERTURE END LIST*
D10*
%TO.P,GND2,1,Pin_1*%
%TO.N,GND*%
X173000000Y-73250000D03*
%TD*%
%TO.P,GND1,1,Pin_1*%
%TO.N,GND*%
X173000000Y-79250000D03*
%TD*%
%TO.P,OP-PWR-IN1,1,Pin_1*%
%TO.N,+5V*%
X153000000Y-68775000D03*
D11*
%TO.P,OP-PWR-IN1,2,Pin_2*%
%TO.N,+3.3V*%
X150460000Y-68775000D03*
%TD*%
D12*
%TO.P,D2,1,K*%
%TO.N,GND*%
X124480000Y-83750000D03*
D13*
%TO.P,D2,2,A*%
%TO.N,Net-(D2-A)*%
X127020000Y-83750000D03*
%TD*%
D14*
%TO.P,R3,1*%
%TO.N,/LED3*%
X136290000Y-90750000D03*
D15*
%TO.P,R3,2*%
%TO.N,Net-(D3-A)*%
X131210000Y-90750000D03*
%TD*%
D16*
%TO.P,Op-Amp1,1,NC__1*%
%TO.N,unconnected-(Op-Amp1-NC__1-Pad1)*%
X183435000Y-86565000D03*
D17*
%TO.P,Op-Amp1,2,VIN-*%
%TO.N,Net-(Op-Amp1-VIN-)*%
X180895000Y-86565000D03*
%TO.P,Op-Amp1,3,VIN+*%
%TO.N,Net-(Op-Amp1-VIN+)*%
X178355000Y-86565000D03*
%TO.P,Op-Amp1,4,VSS*%
%TO.N,/VSS-*%
X175815000Y-86565000D03*
%TO.P,Op-Amp1,5,NC*%
%TO.N,unconnected-(Op-Amp1-NC-Pad5)*%
X175815000Y-94435000D03*
%TO.P,Op-Amp1,6,VOUT*%
%TO.N,/VOUT*%
X178355000Y-94435000D03*
%TO.P,Op-Amp1,7,VDD*%
%TO.N,/VDD+*%
X180895000Y-94435000D03*
%TO.P,Op-Amp1,8,NC__2*%
%TO.N,unconnected-(Op-Amp1-NC__2-Pad8)*%
X183435000Y-94435000D03*
%TD*%
D10*
%TO.P,OP-IN1,1,Pin_1*%
%TO.N,Net-(OP-IN1-Pin_1)*%
X180895000Y-70775000D03*
D11*
%TO.P,OP-IN1,2,Pin_2*%
%TO.N,Net-(OP-IN1-Pin_2)*%
X178355000Y-70775000D03*
%TD*%
D14*
%TO.P,R2,1*%
%TO.N,/LED2*%
X136290000Y-84000000D03*
D15*
%TO.P,R2,2*%
%TO.N,Net-(D2-A)*%
X131210000Y-84000000D03*
%TD*%
D14*
%TO.P,ACC2,1*%
%TO.N,unconnected-(ACC2-Pad1)*%
X168040000Y-97750000D03*
D15*
%TO.P,ACC2,2*%
%TO.N,Net-(ACC1-Pad2)*%
X162960000Y-97750000D03*
%TD*%
D10*
%TO.P,OP-PWR1,1,Pin_1*%
%TO.N,/VSS-*%
X173500000Y-113725000D03*
D11*
%TO.P,OP-PWR1,2,Pin_2*%
%TO.N,/VDD+*%
X176040000Y-113725000D03*
%TD*%
D14*
%TO.P,ACC1,1*%
%TO.N,unconnected-(ACC1-Pad1)*%
X168040000Y-102750000D03*
D15*
%TO.P,ACC1,2*%
%TO.N,Net-(ACC1-Pad2)*%
X162960000Y-102750000D03*
%TD*%
D12*
%TO.P,D4,1,K*%
%TO.N,GND*%
X124480000Y-98250000D03*
D13*
%TO.P,D4,2,A*%
%TO.N,Net-(D4-A)*%
X127020000Y-98250000D03*
%TD*%
D14*
%TO.P,R5,1*%
%TO.N,GND*%
X162460000Y-70250000D03*
D15*
%TO.P,R5,2*%
%TO.N,/Photores*%
X167540000Y-70250000D03*
%TD*%
D18*
%TO.P,A1,1,D1/TX*%
%TO.N,unconnected-(A1-D1{slash}TX-Pad1)*%
X142480000Y-75440000D03*
D19*
%TO.P,A1,2,D0/RX*%
%TO.N,unconnected-(A1-D0{slash}RX-Pad2)*%
X142480000Y-77980000D03*
%TO.P,A1,3,~{RESET}*%
%TO.N,unconnected-(A1-~{RESET}-Pad3)*%
X142480000Y-80520000D03*
%TO.P,A1,4,GND*%
%TO.N,GND*%
X142480000Y-83060000D03*
%TO.P,A1,5,D2*%
%TO.N,/LED1*%
X142480000Y-85600000D03*
%TO.P,A1,6,D3*%
%TO.N,/LED2*%
X142480000Y-88140000D03*
%TO.P,A1,7,D4*%
%TO.N,/LED3*%
X142480000Y-90680000D03*
%TO.P,A1,8,D5*%
%TO.N,/LED4*%
X142480000Y-93220000D03*
%TO.P,A1,9,D6*%
%TO.N,/Speaker*%
X142480000Y-95760000D03*
%TO.P,A1,10,D7*%
%TO.N,unconnected-(A1-D7-Pad10)*%
X142480000Y-98300000D03*
%TO.P,A1,11,D8*%
%TO.N,unconnected-(A1-D8-Pad11)*%
X142480000Y-100840000D03*
%TO.P,A1,12,D9*%
%TO.N,unconnected-(A1-D9-Pad12)*%
X142480000Y-103380000D03*
%TO.P,A1,13,D10*%
%TO.N,unconnected-(A1-D10-Pad13)*%
X142480000Y-105920000D03*
%TO.P,A1,14,D11*%
%TO.N,unconnected-(A1-D11-Pad14)*%
X142480000Y-108460000D03*
%TO.P,A1,15,D12*%
%TO.N,unconnected-(A1-D12-Pad15)*%
X142480000Y-111000000D03*
%TO.P,A1,16,D13*%
%TO.N,unconnected-(A1-D13-Pad16)*%
X157720000Y-111000000D03*
%TO.P,A1,17,3V3*%
%TO.N,+3.3V*%
X157720000Y-108460000D03*
%TO.P,A1,18,AREF*%
%TO.N,unconnected-(A1-AREF-Pad18)*%
X157720000Y-105920000D03*
%TO.P,A1,19,A0*%
%TO.N,unconnected-(A1-A0-Pad19)*%
X157720000Y-103380000D03*
%TO.P,A1,20,A1*%
%TO.N,unconnected-(A1-A1-Pad20)*%
X157720000Y-100840000D03*
%TO.P,A1,21,A2*%
%TO.N,unconnected-(A1-A2-Pad21)*%
X157720000Y-98300000D03*
%TO.P,A1,22,A3*%
%TO.N,unconnected-(A1-A3-Pad22)*%
X157720000Y-95760000D03*
%TO.P,A1,23,A4*%
%TO.N,unconnected-(A1-A4-Pad23)*%
X157720000Y-93220000D03*
%TO.P,A1,24,A5*%
%TO.N,unconnected-(A1-A5-Pad24)*%
X157720000Y-90680000D03*
%TO.P,A1,25,A6*%
%TO.N,/Halleffect*%
X157720000Y-88140000D03*
%TO.P,A1,26,A7*%
%TO.N,/Photores*%
X157720000Y-85600000D03*
%TO.P,A1,27,+5V*%
%TO.N,+5V*%
X157720000Y-83060000D03*
%TO.P,A1,28,~{RESET}*%
%TO.N,unconnected-(A1-~{RESET}-Pad28)*%
X157720000Y-80520000D03*
%TO.P,A1,29,GND*%
%TO.N,GND*%
X157720000Y-77980000D03*
%TO.P,A1,30,VIN*%
%TO.N,Net-(A1-VIN)*%
X157720000Y-75440000D03*
%TD*%
D14*
%TO.P,ACC3,1*%
%TO.N,Net-(Op-Amp1-VIN+)*%
X178355000Y-81790000D03*
D15*
%TO.P,ACC3,2*%
%TO.N,Net-(OP-IN1-Pin_2)*%
X178355000Y-76710000D03*
%TD*%
D12*
%TO.P,D1,1,K*%
%TO.N,GND*%
X124480000Y-75750000D03*
D13*
%TO.P,D1,2,A*%
%TO.N,Net-(D1-A)*%
X127020000Y-75750000D03*
%TD*%
D14*
%TO.P,ACC4,1*%
%TO.N,Net-(OP-IN1-Pin_1)*%
X180895000Y-76709999D03*
D15*
%TO.P,ACC4,2*%
%TO.N,Net-(Op-Amp1-VIN-)*%
X180895000Y-81789999D03*
%TD*%
D14*
%TO.P,R4,1*%
%TO.N,/LED4*%
X136290000Y-96000000D03*
D15*
%TO.P,R4,2*%
%TO.N,Net-(D4-A)*%
X131210000Y-96000000D03*
%TD*%
D14*
%TO.P,PR1,1*%
%TO.N,+5V*%
X162460000Y-74000000D03*
D15*
%TO.P,PR1,2*%
%TO.N,/Photores*%
X167540000Y-74000000D03*
%TD*%
D10*
%TO.P,Speaker1,1,Pin_1*%
%TO.N,/Speaker*%
X135525000Y-107500000D03*
D11*
%TO.P,Speaker1,2,Pin_2*%
%TO.N,GND*%
X135525000Y-110040000D03*
%TD*%
D14*
%TO.P,ACC5,1*%
%TO.N,/VOUT*%
X186750000Y-88830000D03*
D15*
%TO.P,ACC5,2*%
%TO.N,Net-(Op-Amp1-VIN-)*%
X186750000Y-83750000D03*
%TD*%
D14*
%TO.P,R1,1*%
%TO.N,/LED1*%
X136290000Y-77500000D03*
D15*
%TO.P,R1,2*%
%TO.N,Net-(D1-A)*%
X131210000Y-77500000D03*
%TD*%
D10*
%TO.P,Hall1,1,Pin_1*%
%TO.N,+5V*%
X163475000Y-81750000D03*
D11*
%TO.P,Hall1,2,Pin_2*%
%TO.N,GND*%
X163475000Y-79210000D03*
%TD*%
D10*
%TO.P,HALL-IN1,1,Pin_1*%
%TO.N,/Halleffect*%
X163500000Y-91250000D03*
%TD*%
%TO.P,AUX-PWR1,1,Pin_1*%
%TO.N,GND*%
X165500000Y-113775000D03*
D11*
%TO.P,AUX-PWR1,2,Pin_2*%
%TO.N,Net-(A1-VIN)*%
X162960000Y-113775000D03*
%TD*%
D12*
%TO.P,D3,1,K*%
%TO.N,GND*%
X124480000Y-91000000D03*
D13*
%TO.P,D3,2,A*%
%TO.N,Net-(D3-A)*%
X127020000Y-91000000D03*
%TD*%
D10*
%TO.P,OP-OUT1,1,Pin_1*%
%TO.N,/VOUT*%
X177895000Y-99500000D03*
%TD*%
%TA.AperFunction,Conductor*%
%TO.N,GND*%
G36*
X175942348Y-68271264D02*
G01*
X175989525Y-68322801D01*
X176002159Y-68375230D01*
X176248491Y-82662488D01*
X176229965Y-82729857D01*
X176177957Y-82776516D01*
X176168048Y-82780731D01*
X172250000Y-84249999D01*
X170749999Y-109500000D01*
X171493786Y-115450293D01*
X171482569Y-115519256D01*
X171469944Y-115540073D01*
X169289756Y-118446991D01*
X169233785Y-118488812D01*
X169183837Y-118496409D01*
X137032095Y-116751741D01*
X136972790Y-116732884D01*
X132260660Y-113768802D01*
X132101544Y-113668713D01*
X161609500Y-113668713D01*
X161609500Y-113881286D01*
X161634834Y-114041243D01*
X161642754Y-114091243D01*
X161703827Y-114279207D01*
X161708444Y-114293414D01*
X161804951Y-114482820D01*
X161929890Y-114654786D01*
X162080213Y-114805109D01*
X162252179Y-114930048D01*
X162252181Y-114930049D01*
X162252184Y-114930051D01*
X162441588Y-115026557D01*
X162643757Y-115092246D01*
X162853713Y-115125500D01*
X162853714Y-115125500D01*
X163066286Y-115125500D01*
X163066287Y-115125500D01*
X163276243Y-115092246D01*
X163478412Y-115026557D01*
X163667816Y-114930051D01*
X163754478Y-114867088D01*
X163839784Y-114805110D01*
X163839784Y-114805109D01*
X163839792Y-114805104D01*
X163953717Y-114691178D01*
X164015036Y-114657696D01*
X164084728Y-114662680D01*
X164140662Y-114704551D01*
X164157577Y-114735528D01*
X164206646Y-114867088D01*
X164206649Y-114867093D01*
X164292809Y-114982187D01*
X164292812Y-114982190D01*
X164407906Y-115068350D01*
X164407913Y-115068354D01*
X164542620Y-115118596D01*
X164542627Y-115118598D01*
X164602155Y-115124999D01*
X164602172Y-115125000D01*
X165250000Y-115125000D01*
X165250000Y-114208012D01*
X165307007Y-114240925D01*
X165434174Y-114275000D01*
X165565826Y-114275000D01*
X165692993Y-114240925D01*
X165750000Y-114208012D01*
X165750000Y-115125000D01*
X166397828Y-115125000D01*
X166397844Y-115124999D01*
X166457372Y-115118598D01*
X166457379Y-115118596D01*
X166592086Y-115068354D01*
X166592093Y-115068350D01*
X166707187Y-114982190D01*
X166707190Y-114982187D01*
X166793350Y-114867093D01*
X166793354Y-114867086D01*
X166843596Y-114732379D01*
X166843598Y-114732372D01*
X166849999Y-114672844D01*
X166850000Y-114672827D01*
X166850000Y-114025000D01*
X165933012Y-114025000D01*
X165965925Y-113967993D01*
X166000000Y-113840826D01*
X166000000Y-113709174D01*
X165965925Y-113582007D01*
X165933012Y-113525000D01*
X166850000Y-113525000D01*
X166850000Y-112877172D01*
X166849999Y-112877155D01*
X166843598Y-112817627D01*
X166843596Y-112817620D01*
X166793354Y-112682913D01*
X166793350Y-112682906D01*
X166707190Y-112567812D01*
X166707187Y-112567809D01*
X166592093Y-112481649D01*
X166592086Y-112481645D01*
X166457379Y-112431403D01*
X166457372Y-112431401D01*
X166397844Y-112425000D01*
X165750000Y-112425000D01*
X165750000Y-113341988D01*
X165692993Y-113309075D01*
X165565826Y-113275000D01*
X165434174Y-113275000D01*
X165307007Y-113309075D01*
X165250000Y-113341988D01*
X165250000Y-112425000D01*
X164602155Y-112425000D01*
X164542627Y-112431401D01*
X164542620Y-112431403D01*
X164407913Y-112481645D01*
X164407906Y-112481649D01*
X164292812Y-112567809D01*
X164292809Y-112567812D01*
X164206649Y-112682906D01*
X164206646Y-112682912D01*
X164157577Y-112814471D01*
X164115705Y-112870404D01*
X164050241Y-112894821D01*
X163981968Y-112879969D01*
X163953714Y-112858818D01*
X163839786Y-112744890D01*
X163667820Y-112619951D01*
X163478414Y-112523444D01*
X163478413Y-112523443D01*
X163478412Y-112523443D01*
X163276243Y-112457754D01*
X163276241Y-112457753D01*
X163276240Y-112457753D01*
X163114957Y-112432208D01*
X163066287Y-112424500D01*
X162853713Y-112424500D01*
X162805042Y-112432208D01*
X162643760Y-112457753D01*
X162441585Y-112523444D01*
X162252179Y-112619951D01*
X162080213Y-112744890D01*
X161929890Y-112895213D01*
X161804951Y-113067179D01*
X161708444Y-113256585D01*
X161642753Y-113458760D01*
X161609500Y-113668713D01*
X132101544Y-113668713D01*
X126838196Y-110357897D01*
X121557060Y-107035892D01*
X121510795Y-106983535D01*
X121499095Y-106932595D01*
X121494659Y-106602135D01*
X134174500Y-106602135D01*
X134174500Y-108397870D01*
X134174501Y-108397876D01*
X134180908Y-108457483D01*
X134231202Y-108592328D01*
X134231206Y-108592335D01*
X134317452Y-108707544D01*
X134317455Y-108707547D01*
X134432664Y-108793793D01*
X134432671Y-108793797D01*
X134432674Y-108793798D01*
X134564598Y-108843002D01*
X134620531Y-108884873D01*
X134644949Y-108950337D01*
X134630098Y-109018610D01*
X134608947Y-109046865D01*
X134495271Y-109160541D01*
X134370379Y-109332442D01*
X134273904Y-109521782D01*
X134208242Y-109723870D01*
X134208242Y-109723873D01*
X134197769Y-109790000D01*
X135091988Y-109790000D01*
X135059075Y-109847007D01*
X135025000Y-109974174D01*
X135025000Y-110105826D01*
X135059075Y-110232993D01*
X135091988Y-110290000D01*
X134197769Y-110290000D01*
X134208242Y-110356126D01*
X134208242Y-110356129D01*
X134273904Y-110558217D01*
X134370379Y-110747557D01*
X134495272Y-110919459D01*
X134495276Y-110919464D01*
X134645535Y-111069723D01*
X134645540Y-111069727D01*
X134817442Y-111194620D01*
X135006782Y-111291095D01*
X135208871Y-111356757D01*
X135275000Y-111367231D01*
X135275000Y-110473012D01*
X135332007Y-110505925D01*
X135459174Y-110540000D01*
X135590826Y-110540000D01*
X135717993Y-110505925D01*
X135775000Y-110473012D01*
X135775000Y-111367230D01*
X135841126Y-111356757D01*
X135841129Y-111356757D01*
X136043217Y-111291095D01*
X136232557Y-111194620D01*
X136404459Y-111069727D01*
X136404464Y-111069723D01*
X136554723Y-110919464D01*
X136554727Y-110919459D01*
X136679620Y-110747557D01*
X136776095Y-110558217D01*
X136841757Y-110356129D01*
X136841757Y-110356126D01*
X136852231Y-110290000D01*
X135958012Y-110290000D01*
X135990925Y-110232993D01*
X136025000Y-110105826D01*
X136025000Y-109974174D01*
X135990925Y-109847007D01*
X135958012Y-109790000D01*
X136852231Y-109790000D01*
X136841757Y-109723873D01*
X136841757Y-109723870D01*
X136776095Y-109521782D01*
X136679620Y-109332442D01*
X136554727Y-109160540D01*
X136554723Y-109160535D01*
X136441053Y-109046865D01*
X136407568Y-108985542D01*
X136412552Y-108915850D01*
X136454424Y-108859917D01*
X136485400Y-108843002D01*
X136617331Y-108793796D01*
X136732546Y-108707546D01*
X136818796Y-108592331D01*
X136869091Y-108457483D01*
X136875500Y-108397873D01*
X136875499Y-106602128D01*
X136869091Y-106542517D01*
X136823105Y-106419223D01*
X136818797Y-106407671D01*
X136818793Y-106407664D01*
X136732547Y-106292455D01*
X136732544Y-106292452D01*
X136617335Y-106206206D01*
X136617328Y-106206202D01*
X136482482Y-106155908D01*
X136482483Y-106155908D01*
X136422883Y-106149501D01*
X136422881Y-106149500D01*
X136422873Y-106149500D01*
X136422864Y-106149500D01*
X134627129Y-106149500D01*
X134627123Y-106149501D01*
X134567516Y-106155908D01*
X134432671Y-106206202D01*
X134432664Y-106206206D01*
X134317455Y-106292452D01*
X134317452Y-106292455D01*
X134231206Y-106407664D01*
X134231202Y-106407671D01*
X134180908Y-106542517D01*
X134174555Y-106601613D01*
X134174501Y-106602123D01*
X134174500Y-106602135D01*
X121494659Y-106602135D01*
X121369827Y-97302155D01*
X123080000Y-97302155D01*
X123080000Y-98000000D01*
X124104722Y-98000000D01*
X124060667Y-98076306D01*
X124030000Y-98190756D01*
X124030000Y-98309244D01*
X124060667Y-98423694D01*
X124104722Y-98500000D01*
X123080000Y-98500000D01*
X123080000Y-99197844D01*
X123086401Y-99257372D01*
X123086403Y-99257379D01*
X123136645Y-99392086D01*
X123136649Y-99392093D01*
X123222809Y-99507187D01*
X123222812Y-99507190D01*
X123337906Y-99593350D01*
X123337913Y-99593354D01*
X123472620Y-99643596D01*
X123472627Y-99643598D01*
X123532155Y-99649999D01*
X123532172Y-99650000D01*
X124230000Y-99650000D01*
X124230000Y-98625277D01*
X124306306Y-98669333D01*
X124420756Y-98700000D01*
X124539244Y-98700000D01*
X124653694Y-98669333D01*
X124730000Y-98625277D01*
X124730000Y-99650000D01*
X125427828Y-99650000D01*
X125427844Y-99649999D01*
X125487372Y-99643598D01*
X125487379Y-99643596D01*
X125622086Y-99593354D01*
X125622093Y-99593350D01*
X125737187Y-99507190D01*
X125737190Y-99507187D01*
X125823350Y-99392093D01*
X125823354Y-99392086D01*
X125853213Y-99312031D01*
X125895084Y-99256097D01*
X125960548Y-99231680D01*
X126028821Y-99246531D01*
X126057076Y-99267683D01*
X126107636Y-99318243D01*
X126107641Y-99318247D01*
X126263192Y-99431260D01*
X126285978Y-99447815D01*
X126402501Y-99507187D01*
X126482393Y-99547895D01*
X126482396Y-99547896D01*
X126566773Y-99575311D01*
X126692049Y-99616015D01*
X126909778Y-99650500D01*
X126909779Y-99650500D01*
X127130221Y-99650500D01*
X127130222Y-99650500D01*
X127347951Y-99616015D01*
X127557606Y-99547895D01*
X127754022Y-99447815D01*
X127932365Y-99318242D01*
X128088242Y-99162365D01*
X128217815Y-98984022D01*
X128317895Y-98787606D01*
X128386015Y-98577951D01*
X128420500Y-98360222D01*
X128420500Y-98139778D01*
X128386015Y-97922049D01*
X128346612Y-97800776D01*
X128317896Y-97712396D01*
X128317895Y-97712393D01*
X128283237Y-97644375D01*
X128217815Y-97515978D01*
X128171900Y-97452781D01*
X128088247Y-97337641D01*
X128088243Y-97337636D01*
X127932363Y-97181756D01*
X127932358Y-97181752D01*
X127754025Y-97052187D01*
X127754024Y-97052186D01*
X127754022Y-97052185D01*
X127691096Y-97020122D01*
X127557606Y-96952104D01*
X127557603Y-96952103D01*
X127347952Y-96883985D01*
X127239086Y-96866742D01*
X127130222Y-96849500D01*
X126909778Y-96849500D01*
X126837201Y-96860995D01*
X126692047Y-96883985D01*
X126482396Y-96952103D01*
X126482393Y-96952104D01*
X126285974Y-97052187D01*
X126107641Y-97181752D01*
X126107636Y-97181756D01*
X126057075Y-97232317D01*
X125995752Y-97265801D01*
X125926060Y-97260816D01*
X125870127Y-97218945D01*
X125853213Y-97187968D01*
X125823354Y-97107913D01*
X125823350Y-97107906D01*
X125737190Y-96992812D01*
X125737187Y-96992809D01*
X125622093Y-96906649D01*
X125622086Y-96906645D01*
X125487379Y-96856403D01*
X125487372Y-96856401D01*
X125427844Y-96850000D01*
X124730000Y-96850000D01*
X124730000Y-97874722D01*
X124653694Y-97830667D01*
X124539244Y-97800000D01*
X124420756Y-97800000D01*
X124306306Y-97830667D01*
X124230000Y-97874722D01*
X124230000Y-96850000D01*
X123532155Y-96850000D01*
X123472627Y-96856401D01*
X123472620Y-96856403D01*
X123337913Y-96906645D01*
X123337906Y-96906649D01*
X123222812Y-96992809D01*
X123222809Y-96992812D01*
X123136649Y-97107906D01*
X123136645Y-97107913D01*
X123086403Y-97242620D01*
X123086401Y-97242627D01*
X123080000Y-97302155D01*
X121369827Y-97302155D01*
X121351080Y-95905513D01*
X130009500Y-95905513D01*
X130009500Y-96094486D01*
X130039059Y-96281118D01*
X130097454Y-96460836D01*
X130172041Y-96607219D01*
X130183240Y-96629199D01*
X130294310Y-96782073D01*
X130427927Y-96915690D01*
X130580801Y-97026760D01*
X130660347Y-97067290D01*
X130749163Y-97112545D01*
X130749165Y-97112545D01*
X130749168Y-97112547D01*
X130835152Y-97140485D01*
X130928881Y-97170940D01*
X131115514Y-97200500D01*
X131115519Y-97200500D01*
X131304486Y-97200500D01*
X131491118Y-97170940D01*
X131670832Y-97112547D01*
X131839199Y-97026760D01*
X131992073Y-96915690D01*
X132125690Y-96782073D01*
X132236760Y-96629199D01*
X132322547Y-96460832D01*
X132380940Y-96281118D01*
X132384408Y-96259223D01*
X132410500Y-96094486D01*
X132410500Y-95905513D01*
X135089500Y-95905513D01*
X135089500Y-96094486D01*
X135119059Y-96281118D01*
X135177454Y-96460836D01*
X135252041Y-96607219D01*
X135263240Y-96629199D01*
X135374310Y-96782073D01*
X135507927Y-96915690D01*
X135660801Y-97026760D01*
X135740347Y-97067290D01*
X135829163Y-97112545D01*
X135829165Y-97112545D01*
X135829168Y-97112547D01*
X135915152Y-97140485D01*
X136008881Y-97170940D01*
X136195514Y-97200500D01*
X136195519Y-97200500D01*
X136384486Y-97200500D01*
X136571118Y-97170940D01*
X136750832Y-97112547D01*
X136919199Y-97026760D01*
X137072073Y-96915690D01*
X137205690Y-96782073D01*
X137316760Y-96629199D01*
X137402547Y-96460832D01*
X137460940Y-96281118D01*
X137464408Y-96259223D01*
X137490500Y-96094486D01*
X137490500Y-95905513D01*
X137460940Y-95718881D01*
X137402545Y-95539163D01*
X137357290Y-95450347D01*
X137316760Y-95370801D01*
X137205690Y-95217927D01*
X137072073Y-95084310D01*
X136919199Y-94973240D01*
X136750836Y-94887454D01*
X136571118Y-94829059D01*
X136384486Y-94799500D01*
X136384481Y-94799500D01*
X136195519Y-94799500D01*
X136195514Y-94799500D01*
X136008881Y-94829059D01*
X135829163Y-94887454D01*
X135660800Y-94973240D01*
X135573579Y-95036610D01*
X135507927Y-95084310D01*
X135507925Y-95084312D01*
X135507924Y-95084312D01*
X135374312Y-95217924D01*
X135374312Y-95217925D01*
X135374310Y-95217927D01*
X135343178Y-95260776D01*
X135263240Y-95370800D01*
X135177454Y-95539163D01*
X135119059Y-95718881D01*
X135089500Y-95905513D01*
X132410500Y-95905513D01*
X132380940Y-95718881D01*
X132322545Y-95539163D01*
X132277290Y-95450347D01*
X132236760Y-95370801D01*
X132125690Y-95217927D01*
X131992073Y-95084310D01*
X131839199Y-94973240D01*
X131670836Y-94887454D01*
X131491118Y-94829059D01*
X131304486Y-94799500D01*
X131304481Y-94799500D01*
X131115519Y-94799500D01*
X131115514Y-94799500D01*
X130928881Y-94829059D01*
X130749163Y-94887454D01*
X130580800Y-94973240D01*
X130493579Y-95036610D01*
X130427927Y-95084310D01*
X130427925Y-95084312D01*
X130427924Y-95084312D01*
X130294312Y-95217924D01*
X130294312Y-95217925D01*
X130294310Y-95217927D01*
X130263178Y-95260776D01*
X130183240Y-95370800D01*
X130097454Y-95539163D01*
X130039059Y-95718881D01*
X130009500Y-95905513D01*
X121351080Y-95905513D01*
X121272511Y-90052155D01*
X123080000Y-90052155D01*
X123080000Y-90750000D01*
X124104722Y-90750000D01*
X124060667Y-90826306D01*
X124030000Y-90940756D01*
X124030000Y-91059244D01*
X124060667Y-91173694D01*
X124104722Y-91250000D01*
X123080000Y-91250000D01*
X123080000Y-91947844D01*
X123086401Y-92007372D01*
X123086403Y-92007379D01*
X123136645Y-92142086D01*
X123136649Y-92142093D01*
X123222809Y-92257187D01*
X123222812Y-92257190D01*
X123337906Y-92343350D01*
X123337913Y-92343354D01*
X123472620Y-92393596D01*
X123472627Y-92393598D01*
X123532155Y-92399999D01*
X123532172Y-92400000D01*
X124230000Y-92400000D01*
X124230000Y-91375277D01*
X124306306Y-91419333D01*
X124420756Y-91450000D01*
X124539244Y-91450000D01*
X124653694Y-91419333D01*
X124730000Y-91375277D01*
X124730000Y-92400000D01*
X125427828Y-92400000D01*
X125427844Y-92399999D01*
X125487372Y-92393598D01*
X125487379Y-92393596D01*
X125622086Y-92343354D01*
X125622093Y-92343350D01*
X125737187Y-92257190D01*
X125737190Y-92257187D01*
X125823350Y-92142093D01*
X125823354Y-92142086D01*
X125853213Y-92062031D01*
X125895084Y-92006097D01*
X125960548Y-91981680D01*
X126028821Y-91996531D01*
X126057076Y-92017683D01*
X126107636Y-92068243D01*
X126107641Y-92068247D01*
X126217226Y-92147864D01*
X126285978Y-92197815D01*
X126402501Y-92257187D01*
X126482393Y-92297895D01*
X126482396Y-92297896D01*
X126587221Y-92331955D01*
X126692049Y-92366015D01*
X126909778Y-92400500D01*
X126909779Y-92400500D01*
X127130221Y-92400500D01*
X127130222Y-92400500D01*
X127347951Y-92366015D01*
X127557606Y-92297895D01*
X127754022Y-92197815D01*
X127932365Y-92068242D01*
X128088242Y-91912365D01*
X128217815Y-91734022D01*
X128317895Y-91537606D01*
X128386015Y-91327951D01*
X128420500Y-91110222D01*
X128420500Y-90889778D01*
X128386015Y-90672049D01*
X128380642Y-90655513D01*
X130009500Y-90655513D01*
X130009500Y-90844486D01*
X130039059Y-91031118D01*
X130097454Y-91210836D01*
X130183240Y-91379199D01*
X130294310Y-91532073D01*
X130427927Y-91665690D01*
X130580801Y-91776760D01*
X130611269Y-91792284D01*
X130749163Y-91862545D01*
X130749165Y-91862545D01*
X130749168Y-91862547D01*
X130818948Y-91885220D01*
X130928881Y-91920940D01*
X131115514Y-91950500D01*
X131115519Y-91950500D01*
X131304486Y-91950500D01*
X131491118Y-91920940D01*
X131517515Y-91912363D01*
X131670832Y-91862547D01*
X131839199Y-91776760D01*
X131992073Y-91665690D01*
X132125690Y-91532073D01*
X132236760Y-91379199D01*
X132322547Y-91210832D01*
X132380940Y-91031118D01*
X132403326Y-90889778D01*
X132410500Y-90844486D01*
X132410500Y-90655513D01*
X135089500Y-90655513D01*
X135089500Y-90844486D01*
X135119059Y-91031118D01*
X135177454Y-91210836D01*
X135263240Y-91379199D01*
X135374310Y-91532073D01*
X135507927Y-91665690D01*
X135660801Y-91776760D01*
X135691269Y-91792284D01*
X135829163Y-91862545D01*
X135829165Y-91862545D01*
X135829168Y-91862547D01*
X135898948Y-91885220D01*
X136008881Y-91920940D01*
X136195514Y-91950500D01*
X136195519Y-91950500D01*
X136384486Y-91950500D01*
X136571118Y-91920940D01*
X136597515Y-91912363D01*
X136750832Y-91862547D01*
X136919199Y-91776760D01*
X137072073Y-91665690D01*
X137205690Y-91532073D01*
X137316760Y-91379199D01*
X137402547Y-91210832D01*
X137460940Y-91031118D01*
X137483326Y-90889778D01*
X137490500Y-90844486D01*
X137490500Y-90655513D01*
X137460940Y-90468881D01*
X137403635Y-90292517D01*
X137402547Y-90289168D01*
X137402545Y-90289165D01*
X137402545Y-90289163D01*
X137335545Y-90157669D01*
X137316760Y-90120801D01*
X137205690Y-89967927D01*
X137072073Y-89834310D01*
X136919199Y-89723240D01*
X136750836Y-89637454D01*
X136571118Y-89579059D01*
X136384486Y-89549500D01*
X136384481Y-89549500D01*
X136195519Y-89549500D01*
X136195514Y-89549500D01*
X136008881Y-89579059D01*
X135829163Y-89637454D01*
X135660800Y-89723240D01*
X135573579Y-89786610D01*
X135507927Y-89834310D01*
X135507925Y-89834312D01*
X135507924Y-89834312D01*
X135374312Y-89967924D01*
X135374312Y-89967925D01*
X135374310Y-89967927D01*
X135343149Y-90010816D01*
X135263240Y-90120800D01*
X135177454Y-90289163D01*
X135119059Y-90468881D01*
X135089500Y-90655513D01*
X132410500Y-90655513D01*
X132380940Y-90468881D01*
X132323635Y-90292517D01*
X132322547Y-90289168D01*
X132322545Y-90289165D01*
X132322545Y-90289163D01*
X132255545Y-90157669D01*
X132236760Y-90120801D01*
X132125690Y-89967927D01*
X131992073Y-89834310D01*
X131839199Y-89723240D01*
X131670836Y-89637454D01*
X131491118Y-89579059D01*
X131304486Y-89549500D01*
X131304481Y-89549500D01*
X131115519Y-89549500D01*
X131115514Y-89549500D01*
X130928881Y-89579059D01*
X130749163Y-89637454D01*
X130580800Y-89723240D01*
X130493579Y-89786610D01*
X130427927Y-89834310D01*
X130427925Y-89834312D01*
X130427924Y-89834312D01*
X130294312Y-89967924D01*
X130294312Y-89967925D01*
X130294310Y-89967927D01*
X130263149Y-90010816D01*
X130183240Y-90120800D01*
X130097454Y-90289163D01*
X130039059Y-90468881D01*
X130009500Y-90655513D01*
X128380642Y-90655513D01*
X128355343Y-90577648D01*
X128317896Y-90462396D01*
X128317895Y-90462393D01*
X128283237Y-90394375D01*
X128217815Y-90265978D01*
X128155916Y-90180781D01*
X128088247Y-90087641D01*
X128088243Y-90087636D01*
X127932363Y-89931756D01*
X127932358Y-89931752D01*
X127754025Y-89802187D01*
X127754024Y-89802186D01*
X127754022Y-89802185D01*
X127691096Y-89770122D01*
X127557606Y-89702104D01*
X127557603Y-89702103D01*
X127347952Y-89633985D01*
X127239086Y-89616742D01*
X127130222Y-89599500D01*
X126909778Y-89599500D01*
X126837201Y-89610995D01*
X126692047Y-89633985D01*
X126482396Y-89702103D01*
X126482393Y-89702104D01*
X126285974Y-89802187D01*
X126107641Y-89931752D01*
X126107636Y-89931756D01*
X126057075Y-89982317D01*
X125995752Y-90015801D01*
X125926060Y-90010816D01*
X125870127Y-89968945D01*
X125853213Y-89937968D01*
X125823354Y-89857913D01*
X125823350Y-89857906D01*
X125737190Y-89742812D01*
X125737187Y-89742809D01*
X125622093Y-89656649D01*
X125622086Y-89656645D01*
X125487379Y-89606403D01*
X125487372Y-89606401D01*
X125427844Y-89600000D01*
X124730000Y-89600000D01*
X124730000Y-90624722D01*
X124653694Y-90580667D01*
X124539244Y-90550000D01*
X124420756Y-90550000D01*
X124306306Y-90580667D01*
X124230000Y-90624722D01*
X124230000Y-89600000D01*
X123532155Y-89600000D01*
X123472627Y-89606401D01*
X123472620Y-89606403D01*
X123337913Y-89656645D01*
X123337906Y-89656649D01*
X123222812Y-89742809D01*
X123222809Y-89742812D01*
X123136649Y-89857906D01*
X123136645Y-89857913D01*
X123086403Y-89992620D01*
X123086401Y-89992627D01*
X123080000Y-90052155D01*
X121272511Y-90052155D01*
X121175196Y-82802155D01*
X123080000Y-82802155D01*
X123080000Y-83500000D01*
X124104722Y-83500000D01*
X124060667Y-83576306D01*
X124030000Y-83690756D01*
X124030000Y-83809244D01*
X124060667Y-83923694D01*
X124104722Y-84000000D01*
X123080000Y-84000000D01*
X123080000Y-84697844D01*
X123086401Y-84757372D01*
X123086403Y-84757379D01*
X123136645Y-84892086D01*
X123136649Y-84892093D01*
X123222809Y-85007187D01*
X123222812Y-85007190D01*
X123337906Y-85093350D01*
X123337913Y-85093354D01*
X123472620Y-85143596D01*
X123472627Y-85143598D01*
X123532155Y-85149999D01*
X123532172Y-85150000D01*
X124230000Y-85150000D01*
X124230000Y-84125277D01*
X124306306Y-84169333D01*
X124420756Y-84200000D01*
X124539244Y-84200000D01*
X124653694Y-84169333D01*
X124730000Y-84125277D01*
X124730000Y-85150000D01*
X125427828Y-85150000D01*
X125427844Y-85149999D01*
X125487372Y-85143598D01*
X125487379Y-85143596D01*
X125622086Y-85093354D01*
X125622093Y-85093350D01*
X125737187Y-85007190D01*
X125737190Y-85007187D01*
X125823350Y-84892093D01*
X125823354Y-84892086D01*
X125853213Y-84812031D01*
X125895084Y-84756097D01*
X125960548Y-84731680D01*
X126028821Y-84746531D01*
X126057076Y-84767683D01*
X126107636Y-84818243D01*
X126107641Y-84818247D01*
X126241757Y-84915687D01*
X126285978Y-84947815D01*
X126402501Y-85007187D01*
X126482393Y-85047895D01*
X126482396Y-85047896D01*
X126587221Y-85081955D01*
X126692049Y-85116015D01*
X126909778Y-85150500D01*
X126909779Y-85150500D01*
X127130221Y-85150500D01*
X127130222Y-85150500D01*
X127347951Y-85116015D01*
X127557606Y-85047895D01*
X127754022Y-84947815D01*
X127932365Y-84818242D01*
X128088242Y-84662365D01*
X128217815Y-84484022D01*
X128317895Y-84287606D01*
X128386015Y-84077951D01*
X128413327Y-83905513D01*
X130009500Y-83905513D01*
X130009500Y-84094486D01*
X130039059Y-84281118D01*
X130097454Y-84460836D01*
X130172453Y-84608028D01*
X130183240Y-84629199D01*
X130294310Y-84782073D01*
X130427927Y-84915690D01*
X130580801Y-85026760D01*
X130622281Y-85047895D01*
X130749163Y-85112545D01*
X130749165Y-85112545D01*
X130749168Y-85112547D01*
X130844726Y-85143596D01*
X130928881Y-85170940D01*
X131115514Y-85200500D01*
X131115519Y-85200500D01*
X131304486Y-85200500D01*
X131491118Y-85170940D01*
X131554025Y-85150500D01*
X131670832Y-85112547D01*
X131839199Y-85026760D01*
X131992073Y-84915690D01*
X132125690Y-84782073D01*
X132236760Y-84629199D01*
X132322547Y-84460832D01*
X132380940Y-84281118D01*
X132390697Y-84219515D01*
X132410500Y-84094486D01*
X132410500Y-83905513D01*
X135089500Y-83905513D01*
X135089500Y-84094486D01*
X135119059Y-84281118D01*
X135177454Y-84460836D01*
X135252453Y-84608028D01*
X135263240Y-84629199D01*
X135374310Y-84782073D01*
X135507927Y-84915690D01*
X135660801Y-85026760D01*
X135702281Y-85047895D01*
X135829163Y-85112545D01*
X135829165Y-85112545D01*
X135829168Y-85112547D01*
X135924726Y-85143596D01*
X136008881Y-85170940D01*
X136195514Y-85200500D01*
X136195519Y-85200500D01*
X136384486Y-85200500D01*
X136571118Y-85170940D01*
X136634025Y-85150500D01*
X136750832Y-85112547D01*
X136919199Y-85026760D01*
X137072073Y-84915690D01*
X137205690Y-84782073D01*
X137316760Y-84629199D01*
X137402547Y-84460832D01*
X137460940Y-84281118D01*
X137470697Y-84219515D01*
X137490500Y-84094486D01*
X137490500Y-83905513D01*
X137460940Y-83718881D01*
X137414614Y-83576306D01*
X137402547Y-83539168D01*
X137402545Y-83539165D01*
X137402545Y-83539163D01*
X137316759Y-83370800D01*
X137314003Y-83367007D01*
X137205690Y-83217927D01*
X137072073Y-83084310D01*
X136919199Y-82973240D01*
X136888394Y-82957544D01*
X136750836Y-82887454D01*
X136571118Y-82829059D01*
X136384486Y-82799500D01*
X136384481Y-82799500D01*
X136195519Y-82799500D01*
X136195514Y-82799500D01*
X136008881Y-82829059D01*
X135829163Y-82887454D01*
X135660800Y-82973240D01*
X135601983Y-83015974D01*
X135507927Y-83084310D01*
X135507925Y-83084312D01*
X135507924Y-83084312D01*
X135374312Y-83217924D01*
X135374312Y-83217925D01*
X135374310Y-83217927D01*
X135348833Y-83252993D01*
X135263240Y-83370800D01*
X135177454Y-83539163D01*
X135119059Y-83718881D01*
X135089500Y-83905513D01*
X132410500Y-83905513D01*
X132380940Y-83718881D01*
X132334614Y-83576306D01*
X132322547Y-83539168D01*
X132322545Y-83539165D01*
X132322545Y-83539163D01*
X132236759Y-83370800D01*
X132234003Y-83367007D01*
X132125690Y-83217927D01*
X131992073Y-83084310D01*
X131839199Y-82973240D01*
X131808394Y-82957544D01*
X131670836Y-82887454D01*
X131491118Y-82829059D01*
X131304486Y-82799500D01*
X131304481Y-82799500D01*
X131115519Y-82799500D01*
X131115514Y-82799500D01*
X130928881Y-82829059D01*
X130749163Y-82887454D01*
X130580800Y-82973240D01*
X130521983Y-83015974D01*
X130427927Y-83084310D01*
X130427925Y-83084312D01*
X130427924Y-83084312D01*
X130294312Y-83217924D01*
X130294312Y-83217925D01*
X130294310Y-83217927D01*
X130268833Y-83252993D01*
X130183240Y-83370800D01*
X130097454Y-83539163D01*
X130039059Y-83718881D01*
X130009500Y-83905513D01*
X128413327Y-83905513D01*
X128420500Y-83860222D01*
X128420500Y-83639778D01*
X128386015Y-83422049D01*
X128349609Y-83310000D01*
X128317896Y-83212396D01*
X128317895Y-83212393D01*
X128273786Y-83125826D01*
X128217815Y-83015978D01*
X128175362Y-82957546D01*
X128088247Y-82837641D01*
X128088243Y-82837636D01*
X127932363Y-82681756D01*
X127932358Y-82681752D01*
X127754025Y-82552187D01*
X127754024Y-82552186D01*
X127754022Y-82552185D01*
X127691096Y-82520122D01*
X127557606Y-82452104D01*
X127557603Y-82452103D01*
X127347952Y-82383985D01*
X127239086Y-82366742D01*
X127130222Y-82349500D01*
X126909778Y-82349500D01*
X126837201Y-82360995D01*
X126692047Y-82383985D01*
X126482396Y-82452103D01*
X126482393Y-82452104D01*
X126285974Y-82552187D01*
X126107641Y-82681752D01*
X126107636Y-82681756D01*
X126057075Y-82732317D01*
X125995752Y-82765801D01*
X125926060Y-82760816D01*
X125870127Y-82718945D01*
X125853213Y-82687968D01*
X125823354Y-82607913D01*
X125823350Y-82607906D01*
X125737190Y-82492812D01*
X125737187Y-82492809D01*
X125622093Y-82406649D01*
X125622086Y-82406645D01*
X125487379Y-82356403D01*
X125487372Y-82356401D01*
X125427844Y-82350000D01*
X124730000Y-82350000D01*
X124730000Y-83374722D01*
X124653694Y-83330667D01*
X124539244Y-83300000D01*
X124420756Y-83300000D01*
X124306306Y-83330667D01*
X124230000Y-83374722D01*
X124230000Y-82350000D01*
X123532155Y-82350000D01*
X123472627Y-82356401D01*
X123472620Y-82356403D01*
X123337913Y-82406645D01*
X123337906Y-82406649D01*
X123222812Y-82492809D01*
X123222809Y-82492812D01*
X123136649Y-82607906D01*
X123136645Y-82607913D01*
X123086403Y-82742620D01*
X123086401Y-82742627D01*
X123080000Y-82802155D01*
X121175196Y-82802155D01*
X121102758Y-77405513D01*
X130009500Y-77405513D01*
X130009500Y-77594486D01*
X130039059Y-77781118D01*
X130097454Y-77960836D01*
X130159370Y-78082351D01*
X130183240Y-78129199D01*
X130294310Y-78282073D01*
X130427927Y-78415690D01*
X130580801Y-78526760D01*
X130660347Y-78567290D01*
X130749163Y-78612545D01*
X130749165Y-78612545D01*
X130749168Y-78612547D01*
X130845497Y-78643846D01*
X130928881Y-78670940D01*
X131115514Y-78700500D01*
X131115519Y-78700500D01*
X131304486Y-78700500D01*
X131491118Y-78670940D01*
X131519823Y-78661613D01*
X131670832Y-78612547D01*
X131839199Y-78526760D01*
X131992073Y-78415690D01*
X132125690Y-78282073D01*
X132236760Y-78129199D01*
X132322547Y-77960832D01*
X132380940Y-77781118D01*
X132389036Y-77730000D01*
X132410500Y-77594486D01*
X132410500Y-77405513D01*
X135089500Y-77405513D01*
X135089500Y-77594486D01*
X135119059Y-77781118D01*
X135177454Y-77960836D01*
X135239370Y-78082351D01*
X135263240Y-78129199D01*
X135374310Y-78282073D01*
X135507927Y-78415690D01*
X135660801Y-78526760D01*
X135740347Y-78567290D01*
X135829163Y-78612545D01*
X135829165Y-78612545D01*
X135829168Y-78612547D01*
X135925497Y-78643846D01*
X136008881Y-78670940D01*
X136195514Y-78700500D01*
X136195519Y-78700500D01*
X136384486Y-78700500D01*
X136571118Y-78670940D01*
X136599823Y-78661613D01*
X136750832Y-78612547D01*
X136919199Y-78526760D01*
X137072073Y-78415690D01*
X137205690Y-78282073D01*
X137316760Y-78129199D01*
X137402547Y-77960832D01*
X137460940Y-77781118D01*
X137469036Y-77730000D01*
X137490500Y-77594486D01*
X137490500Y-77405513D01*
X137460940Y-77218881D01*
X137405383Y-77047896D01*
X137402547Y-77039168D01*
X137402545Y-77039165D01*
X137402545Y-77039163D01*
X137334867Y-76906339D01*
X137316760Y-76870801D01*
X137205690Y-76717927D01*
X137072073Y-76584310D01*
X136919199Y-76473240D01*
X136750836Y-76387454D01*
X136571118Y-76329059D01*
X136384486Y-76299500D01*
X136384481Y-76299500D01*
X136195519Y-76299500D01*
X136195514Y-76299500D01*
X136008881Y-76329059D01*
X135829163Y-76387454D01*
X135660800Y-76473240D01*
X135573579Y-76536610D01*
X135507927Y-76584310D01*
X135507925Y-76584312D01*
X135507924Y-76584312D01*
X135374312Y-76717924D01*
X135374312Y-76717925D01*
X135374310Y-76717927D01*
X135340258Y-76764796D01*
X135263240Y-76870800D01*
X135177454Y-77039163D01*
X135119059Y-77218881D01*
X135089500Y-77405513D01*
X132410500Y-77405513D01*
X132380940Y-77218881D01*
X132325383Y-77047896D01*
X132322547Y-77039168D01*
X132322545Y-77039165D01*
X132322545Y-77039163D01*
X132254867Y-76906339D01*
X132236760Y-76870801D01*
X132125690Y-76717927D01*
X131992073Y-76584310D01*
X131839199Y-76473240D01*
X131670836Y-76387454D01*
X131491118Y-76329059D01*
X131304486Y-76299500D01*
X131304481Y-76299500D01*
X131115519Y-76299500D01*
X131115514Y-76299500D01*
X130928881Y-76329059D01*
X130749163Y-76387454D01*
X130580800Y-76473240D01*
X130493579Y-76536610D01*
X130427927Y-76584310D01*
X130427925Y-76584312D01*
X130427924Y-76584312D01*
X130294312Y-76717924D01*
X130294312Y-76717925D01*
X130294310Y-76717927D01*
X130260258Y-76764796D01*
X130183240Y-76870800D01*
X130097454Y-77039163D01*
X130039059Y-77218881D01*
X130009500Y-77405513D01*
X121102758Y-77405513D01*
X121067814Y-74802155D01*
X123080000Y-74802155D01*
X123080000Y-75500000D01*
X124104722Y-75500000D01*
X124060667Y-75576306D01*
X124030000Y-75690756D01*
X124030000Y-75809244D01*
X124060667Y-75923694D01*
X124104722Y-76000000D01*
X123080000Y-76000000D01*
X123080000Y-76697844D01*
X123086401Y-76757372D01*
X123086403Y-76757379D01*
X123136645Y-76892086D01*
X123136649Y-76892093D01*
X123222809Y-77007187D01*
X123222812Y-77007190D01*
X123337906Y-77093350D01*
X123337913Y-77093354D01*
X123472620Y-77143596D01*
X123472627Y-77143598D01*
X123532155Y-77149999D01*
X123532172Y-77150000D01*
X124230000Y-77150000D01*
X124230000Y-76125277D01*
X124306306Y-76169333D01*
X124420756Y-76200000D01*
X124539244Y-76200000D01*
X124653694Y-76169333D01*
X124730000Y-76125277D01*
X124730000Y-77150000D01*
X125427828Y-77150000D01*
X125427844Y-77149999D01*
X125487372Y-77143598D01*
X125487379Y-77143596D01*
X125622086Y-77093354D01*
X125622093Y-77093350D01*
X125737187Y-77007190D01*
X125737190Y-77007187D01*
X125823350Y-76892093D01*
X125823354Y-76892086D01*
X125853213Y-76812031D01*
X125895084Y-76756097D01*
X125960548Y-76731680D01*
X126028821Y-76746531D01*
X126057076Y-76767683D01*
X126107636Y-76818243D01*
X126107641Y-76818247D01*
X126228891Y-76906339D01*
X126285978Y-76947815D01*
X126402501Y-77007187D01*
X126482393Y-77047895D01*
X126482396Y-77047896D01*
X126587221Y-77081955D01*
X126692049Y-77116015D01*
X126909778Y-77150500D01*
X126909779Y-77150500D01*
X127130221Y-77150500D01*
X127130222Y-77150500D01*
X127347951Y-77116015D01*
X127557606Y-77047895D01*
X127754022Y-76947815D01*
X127932365Y-76818242D01*
X128088242Y-76662365D01*
X128217815Y-76484022D01*
X128317895Y-76287606D01*
X128386015Y-76077951D01*
X128420500Y-75860222D01*
X128420500Y-75639778D01*
X128386015Y-75422049D01*
X128351955Y-75317221D01*
X128317896Y-75212396D01*
X128317895Y-75212393D01*
X128267019Y-75112545D01*
X128217815Y-75015978D01*
X128144950Y-74915687D01*
X128088247Y-74837641D01*
X128088243Y-74837636D01*
X127932360Y-74681753D01*
X127809010Y-74592135D01*
X141179500Y-74592135D01*
X141179500Y-76287870D01*
X141179501Y-76287876D01*
X141185908Y-76347483D01*
X141236202Y-76482328D01*
X141236206Y-76482335D01*
X141322452Y-76597544D01*
X141322455Y-76597547D01*
X141437664Y-76683793D01*
X141437671Y-76683797D01*
X141475334Y-76697844D01*
X141572517Y-76734091D01*
X141609441Y-76738060D01*
X141673989Y-76764796D01*
X141713838Y-76822188D01*
X141716333Y-76892013D01*
X141680681Y-76952102D01*
X141669071Y-76961666D01*
X141632784Y-76988030D01*
X141488028Y-77132786D01*
X141367715Y-77298386D01*
X141274781Y-77480776D01*
X141211522Y-77675465D01*
X141179500Y-77877648D01*
X141179500Y-78082351D01*
X141211522Y-78284534D01*
X141274781Y-78479223D01*
X141367715Y-78661613D01*
X141488028Y-78827213D01*
X141632786Y-78971971D01*
X141787749Y-79084556D01*
X141798390Y-79092287D01*
X141889840Y-79138883D01*
X141891080Y-79139515D01*
X141941876Y-79187490D01*
X141958671Y-79255311D01*
X141936134Y-79321446D01*
X141891080Y-79360485D01*
X141798386Y-79407715D01*
X141632786Y-79528028D01*
X141488028Y-79672786D01*
X141367715Y-79838386D01*
X141274781Y-80020776D01*
X141211522Y-80215465D01*
X141179500Y-80417648D01*
X141179500Y-80622351D01*
X141211522Y-80824534D01*
X141274781Y-81019223D01*
X141367715Y-81201613D01*
X141488028Y-81367213D01*
X141632786Y-81511971D01*
X141787749Y-81624556D01*
X141798390Y-81632287D01*
X141870424Y-81668990D01*
X141891629Y-81679795D01*
X141942425Y-81727770D01*
X141959220Y-81795591D01*
X141936682Y-81861726D01*
X141891629Y-81900765D01*
X141798650Y-81948140D01*
X141633105Y-82068417D01*
X141633104Y-82068417D01*
X141488417Y-82213104D01*
X141488417Y-82213105D01*
X141368140Y-82378650D01*
X141275244Y-82560970D01*
X141212009Y-82755586D01*
X141203391Y-82810000D01*
X142046988Y-82810000D01*
X142014075Y-82867007D01*
X141980000Y-82994174D01*
X141980000Y-83125826D01*
X142014075Y-83252993D01*
X142046988Y-83310000D01*
X141203391Y-83310000D01*
X141212009Y-83364413D01*
X141275244Y-83559029D01*
X141368140Y-83741349D01*
X141488417Y-83906894D01*
X141488417Y-83906895D01*
X141633104Y-84051582D01*
X141798652Y-84171861D01*
X141891628Y-84219234D01*
X141942425Y-84267208D01*
X141959220Y-84335029D01*
X141936683Y-84401164D01*
X141891630Y-84440203D01*
X141798388Y-84487713D01*
X141632786Y-84608028D01*
X141488028Y-84752786D01*
X141367715Y-84918386D01*
X141274781Y-85100776D01*
X141211522Y-85295465D01*
X141179500Y-85497648D01*
X141179500Y-85702351D01*
X141211522Y-85904534D01*
X141274781Y-86099223D01*
X141367715Y-86281613D01*
X141488028Y-86447213D01*
X141632786Y-86591971D01*
X141787749Y-86704556D01*
X141798390Y-86712287D01*
X141889840Y-86758883D01*
X141891080Y-86759515D01*
X141941876Y-86807490D01*
X141958671Y-86875311D01*
X141936134Y-86941446D01*
X141891080Y-86980485D01*
X141798386Y-87027715D01*
X141632786Y-87148028D01*
X141488028Y-87292786D01*
X141367715Y-87458386D01*
X141274781Y-87640776D01*
X141211522Y-87835465D01*
X141179500Y-88037648D01*
X141179500Y-88242351D01*
X141211522Y-88444534D01*
X141274781Y-88639223D01*
X141367715Y-88821613D01*
X141488028Y-88987213D01*
X141632786Y-89131971D01*
X141787749Y-89244556D01*
X141798390Y-89252287D01*
X141889840Y-89298883D01*
X141891080Y-89299515D01*
X141941876Y-89347490D01*
X141958671Y-89415311D01*
X141936134Y-89481446D01*
X141891080Y-89520485D01*
X141798386Y-89567715D01*
X141632786Y-89688028D01*
X141488028Y-89832786D01*
X141367715Y-89998386D01*
X141274781Y-90180776D01*
X141211522Y-90375465D01*
X141179500Y-90577648D01*
X141179500Y-90782351D01*
X141211522Y-90984534D01*
X141274781Y-91179223D01*
X141324248Y-91276306D01*
X141350563Y-91327952D01*
X141367715Y-91361613D01*
X141488028Y-91527213D01*
X141632786Y-91671971D01*
X141777017Y-91776759D01*
X141798390Y-91792287D01*
X141889840Y-91838883D01*
X141891080Y-91839515D01*
X141941876Y-91887490D01*
X141958671Y-91955311D01*
X141936134Y-92021446D01*
X141891080Y-92060485D01*
X141798386Y-92107715D01*
X141632786Y-92228028D01*
X141488028Y-92372786D01*
X141367715Y-92538386D01*
X141274781Y-92720776D01*
X141211522Y-92915465D01*
X141179500Y-93117648D01*
X141179500Y-93322351D01*
X141211522Y-93524534D01*
X141274781Y-93719223D01*
X141367715Y-93901613D01*
X141488028Y-94067213D01*
X141632786Y-94211971D01*
X141787749Y-94324556D01*
X141798390Y-94332287D01*
X141889840Y-94378883D01*
X141891080Y-94379515D01*
X141941876Y-94427490D01*
X141958671Y-94495311D01*
X141936134Y-94561446D01*
X141891080Y-94600485D01*
X141798386Y-94647715D01*
X141632786Y-94768028D01*
X141488028Y-94912786D01*
X141367715Y-95078386D01*
X141274781Y-95260776D01*
X141211522Y-95455465D01*
X141179500Y-95657648D01*
X141179500Y-95862351D01*
X141211522Y-96064534D01*
X141274781Y-96259223D01*
X141367715Y-96441613D01*
X141488028Y-96607213D01*
X141632786Y-96751971D01*
X141776527Y-96856403D01*
X141798390Y-96872287D01*
X141883567Y-96915687D01*
X141891080Y-96919515D01*
X141941876Y-96967490D01*
X141958671Y-97035311D01*
X141936134Y-97101446D01*
X141891080Y-97140485D01*
X141798386Y-97187715D01*
X141632786Y-97308028D01*
X141488028Y-97452786D01*
X141367715Y-97618386D01*
X141274781Y-97800776D01*
X141211522Y-97995465D01*
X141179500Y-98197648D01*
X141179500Y-98402351D01*
X141211522Y-98604534D01*
X141274781Y-98799223D01*
X141367715Y-98981613D01*
X141488028Y-99147213D01*
X141632786Y-99291971D01*
X141770585Y-99392086D01*
X141798390Y-99412287D01*
X141868112Y-99447812D01*
X141891080Y-99459515D01*
X141941876Y-99507490D01*
X141958671Y-99575311D01*
X141936134Y-99641446D01*
X141891080Y-99680485D01*
X141798386Y-99727715D01*
X141632786Y-99848028D01*
X141488028Y-99992786D01*
X141367715Y-100158386D01*
X141274781Y-100340776D01*
X141211522Y-100535465D01*
X141179500Y-100737648D01*
X141179500Y-100942351D01*
X141211522Y-101144534D01*
X141274781Y-101339223D01*
X141367715Y-101521613D01*
X141488028Y-101687213D01*
X141632786Y-101831971D01*
X141787749Y-101944556D01*
X141798390Y-101952287D01*
X141889840Y-101998883D01*
X141891080Y-101999515D01*
X141941876Y-102047490D01*
X141958671Y-102115311D01*
X141936134Y-102181446D01*
X141891080Y-102220485D01*
X141798386Y-102267715D01*
X141632786Y-102388028D01*
X141488028Y-102532786D01*
X141367715Y-102698386D01*
X141274781Y-102880776D01*
X141211522Y-103075465D01*
X141179500Y-103277648D01*
X141179500Y-103482351D01*
X141211522Y-103684534D01*
X141274781Y-103879223D01*
X141367715Y-104061613D01*
X141488028Y-104227213D01*
X141632786Y-104371971D01*
X141787749Y-104484556D01*
X141798390Y-104492287D01*
X141889840Y-104538883D01*
X141891080Y-104539515D01*
X141941876Y-104587490D01*
X141958671Y-104655311D01*
X141936134Y-104721446D01*
X141891080Y-104760485D01*
X141798386Y-104807715D01*
X141632786Y-104928028D01*
X141488028Y-105072786D01*
X141367715Y-105238386D01*
X141274781Y-105420776D01*
X141211522Y-105615465D01*
X141179500Y-105817648D01*
X141179500Y-106022351D01*
X141211522Y-106224534D01*
X141274781Y-106419223D01*
X141367715Y-106601613D01*
X141488028Y-106767213D01*
X141632786Y-106911971D01*
X141787749Y-107024556D01*
X141798390Y-107032287D01*
X141889840Y-107078883D01*
X141891080Y-107079515D01*
X141941876Y-107127490D01*
X141958671Y-107195311D01*
X141936134Y-107261446D01*
X141891080Y-107300485D01*
X141798386Y-107347715D01*
X141632786Y-107468028D01*
X141488028Y-107612786D01*
X141367715Y-107778386D01*
X141274781Y-107960776D01*
X141211522Y-108155465D01*
X141179500Y-108357648D01*
X141179500Y-108562351D01*
X141211522Y-108764534D01*
X141274781Y-108959223D01*
X141367715Y-109141613D01*
X141488028Y-109307213D01*
X141632786Y-109451971D01*
X141728875Y-109521782D01*
X141798390Y-109572287D01*
X141889840Y-109618883D01*
X141891080Y-109619515D01*
X141941876Y-109667490D01*
X141958671Y-109735311D01*
X141936134Y-109801446D01*
X141891080Y-109840485D01*
X141798386Y-109887715D01*
X141632786Y-110008028D01*
X141488028Y-110152786D01*
X141367715Y-110318386D01*
X141274781Y-110500776D01*
X141211522Y-110695465D01*
X141179500Y-110897648D01*
X141179500Y-111102351D01*
X141211522Y-111304534D01*
X141274781Y-111499223D01*
X141367715Y-111681613D01*
X141488028Y-111847213D01*
X141632786Y-111991971D01*
X141787749Y-112104556D01*
X141798390Y-112112287D01*
X141914607Y-112171503D01*
X141980776Y-112205218D01*
X141980778Y-112205218D01*
X141980781Y-112205220D01*
X142085137Y-112239127D01*
X142175465Y-112268477D01*
X142276557Y-112284488D01*
X142377648Y-112300500D01*
X142377649Y-112300500D01*
X142582351Y-112300500D01*
X142582352Y-112300500D01*
X142784534Y-112268477D01*
X142979219Y-112205220D01*
X143161610Y-112112287D01*
X143254590Y-112044732D01*
X143327213Y-111991971D01*
X143327215Y-111991968D01*
X143327219Y-111991966D01*
X143471966Y-111847219D01*
X143471968Y-111847215D01*
X143471971Y-111847213D01*
X143524732Y-111774590D01*
X143592287Y-111681610D01*
X143685220Y-111499219D01*
X143748477Y-111304534D01*
X143780500Y-111102352D01*
X143780500Y-110897648D01*
X143748477Y-110695466D01*
X143685220Y-110500781D01*
X143685218Y-110500778D01*
X143685218Y-110500776D01*
X143651503Y-110434607D01*
X143592287Y-110318390D01*
X143571661Y-110290000D01*
X143471971Y-110152786D01*
X143327213Y-110008028D01*
X143161614Y-109887715D01*
X143155006Y-109884348D01*
X143068917Y-109840483D01*
X143018123Y-109792511D01*
X143001328Y-109724690D01*
X143023865Y-109658555D01*
X143068917Y-109619516D01*
X143161610Y-109572287D01*
X143231125Y-109521782D01*
X143327213Y-109451971D01*
X143327215Y-109451968D01*
X143327219Y-109451966D01*
X143471966Y-109307219D01*
X143471968Y-109307215D01*
X143471971Y-109307213D01*
X143524732Y-109234590D01*
X143592287Y-109141610D01*
X143685220Y-108959219D01*
X143748477Y-108764534D01*
X143780500Y-108562352D01*
X143780500Y-108357648D01*
X143748477Y-108155466D01*
X143685220Y-107960781D01*
X143685218Y-107960778D01*
X143685218Y-107960776D01*
X143651503Y-107894607D01*
X143592287Y-107778390D01*
X143584556Y-107767749D01*
X143471971Y-107612786D01*
X143327213Y-107468028D01*
X143161614Y-107347715D01*
X143155006Y-107344348D01*
X143068917Y-107300483D01*
X143018123Y-107252511D01*
X143001328Y-107184690D01*
X143023865Y-107118555D01*
X143068917Y-107079516D01*
X143161610Y-107032287D01*
X143228712Y-106983535D01*
X143327213Y-106911971D01*
X143327215Y-106911968D01*
X143327219Y-106911966D01*
X143471966Y-106767219D01*
X143471968Y-106767215D01*
X143471971Y-106767213D01*
X143524732Y-106694590D01*
X143592287Y-106601610D01*
X143685220Y-106419219D01*
X143748477Y-106224534D01*
X143780500Y-106022352D01*
X143780500Y-105817648D01*
X143748477Y-105615466D01*
X143685220Y-105420781D01*
X143685218Y-105420778D01*
X143685218Y-105420776D01*
X143651503Y-105354607D01*
X143592287Y-105238390D01*
X143584556Y-105227749D01*
X143471971Y-105072786D01*
X143327213Y-104928028D01*
X143161614Y-104807715D01*
X143155006Y-104804348D01*
X143068917Y-104760483D01*
X143018123Y-104712511D01*
X143001328Y-104644690D01*
X143023865Y-104578555D01*
X143068917Y-104539516D01*
X143161610Y-104492287D01*
X143182770Y-104476913D01*
X143327213Y-104371971D01*
X143327215Y-104371968D01*
X143327219Y-104371966D01*
X143471966Y-104227219D01*
X143471968Y-104227215D01*
X143471971Y-104227213D01*
X143524732Y-104154590D01*
X143592287Y-104061610D01*
X143685220Y-103879219D01*
X143748477Y-103684534D01*
X143780500Y-103482352D01*
X143780500Y-103277648D01*
X143748477Y-103075466D01*
X143734067Y-103031118D01*
X143685218Y-102880776D01*
X143596643Y-102706940D01*
X143592287Y-102698390D01*
X143561140Y-102655519D01*
X143471971Y-102532786D01*
X143327213Y-102388028D01*
X143161614Y-102267715D01*
X143155006Y-102264348D01*
X143068917Y-102220483D01*
X143018123Y-102172511D01*
X143001328Y-102104690D01*
X143023865Y-102038555D01*
X143068917Y-101999516D01*
X143161610Y-101952287D01*
X143182770Y-101936913D01*
X143327213Y-101831971D01*
X143327215Y-101831968D01*
X143327219Y-101831966D01*
X143471966Y-101687219D01*
X143471968Y-101687215D01*
X143471971Y-101687213D01*
X143550548Y-101579059D01*
X143592287Y-101521610D01*
X143685220Y-101339219D01*
X143748477Y-101144534D01*
X143780500Y-100942352D01*
X143780500Y-100737648D01*
X143748477Y-100535466D01*
X143685220Y-100340781D01*
X143685218Y-100340778D01*
X143685218Y-100340776D01*
X143651503Y-100274607D01*
X143592287Y-100158390D01*
X143584556Y-100147749D01*
X143471971Y-99992786D01*
X143327213Y-99848028D01*
X143161614Y-99727715D01*
X143155006Y-99724348D01*
X143068917Y-99680483D01*
X143018123Y-99632511D01*
X143001328Y-99564690D01*
X143023865Y-99498555D01*
X143068917Y-99459516D01*
X143161610Y-99412287D01*
X143189415Y-99392086D01*
X143327213Y-99291971D01*
X143327215Y-99291968D01*
X143327219Y-99291966D01*
X143471966Y-99147219D01*
X143471968Y-99147215D01*
X143471971Y-99147213D01*
X143590532Y-98984025D01*
X143592287Y-98981610D01*
X143685220Y-98799219D01*
X143748477Y-98604534D01*
X143780500Y-98402352D01*
X143780500Y-98197648D01*
X143748477Y-97995466D01*
X143685220Y-97800781D01*
X143685218Y-97800778D01*
X143685218Y-97800776D01*
X143651503Y-97734607D01*
X143592287Y-97618390D01*
X143584556Y-97607749D01*
X143471971Y-97452786D01*
X143327213Y-97308028D01*
X143161614Y-97187715D01*
X143128691Y-97170940D01*
X143068917Y-97140483D01*
X143018123Y-97092511D01*
X143001328Y-97024690D01*
X143023865Y-96958555D01*
X143068917Y-96919516D01*
X143161610Y-96872287D01*
X143213881Y-96834310D01*
X143327213Y-96751971D01*
X143327215Y-96751968D01*
X143327219Y-96751966D01*
X143471966Y-96607219D01*
X143471968Y-96607215D01*
X143471971Y-96607213D01*
X143524732Y-96534590D01*
X143592287Y-96441610D01*
X143685220Y-96259219D01*
X143748477Y-96064534D01*
X143780500Y-95862352D01*
X143780500Y-95657648D01*
X143761734Y-95539163D01*
X143748477Y-95455465D01*
X143685218Y-95260776D01*
X143595304Y-95084312D01*
X143592287Y-95078390D01*
X143564461Y-95040090D01*
X143471971Y-94912786D01*
X143327213Y-94768028D01*
X143161614Y-94647715D01*
X143155006Y-94644348D01*
X143068917Y-94600483D01*
X143018123Y-94552511D01*
X143001328Y-94484690D01*
X143023865Y-94418555D01*
X143068917Y-94379516D01*
X143161610Y-94332287D01*
X143182770Y-94316913D01*
X143327213Y-94211971D01*
X143327215Y-94211968D01*
X143327219Y-94211966D01*
X143471966Y-94067219D01*
X143471968Y-94067215D01*
X143471971Y-94067213D01*
X143526742Y-93991826D01*
X143592287Y-93901610D01*
X143685220Y-93719219D01*
X143748477Y-93524534D01*
X143780500Y-93322352D01*
X143780500Y-93117648D01*
X143748477Y-92915466D01*
X143685220Y-92720781D01*
X143685218Y-92720778D01*
X143685218Y-92720776D01*
X143651503Y-92654607D01*
X143592287Y-92538390D01*
X143533551Y-92457546D01*
X143471971Y-92372786D01*
X143327213Y-92228028D01*
X143161614Y-92107715D01*
X143155006Y-92104348D01*
X143068917Y-92060483D01*
X143018123Y-92012511D01*
X143001328Y-91944690D01*
X143023865Y-91878555D01*
X143068917Y-91839516D01*
X143161610Y-91792287D01*
X143182983Y-91776759D01*
X143327213Y-91671971D01*
X143327215Y-91671968D01*
X143327219Y-91671966D01*
X143471966Y-91527219D01*
X143471968Y-91527215D01*
X143471971Y-91527213D01*
X143550349Y-91419333D01*
X143592287Y-91361610D01*
X143685220Y-91179219D01*
X143748477Y-90984534D01*
X143780500Y-90782352D01*
X143780500Y-90577648D01*
X143748477Y-90375466D01*
X143740896Y-90352135D01*
X143685218Y-90180776D01*
X143637760Y-90087636D01*
X143592287Y-89998390D01*
X143570153Y-89967925D01*
X143471971Y-89832786D01*
X143327213Y-89688028D01*
X143161614Y-89567715D01*
X143125865Y-89549500D01*
X143068917Y-89520483D01*
X143018123Y-89472511D01*
X143001328Y-89404690D01*
X143023865Y-89338555D01*
X143068917Y-89299516D01*
X143161610Y-89252287D01*
X143182770Y-89236913D01*
X143327213Y-89131971D01*
X143327215Y-89131968D01*
X143327219Y-89131966D01*
X143471966Y-88987219D01*
X143471968Y-88987215D01*
X143471971Y-88987213D01*
X143524732Y-88914590D01*
X143592287Y-88821610D01*
X143685220Y-88639219D01*
X143748477Y-88444534D01*
X143780500Y-88242352D01*
X143780500Y-88037648D01*
X143748477Y-87835466D01*
X143685220Y-87640781D01*
X143685218Y-87640778D01*
X143685218Y-87640776D01*
X143640196Y-87552417D01*
X143592287Y-87458390D01*
X143582997Y-87445603D01*
X143471971Y-87292786D01*
X143327213Y-87148028D01*
X143161614Y-87027715D01*
X143155006Y-87024348D01*
X143068917Y-86980483D01*
X143018123Y-86932511D01*
X143001328Y-86864690D01*
X143023865Y-86798555D01*
X143068917Y-86759516D01*
X143161610Y-86712287D01*
X143182770Y-86696913D01*
X143327213Y-86591971D01*
X143327215Y-86591968D01*
X143327219Y-86591966D01*
X143471966Y-86447219D01*
X143471968Y-86447215D01*
X143471971Y-86447213D01*
X143524732Y-86374590D01*
X143592287Y-86281610D01*
X143685220Y-86099219D01*
X143748477Y-85904534D01*
X143780500Y-85702352D01*
X143780500Y-85497648D01*
X143748477Y-85295466D01*
X143685220Y-85100781D01*
X143685218Y-85100778D01*
X143685218Y-85100776D01*
X143637531Y-85007187D01*
X143592287Y-84918390D01*
X143573176Y-84892086D01*
X143471971Y-84752786D01*
X143327213Y-84608028D01*
X143161611Y-84487713D01*
X143068369Y-84440203D01*
X143017574Y-84392229D01*
X143000779Y-84324407D01*
X143023317Y-84258273D01*
X143068371Y-84219234D01*
X143161347Y-84171861D01*
X143326894Y-84051582D01*
X143326895Y-84051582D01*
X143471582Y-83906895D01*
X143471582Y-83906894D01*
X143591859Y-83741349D01*
X143684755Y-83559029D01*
X143747990Y-83364413D01*
X143756609Y-83310000D01*
X142913012Y-83310000D01*
X142945925Y-83252993D01*
X142980000Y-83125826D01*
X142980000Y-82994174D01*
X142945925Y-82867007D01*
X142913012Y-82810000D01*
X143756609Y-82810000D01*
X143747990Y-82755586D01*
X143684755Y-82560970D01*
X143591859Y-82378650D01*
X143471582Y-82213105D01*
X143471582Y-82213104D01*
X143326895Y-82068417D01*
X143161349Y-81948140D01*
X143068370Y-81900765D01*
X143017574Y-81852790D01*
X143000779Y-81784969D01*
X143023316Y-81718835D01*
X143068370Y-81679795D01*
X143068920Y-81679515D01*
X143161610Y-81632287D01*
X143182770Y-81616913D01*
X143327213Y-81511971D01*
X143327215Y-81511968D01*
X143327219Y-81511966D01*
X143471966Y-81367219D01*
X143471968Y-81367215D01*
X143471971Y-81367213D01*
X143524732Y-81294590D01*
X143592287Y-81201610D01*
X143685220Y-81019219D01*
X143748477Y-80824534D01*
X143780500Y-80622352D01*
X143780500Y-80417648D01*
X143748477Y-80215466D01*
X143745849Y-80207379D01*
X143707535Y-80089459D01*
X143685220Y-80020781D01*
X143685218Y-80020778D01*
X143685218Y-80020776D01*
X143651503Y-79954607D01*
X143592287Y-79838390D01*
X143584556Y-79827749D01*
X143471971Y-79672786D01*
X143327213Y-79528028D01*
X143161614Y-79407715D01*
X143152346Y-79402993D01*
X143068917Y-79360483D01*
X143018123Y-79312511D01*
X143001328Y-79244690D01*
X143023865Y-79178555D01*
X143068917Y-79139516D01*
X143161610Y-79092287D01*
X143265225Y-79017007D01*
X143327213Y-78971971D01*
X143327215Y-78971968D01*
X143327219Y-78971966D01*
X143471966Y-78827219D01*
X143471968Y-78827215D01*
X143471971Y-78827213D01*
X143564032Y-78700500D01*
X143592287Y-78661610D01*
X143685220Y-78479219D01*
X143748477Y-78284534D01*
X143780500Y-78082352D01*
X143780500Y-77877648D01*
X143765211Y-77781118D01*
X143748477Y-77675465D01*
X143685218Y-77480776D01*
X143592419Y-77298650D01*
X143592287Y-77298390D01*
X143534521Y-77218881D01*
X143471971Y-77132786D01*
X143327219Y-76988034D01*
X143290930Y-76961669D01*
X143248264Y-76906339D01*
X143242285Y-76836726D01*
X143274890Y-76774931D01*
X143335728Y-76740573D01*
X143350562Y-76738060D01*
X143387483Y-76734091D01*
X143522328Y-76683797D01*
X143522327Y-76683797D01*
X143522331Y-76683796D01*
X143637546Y-76597546D01*
X143723796Y-76482331D01*
X143774091Y-76347483D01*
X143780500Y-76287873D01*
X143780499Y-75337648D01*
X156419500Y-75337648D01*
X156419500Y-75542351D01*
X156451522Y-75744534D01*
X156514781Y-75939223D01*
X156559153Y-76026306D01*
X156601843Y-76110090D01*
X156607715Y-76121613D01*
X156728028Y-76287213D01*
X156872786Y-76431971D01*
X157027749Y-76544556D01*
X157038390Y-76552287D01*
X157101239Y-76584310D01*
X157131629Y-76599795D01*
X157182425Y-76647770D01*
X157199220Y-76715591D01*
X157176682Y-76781726D01*
X157131629Y-76820765D01*
X157038650Y-76868140D01*
X156873105Y-76988417D01*
X156873104Y-76988417D01*
X156728417Y-77133104D01*
X156728417Y-77133105D01*
X156608140Y-77298650D01*
X156515244Y-77480970D01*
X156452009Y-77675586D01*
X156443391Y-77730000D01*
X157286988Y-77730000D01*
X157254075Y-77787007D01*
X157220000Y-77914174D01*
X157220000Y-78045826D01*
X157254075Y-78172993D01*
X157286988Y-78230000D01*
X156443391Y-78230000D01*
X156452009Y-78284413D01*
X156515244Y-78479029D01*
X156608140Y-78661349D01*
X156728417Y-78826894D01*
X156728417Y-78826895D01*
X156873104Y-78971582D01*
X157038652Y-79091861D01*
X157131628Y-79139234D01*
X157182425Y-79187208D01*
X157199220Y-79255029D01*
X157176683Y-79321164D01*
X157131630Y-79360203D01*
X157038388Y-79407713D01*
X156872786Y-79528028D01*
X156728028Y-79672786D01*
X156607715Y-79838386D01*
X156514781Y-80020776D01*
X156451522Y-80215465D01*
X156419500Y-80417648D01*
X156419500Y-80622351D01*
X156451522Y-80824534D01*
X156514781Y-81019223D01*
X156607715Y-81201613D01*
X156728028Y-81367213D01*
X156872786Y-81511971D01*
X157027749Y-81624556D01*
X157038390Y-81632287D01*
X157129840Y-81678883D01*
X157131080Y-81679515D01*
X157181876Y-81727490D01*
X157198671Y-81795311D01*
X157176134Y-81861446D01*
X157131080Y-81900485D01*
X157038386Y-81947715D01*
X156872786Y-82068028D01*
X156728028Y-82212786D01*
X156607715Y-82378386D01*
X156514781Y-82560776D01*
X156451522Y-82755465D01*
X156419500Y-82957648D01*
X156419500Y-83162351D01*
X156451522Y-83364534D01*
X156514781Y-83559223D01*
X156555827Y-83639778D01*
X156596132Y-83718882D01*
X156607715Y-83741613D01*
X156728028Y-83907213D01*
X156872786Y-84051971D01*
X156952782Y-84110090D01*
X157038390Y-84172287D01*
X157129840Y-84218883D01*
X157131080Y-84219515D01*
X157181876Y-84267490D01*
X157198671Y-84335311D01*
X157176134Y-84401446D01*
X157131080Y-84440485D01*
X157038386Y-84487715D01*
X156872786Y-84608028D01*
X156728028Y-84752786D01*
X156607715Y-84918386D01*
X156514781Y-85100776D01*
X156451522Y-85295465D01*
X156419500Y-85497648D01*
X156419500Y-85702351D01*
X156451522Y-85904534D01*
X156514781Y-86099223D01*
X156607715Y-86281613D01*
X156728028Y-86447213D01*
X156872786Y-86591971D01*
X157027749Y-86704556D01*
X157038390Y-86712287D01*
X157129840Y-86758883D01*
X157131080Y-86759515D01*
X157181876Y-86807490D01*
X157198671Y-86875311D01*
X157176134Y-86941446D01*
X157131080Y-86980485D01*
X157038386Y-87027715D01*
X156872786Y-87148028D01*
X156728028Y-87292786D01*
X156607715Y-87458386D01*
X156514781Y-87640776D01*
X156451522Y-87835465D01*
X156419500Y-88037648D01*
X156419500Y-88242351D01*
X156451522Y-88444534D01*
X156514781Y-88639223D01*
X156607715Y-88821613D01*
X156728028Y-88987213D01*
X156872786Y-89131971D01*
X157027749Y-89244556D01*
X157038390Y-89252287D01*
X157129840Y-89298883D01*
X157131080Y-89299515D01*
X157181876Y-89347490D01*
X157198671Y-89415311D01*
X157176134Y-89481446D01*
X157131080Y-89520485D01*
X157038386Y-89567715D01*
X156872786Y-89688028D01*
X156728028Y-89832786D01*
X156607715Y-89998386D01*
X156514781Y-90180776D01*
X156451522Y-90375465D01*
X156419500Y-90577648D01*
X156419500Y-90782351D01*
X156451522Y-90984534D01*
X156514781Y-91179223D01*
X156564248Y-91276306D01*
X156590563Y-91327952D01*
X156607715Y-91361613D01*
X156728028Y-91527213D01*
X156872786Y-91671971D01*
X157017017Y-91776759D01*
X157038390Y-91792287D01*
X157129840Y-91838883D01*
X157131080Y-91839515D01*
X157181876Y-91887490D01*
X157198671Y-91955311D01*
X157176134Y-92021446D01*
X157131080Y-92060485D01*
X157038386Y-92107715D01*
X156872786Y-92228028D01*
X156728028Y-92372786D01*
X156607715Y-92538386D01*
X156514781Y-92720776D01*
X156451522Y-92915465D01*
X156419500Y-93117648D01*
X156419500Y-93322351D01*
X156451522Y-93524534D01*
X156514781Y-93719223D01*
X156607715Y-93901613D01*
X156728028Y-94067213D01*
X156872786Y-94211971D01*
X157027749Y-94324556D01*
X157038390Y-94332287D01*
X157129840Y-94378883D01*
X157131080Y-94379515D01*
X157181876Y-94427490D01*
X157198671Y-94495311D01*
X157176134Y-94561446D01*
X157131080Y-94600485D01*
X157038386Y-94647715D01*
X156872786Y-94768028D01*
X156728028Y-94912786D01*
X156607715Y-95078386D01*
X156514781Y-95260776D01*
X156451522Y-95455465D01*
X156419500Y-95657648D01*
X156419500Y-95862351D01*
X156451522Y-96064534D01*
X156514781Y-96259223D01*
X156607715Y-96441613D01*
X156728028Y-96607213D01*
X156872786Y-96751971D01*
X157016527Y-96856403D01*
X157038390Y-96872287D01*
X157123567Y-96915687D01*
X157131080Y-96919515D01*
X157181876Y-96967490D01*
X157198671Y-97035311D01*
X157176134Y-97101446D01*
X157131080Y-97140485D01*
X157038386Y-97187715D01*
X156872786Y-97308028D01*
X156728028Y-97452786D01*
X156607715Y-97618386D01*
X156514781Y-97800776D01*
X156451522Y-97995465D01*
X156419500Y-98197648D01*
X156419500Y-98402351D01*
X156451522Y-98604534D01*
X156514781Y-98799223D01*
X156607715Y-98981613D01*
X156728028Y-99147213D01*
X156872786Y-99291971D01*
X157010585Y-99392086D01*
X157038390Y-99412287D01*
X157108112Y-99447812D01*
X157131080Y-99459515D01*
X157181876Y-99507490D01*
X157198671Y-99575311D01*
X157176134Y-99641446D01*
X157131080Y-99680485D01*
X157038386Y-99727715D01*
X156872786Y-99848028D01*
X156728028Y-99992786D01*
X156607715Y-100158386D01*
X156514781Y-100340776D01*
X156451522Y-100535465D01*
X156419500Y-100737648D01*
X156419500Y-100942351D01*
X156451522Y-101144534D01*
X156514781Y-101339223D01*
X156607715Y-101521613D01*
X156728028Y-101687213D01*
X156872786Y-101831971D01*
X157027749Y-101944556D01*
X157038390Y-101952287D01*
X157129840Y-101998883D01*
X157131080Y-101999515D01*
X157181876Y-102047490D01*
X157198671Y-102115311D01*
X157176134Y-102181446D01*
X157131080Y-102220485D01*
X157038386Y-102267715D01*
X156872786Y-102388028D01*
X156728028Y-102532786D01*
X156607715Y-102698386D01*
X156514781Y-102880776D01*
X156451522Y-103075465D01*
X156419500Y-103277648D01*
X156419500Y-103482351D01*
X156451522Y-103684534D01*
X156514781Y-103879223D01*
X156607715Y-104061613D01*
X156728028Y-104227213D01*
X156872786Y-104371971D01*
X157027749Y-104484556D01*
X157038390Y-104492287D01*
X157129840Y-104538883D01*
X157131080Y-104539515D01*
X157181876Y-104587490D01*
X157198671Y-104655311D01*
X157176134Y-104721446D01*
X157131080Y-104760485D01*
X157038386Y-104807715D01*
X156872786Y-104928028D01*
X156728028Y-105072786D01*
X156607715Y-105238386D01*
X156514781Y-105420776D01*
X156451522Y-105615465D01*
X156419500Y-105817648D01*
X156419500Y-106022351D01*
X156451522Y-106224534D01*
X156514781Y-106419223D01*
X156607715Y-106601613D01*
X156728028Y-106767213D01*
X156872786Y-106911971D01*
X157027749Y-107024556D01*
X157038390Y-107032287D01*
X157129840Y-107078883D01*
X157131080Y-107079515D01*
X157181876Y-107127490D01*
X157198671Y-107195311D01*
X157176134Y-107261446D01*
X157131080Y-107300485D01*
X157038386Y-107347715D01*
X156872786Y-107468028D01*
X156728028Y-107612786D01*
X156607715Y-107778386D01*
X156514781Y-107960776D01*
X156451522Y-108155465D01*
X156419500Y-108357648D01*
X156419500Y-108562351D01*
X156451522Y-108764534D01*
X156514781Y-108959223D01*
X156607715Y-109141613D01*
X156728028Y-109307213D01*
X156872786Y-109451971D01*
X156968875Y-109521782D01*
X157038390Y-109572287D01*
X157129840Y-109618883D01*
X157131080Y-109619515D01*
X157181876Y-109667490D01*
X157198671Y-109735311D01*
X157176134Y-109801446D01*
X157131080Y-109840485D01*
X157038386Y-109887715D01*
X156872786Y-110008028D01*
X156728028Y-110152786D01*
X156607715Y-110318386D01*
X156514781Y-110500776D01*
X156451522Y-110695465D01*
X156419500Y-110897648D01*
X156419500Y-111102351D01*
X156451522Y-111304534D01*
X156514781Y-111499223D01*
X156607715Y-111681613D01*
X156728028Y-111847213D01*
X156872786Y-111991971D01*
X157027749Y-112104556D01*
X157038390Y-112112287D01*
X157154607Y-112171503D01*
X157220776Y-112205218D01*
X157220778Y-112205218D01*
X157220781Y-112205220D01*
X157325137Y-112239127D01*
X157415465Y-112268477D01*
X157516557Y-112284488D01*
X157617648Y-112300500D01*
X157617649Y-112300500D01*
X157822351Y-112300500D01*
X157822352Y-112300500D01*
X158024534Y-112268477D01*
X158219219Y-112205220D01*
X158401610Y-112112287D01*
X158494590Y-112044732D01*
X158567213Y-111991971D01*
X158567215Y-111991968D01*
X158567219Y-111991966D01*
X158711966Y-111847219D01*
X158711968Y-111847215D01*
X158711971Y-111847213D01*
X158764732Y-111774590D01*
X158832287Y-111681610D01*
X158925220Y-111499219D01*
X158988477Y-111304534D01*
X159020500Y-111102352D01*
X159020500Y-110897648D01*
X158988477Y-110695466D01*
X158925220Y-110500781D01*
X158925218Y-110500778D01*
X158925218Y-110500776D01*
X158891503Y-110434607D01*
X158832287Y-110318390D01*
X158811661Y-110290000D01*
X158711971Y-110152786D01*
X158567213Y-110008028D01*
X158401614Y-109887715D01*
X158395006Y-109884348D01*
X158308917Y-109840483D01*
X158258123Y-109792511D01*
X158241328Y-109724690D01*
X158263865Y-109658555D01*
X158308917Y-109619516D01*
X158401610Y-109572287D01*
X158471125Y-109521782D01*
X158567213Y-109451971D01*
X158567215Y-109451968D01*
X158567219Y-109451966D01*
X158711966Y-109307219D01*
X158711968Y-109307215D01*
X158711971Y-109307213D01*
X158764732Y-109234590D01*
X158832287Y-109141610D01*
X158925220Y-108959219D01*
X158988477Y-108764534D01*
X159020500Y-108562352D01*
X159020500Y-108357648D01*
X158988477Y-108155466D01*
X158925220Y-107960781D01*
X158925218Y-107960778D01*
X158925218Y-107960776D01*
X158891503Y-107894607D01*
X158832287Y-107778390D01*
X158824556Y-107767749D01*
X158711971Y-107612786D01*
X158567213Y-107468028D01*
X158401614Y-107347715D01*
X158395006Y-107344348D01*
X158308917Y-107300483D01*
X158258123Y-107252511D01*
X158241328Y-107184690D01*
X158263865Y-107118555D01*
X158308917Y-107079516D01*
X158401610Y-107032287D01*
X158468712Y-106983535D01*
X158567213Y-106911971D01*
X158567215Y-106911968D01*
X158567219Y-106911966D01*
X158711966Y-106767219D01*
X158711968Y-106767215D01*
X158711971Y-106767213D01*
X158764732Y-106694590D01*
X158832287Y-106601610D01*
X158925220Y-106419219D01*
X158988477Y-106224534D01*
X159020500Y-106022352D01*
X159020500Y-105817648D01*
X158988477Y-105615466D01*
X158925220Y-105420781D01*
X158925218Y-105420778D01*
X158925218Y-105420776D01*
X158891503Y-105354607D01*
X158832287Y-105238390D01*
X158824556Y-105227749D01*
X158711971Y-105072786D01*
X158567213Y-104928028D01*
X158401614Y-104807715D01*
X158395006Y-104804348D01*
X158308917Y-104760483D01*
X158258123Y-104712511D01*
X158241328Y-104644690D01*
X158263865Y-104578555D01*
X158308917Y-104539516D01*
X158401610Y-104492287D01*
X158422770Y-104476913D01*
X158567213Y-104371971D01*
X158567215Y-104371968D01*
X158567219Y-104371966D01*
X158711966Y-104227219D01*
X158711968Y-104227215D01*
X158711971Y-104227213D01*
X158764732Y-104154590D01*
X158832287Y-104061610D01*
X158925220Y-103879219D01*
X158988477Y-103684534D01*
X159020500Y-103482352D01*
X159020500Y-103277648D01*
X158988477Y-103075466D01*
X158974067Y-103031118D01*
X158925218Y-102880776D01*
X158836644Y-102706942D01*
X158836643Y-102706940D01*
X158832284Y-102698385D01*
X158801136Y-102655513D01*
X161759500Y-102655513D01*
X161759500Y-102844486D01*
X161789059Y-103031118D01*
X161847454Y-103210836D01*
X161881497Y-103277648D01*
X161933240Y-103379199D01*
X162044310Y-103532073D01*
X162177927Y-103665690D01*
X162330801Y-103776760D01*
X162410347Y-103817290D01*
X162499163Y-103862545D01*
X162499165Y-103862545D01*
X162499168Y-103862547D01*
X162595497Y-103893846D01*
X162678881Y-103920940D01*
X162865514Y-103950500D01*
X162865519Y-103950500D01*
X163054486Y-103950500D01*
X163241118Y-103920940D01*
X163420832Y-103862547D01*
X163589199Y-103776760D01*
X163742073Y-103665690D01*
X163875690Y-103532073D01*
X163986760Y-103379199D01*
X164072547Y-103210832D01*
X164130940Y-103031118D01*
X164154752Y-102880776D01*
X164160500Y-102844486D01*
X164160500Y-102655513D01*
X166839500Y-102655513D01*
X166839500Y-102844486D01*
X166869059Y-103031118D01*
X166927454Y-103210836D01*
X166961497Y-103277648D01*
X167013240Y-103379199D01*
X167124310Y-103532073D01*
X167257927Y-103665690D01*
X167410801Y-103776760D01*
X167490347Y-103817290D01*
X167579163Y-103862545D01*
X167579165Y-103862545D01*
X167579168Y-103862547D01*
X167675497Y-103893846D01*
X167758881Y-103920940D01*
X167945514Y-103950500D01*
X167945519Y-103950500D01*
X168134486Y-103950500D01*
X168321118Y-103920940D01*
X168500832Y-103862547D01*
X168669199Y-103776760D01*
X168822073Y-103665690D01*
X168955690Y-103532073D01*
X169066760Y-103379199D01*
X169152547Y-103210832D01*
X169210940Y-103031118D01*
X169234752Y-102880776D01*
X169240500Y-102844486D01*
X169240500Y-102655513D01*
X169210940Y-102468881D01*
X169152545Y-102289163D01*
X169097660Y-102181446D01*
X169066760Y-102120801D01*
X168955690Y-101967927D01*
X168822073Y-101834310D01*
X168669199Y-101723240D01*
X168598504Y-101687219D01*
X168500836Y-101637454D01*
X168321118Y-101579059D01*
X168134486Y-101549500D01*
X168134481Y-101549500D01*
X167945519Y-101549500D01*
X167945514Y-101549500D01*
X167758881Y-101579059D01*
X167579163Y-101637454D01*
X167410800Y-101723240D01*
X167323579Y-101786610D01*
X167257927Y-101834310D01*
X167257925Y-101834312D01*
X167257924Y-101834312D01*
X167124312Y-101967924D01*
X167124312Y-101967925D01*
X167124310Y-101967927D01*
X167101360Y-101999515D01*
X167013240Y-102120800D01*
X166927454Y-102289163D01*
X166869059Y-102468881D01*
X166839500Y-102655513D01*
X164160500Y-102655513D01*
X164130940Y-102468881D01*
X164072545Y-102289163D01*
X164017660Y-102181446D01*
X163986760Y-102120801D01*
X163875690Y-101967927D01*
X163742073Y-101834310D01*
X163589199Y-101723240D01*
X163518504Y-101687219D01*
X163420836Y-101637454D01*
X163241118Y-101579059D01*
X163054486Y-101549500D01*
X163054481Y-101549500D01*
X162865519Y-101549500D01*
X162865514Y-101549500D01*
X162678881Y-101579059D01*
X162499163Y-101637454D01*
X162330800Y-101723240D01*
X162243579Y-101786610D01*
X162177927Y-101834310D01*
X162177925Y-101834312D01*
X162177924Y-101834312D01*
X162044312Y-101967924D01*
X162044312Y-101967925D01*
X162044310Y-101967927D01*
X162021360Y-101999515D01*
X161933240Y-102120800D01*
X161847454Y-102289163D01*
X161789059Y-102468881D01*
X161759500Y-102655513D01*
X158801136Y-102655513D01*
X158711971Y-102532786D01*
X158567213Y-102388028D01*
X158401614Y-102267715D01*
X158395006Y-102264348D01*
X158308917Y-102220483D01*
X158258123Y-102172511D01*
X158241328Y-102104690D01*
X158263865Y-102038555D01*
X158308917Y-101999516D01*
X158401610Y-101952287D01*
X158422770Y-101936913D01*
X158567213Y-101831971D01*
X158567215Y-101831968D01*
X158567219Y-101831966D01*
X158711966Y-101687219D01*
X158711968Y-101687215D01*
X158711971Y-101687213D01*
X158790548Y-101579059D01*
X158832287Y-101521610D01*
X158925220Y-101339219D01*
X158988477Y-101144534D01*
X159020500Y-100942352D01*
X159020500Y-100737648D01*
X158988477Y-100535466D01*
X158925220Y-100340781D01*
X158925218Y-100340778D01*
X158925218Y-100340776D01*
X158891503Y-100274607D01*
X158832287Y-100158390D01*
X158824556Y-100147749D01*
X158711971Y-99992786D01*
X158567213Y-99848028D01*
X158401614Y-99727715D01*
X158395006Y-99724348D01*
X158308917Y-99680483D01*
X158258123Y-99632511D01*
X158241328Y-99564690D01*
X158263865Y-99498555D01*
X158308917Y-99459516D01*
X158401610Y-99412287D01*
X158429415Y-99392086D01*
X158567213Y-99291971D01*
X158567215Y-99291968D01*
X158567219Y-99291966D01*
X158711966Y-99147219D01*
X158711968Y-99147215D01*
X158711971Y-99147213D01*
X158830532Y-98984025D01*
X158832287Y-98981610D01*
X158925220Y-98799219D01*
X158988477Y-98604534D01*
X159020500Y-98402352D01*
X159020500Y-98197648D01*
X158988477Y-97995466D01*
X158925220Y-97800781D01*
X158877407Y-97706942D01*
X158877406Y-97706938D01*
X158851203Y-97655513D01*
X161759500Y-97655513D01*
X161759500Y-97844486D01*
X161789059Y-98031118D01*
X161847454Y-98210836D01*
X161897596Y-98309244D01*
X161933240Y-98379199D01*
X162044310Y-98532073D01*
X162177927Y-98665690D01*
X162330801Y-98776760D01*
X162410347Y-98817290D01*
X162499163Y-98862545D01*
X162499165Y-98862545D01*
X162499168Y-98862547D01*
X162595497Y-98893846D01*
X162678881Y-98920940D01*
X162865514Y-98950500D01*
X162865519Y-98950500D01*
X163054486Y-98950500D01*
X163241118Y-98920940D01*
X163420832Y-98862547D01*
X163589199Y-98776760D01*
X163742073Y-98665690D01*
X163875690Y-98532073D01*
X163986760Y-98379199D01*
X164072547Y-98210832D01*
X164130940Y-98031118D01*
X164153305Y-97889910D01*
X164160500Y-97844486D01*
X164160500Y-97655513D01*
X166839500Y-97655513D01*
X166839500Y-97844486D01*
X166869059Y-98031118D01*
X166927454Y-98210836D01*
X166977596Y-98309244D01*
X167013240Y-98379199D01*
X167124310Y-98532073D01*
X167257927Y-98665690D01*
X167410801Y-98776760D01*
X167490347Y-98817290D01*
X167579163Y-98862545D01*
X167579165Y-98862545D01*
X167579168Y-98862547D01*
X167675497Y-98893846D01*
X167758881Y-98920940D01*
X167945514Y-98950500D01*
X167945519Y-98950500D01*
X168134486Y-98950500D01*
X168321118Y-98920940D01*
X168500832Y-98862547D01*
X168669199Y-98776760D01*
X168822073Y-98665690D01*
X168955690Y-98532073D01*
X169066760Y-98379199D01*
X169152547Y-98210832D01*
X169210940Y-98031118D01*
X169233305Y-97889910D01*
X169240500Y-97844486D01*
X169240500Y-97655513D01*
X169210940Y-97468881D01*
X169158675Y-97308028D01*
X169152547Y-97289168D01*
X169152545Y-97289165D01*
X169152545Y-97289163D01*
X169066759Y-97120800D01*
X169060763Y-97112547D01*
X168955690Y-96967927D01*
X168822073Y-96834310D01*
X168669199Y-96723240D01*
X168500836Y-96637454D01*
X168321118Y-96579059D01*
X168134486Y-96549500D01*
X168134481Y-96549500D01*
X167945519Y-96549500D01*
X167945514Y-96549500D01*
X167758881Y-96579059D01*
X167579163Y-96637454D01*
X167410800Y-96723240D01*
X167371263Y-96751966D01*
X167257927Y-96834310D01*
X167257925Y-96834312D01*
X167257924Y-96834312D01*
X167124312Y-96967924D01*
X167124312Y-96967925D01*
X167124310Y-96967927D01*
X167106232Y-96992809D01*
X167013240Y-97120800D01*
X166927454Y-97289163D01*
X166869059Y-97468881D01*
X166839500Y-97655513D01*
X164160500Y-97655513D01*
X164130940Y-97468881D01*
X164078675Y-97308028D01*
X164072547Y-97289168D01*
X164072545Y-97289165D01*
X164072545Y-97289163D01*
X163986759Y-97120800D01*
X163980763Y-97112547D01*
X163875690Y-96967927D01*
X163742073Y-96834310D01*
X163589199Y-96723240D01*
X163420836Y-96637454D01*
X163241118Y-96579059D01*
X163054486Y-96549500D01*
X163054481Y-96549500D01*
X162865519Y-96549500D01*
X162865514Y-96549500D01*
X162678881Y-96579059D01*
X162499163Y-96637454D01*
X162330800Y-96723240D01*
X162291263Y-96751966D01*
X162177927Y-96834310D01*
X162177925Y-96834312D01*
X162177924Y-96834312D01*
X162044312Y-96967924D01*
X162044312Y-96967925D01*
X162044310Y-96967927D01*
X162026232Y-96992809D01*
X161933240Y-97120800D01*
X161847454Y-97289163D01*
X161789059Y-97468881D01*
X161759500Y-97655513D01*
X158851203Y-97655513D01*
X158832288Y-97618391D01*
X158832287Y-97618389D01*
X158711971Y-97452786D01*
X158567213Y-97308028D01*
X158401614Y-97187715D01*
X158368691Y-97170940D01*
X158308917Y-97140483D01*
X158258123Y-97092511D01*
X158241328Y-97024690D01*
X158263865Y-96958555D01*
X158308917Y-96919516D01*
X158401610Y-96872287D01*
X158453881Y-96834310D01*
X158567213Y-96751971D01*
X158567215Y-96751968D01*
X158567219Y-96751966D01*
X158711966Y-96607219D01*
X158711968Y-96607215D01*
X158711971Y-96607213D01*
X158764732Y-96534590D01*
X158832287Y-96441610D01*
X158925220Y-96259219D01*
X158988477Y-96064534D01*
X159020500Y-95862352D01*
X159020500Y-95657648D01*
X159001734Y-95539163D01*
X158988477Y-95455465D01*
X158925218Y-95260776D01*
X158835304Y-95084312D01*
X158832287Y-95078390D01*
X158804461Y-95040090D01*
X158711971Y-94912786D01*
X158567213Y-94768028D01*
X158401614Y-94647715D01*
X158395006Y-94644348D01*
X158308917Y-94600483D01*
X158258123Y-94552511D01*
X158241328Y-94484690D01*
X158263865Y-94418555D01*
X158308917Y-94379516D01*
X158401610Y-94332287D01*
X158422770Y-94316913D01*
X158567213Y-94211971D01*
X158567215Y-94211968D01*
X158567219Y-94211966D01*
X158711966Y-94067219D01*
X158711968Y-94067215D01*
X158711971Y-94067213D01*
X158766742Y-93991826D01*
X158832287Y-93901610D01*
X158925220Y-93719219D01*
X158988477Y-93524534D01*
X159020500Y-93322352D01*
X159020500Y-93117648D01*
X158988477Y-92915466D01*
X158925220Y-92720781D01*
X158925218Y-92720778D01*
X158925218Y-92720776D01*
X158891503Y-92654607D01*
X158832287Y-92538390D01*
X158773551Y-92457546D01*
X158711971Y-92372786D01*
X158567213Y-92228028D01*
X158401614Y-92107715D01*
X158395006Y-92104348D01*
X158308917Y-92060483D01*
X158258123Y-92012511D01*
X158241328Y-91944690D01*
X158263865Y-91878555D01*
X158308917Y-91839516D01*
X158401610Y-91792287D01*
X158422983Y-91776759D01*
X158567213Y-91671971D01*
X158567215Y-91671968D01*
X158567219Y-91671966D01*
X158711966Y-91527219D01*
X158711968Y-91527215D01*
X158711971Y-91527213D01*
X158790349Y-91419333D01*
X158832287Y-91361610D01*
X158925220Y-91179219D01*
X158988477Y-90984534D01*
X159020500Y-90782352D01*
X159020500Y-90577648D01*
X158988477Y-90375466D01*
X158980896Y-90352135D01*
X162149500Y-90352135D01*
X162149500Y-92147870D01*
X162149501Y-92147876D01*
X162155908Y-92207483D01*
X162206202Y-92342328D01*
X162206206Y-92342335D01*
X162292452Y-92457544D01*
X162292455Y-92457547D01*
X162407664Y-92543793D01*
X162407671Y-92543797D01*
X162542517Y-92594091D01*
X162542516Y-92594091D01*
X162549444Y-92594835D01*
X162602127Y-92600500D01*
X164397872Y-92600499D01*
X164457483Y-92594091D01*
X164592331Y-92543796D01*
X164707546Y-92457546D01*
X164793796Y-92342331D01*
X164844091Y-92207483D01*
X164850500Y-92147873D01*
X164850499Y-90352128D01*
X164844091Y-90292517D01*
X164802414Y-90180776D01*
X164793797Y-90157671D01*
X164793793Y-90157664D01*
X164707547Y-90042455D01*
X164707544Y-90042452D01*
X164592335Y-89956206D01*
X164592328Y-89956202D01*
X164457482Y-89905908D01*
X164457483Y-89905908D01*
X164397883Y-89899501D01*
X164397881Y-89899500D01*
X164397873Y-89899500D01*
X164397864Y-89899500D01*
X162602129Y-89899500D01*
X162602123Y-89899501D01*
X162542516Y-89905908D01*
X162407671Y-89956202D01*
X162407664Y-89956206D01*
X162292455Y-90042452D01*
X162292452Y-90042455D01*
X162206206Y-90157664D01*
X162206202Y-90157671D01*
X162155908Y-90292517D01*
X162149501Y-90352116D01*
X162149501Y-90352123D01*
X162149500Y-90352135D01*
X158980896Y-90352135D01*
X158925218Y-90180776D01*
X158877760Y-90087636D01*
X158832287Y-89998390D01*
X158810153Y-89967925D01*
X158711971Y-89832786D01*
X158567213Y-89688028D01*
X158401614Y-89567715D01*
X158365865Y-89549500D01*
X158308917Y-89520483D01*
X158258123Y-89472511D01*
X158241328Y-89404690D01*
X158263865Y-89338555D01*
X158308917Y-89299516D01*
X158401610Y-89252287D01*
X158422770Y-89236913D01*
X158567213Y-89131971D01*
X158567215Y-89131968D01*
X158567219Y-89131966D01*
X158711966Y-88987219D01*
X158711968Y-88987215D01*
X158711971Y-88987213D01*
X158764732Y-88914590D01*
X158832287Y-88821610D01*
X158925220Y-88639219D01*
X158988477Y-88444534D01*
X159020500Y-88242352D01*
X159020500Y-88037648D01*
X158988477Y-87835466D01*
X158925220Y-87640781D01*
X158925218Y-87640778D01*
X158925218Y-87640776D01*
X158880196Y-87552417D01*
X158832287Y-87458390D01*
X158822997Y-87445603D01*
X158711971Y-87292786D01*
X158567213Y-87148028D01*
X158401614Y-87027715D01*
X158395006Y-87024348D01*
X158308917Y-86980483D01*
X158258123Y-86932511D01*
X158241328Y-86864690D01*
X158263865Y-86798555D01*
X158308917Y-86759516D01*
X158401610Y-86712287D01*
X158422770Y-86696913D01*
X158567213Y-86591971D01*
X158567215Y-86591968D01*
X158567219Y-86591966D01*
X158711966Y-86447219D01*
X158711968Y-86447215D01*
X158711971Y-86447213D01*
X158764732Y-86374590D01*
X158832287Y-86281610D01*
X158925220Y-86099219D01*
X158988477Y-85904534D01*
X159020500Y-85702352D01*
X159020500Y-85497648D01*
X158988477Y-85295466D01*
X158925220Y-85100781D01*
X158925218Y-85100778D01*
X158925218Y-85100776D01*
X158877531Y-85007187D01*
X158832287Y-84918390D01*
X158813176Y-84892086D01*
X158711971Y-84752786D01*
X158567213Y-84608028D01*
X158401614Y-84487715D01*
X158394366Y-84484022D01*
X158308917Y-84440483D01*
X158258123Y-84392511D01*
X158241328Y-84324690D01*
X158263865Y-84258555D01*
X158308917Y-84219516D01*
X158401610Y-84172287D01*
X158508702Y-84094481D01*
X158567213Y-84051971D01*
X158567215Y-84051968D01*
X158567219Y-84051966D01*
X158711966Y-83907219D01*
X158711968Y-83907215D01*
X158711971Y-83907213D01*
X158783148Y-83809244D01*
X158832287Y-83741610D01*
X158925220Y-83559219D01*
X158988477Y-83364534D01*
X159020500Y-83162352D01*
X159020500Y-82957648D01*
X159002235Y-82842328D01*
X158988477Y-82755465D01*
X158925218Y-82560776D01*
X158890586Y-82492809D01*
X158832287Y-82378390D01*
X158811661Y-82350000D01*
X158711971Y-82212786D01*
X158567213Y-82068028D01*
X158401614Y-81947715D01*
X158395006Y-81944348D01*
X158308917Y-81900483D01*
X158258123Y-81852511D01*
X158241328Y-81784690D01*
X158263865Y-81718555D01*
X158308917Y-81679516D01*
X158401610Y-81632287D01*
X158422770Y-81616913D01*
X158567213Y-81511971D01*
X158567215Y-81511968D01*
X158567219Y-81511966D01*
X158711966Y-81367219D01*
X158711968Y-81367215D01*
X158711971Y-81367213D01*
X158764732Y-81294590D01*
X158832287Y-81201610D01*
X158925220Y-81019219D01*
X158979509Y-80852135D01*
X162124500Y-80852135D01*
X162124500Y-82647870D01*
X162124501Y-82647876D01*
X162130908Y-82707483D01*
X162181202Y-82842328D01*
X162181206Y-82842335D01*
X162267452Y-82957544D01*
X162267455Y-82957547D01*
X162382664Y-83043793D01*
X162382671Y-83043797D01*
X162517517Y-83094091D01*
X162517516Y-83094091D01*
X162524444Y-83094835D01*
X162577127Y-83100500D01*
X164372872Y-83100499D01*
X164432483Y-83094091D01*
X164567331Y-83043796D01*
X164682546Y-82957546D01*
X164768796Y-82842331D01*
X164819091Y-82707483D01*
X164825500Y-82647873D01*
X164825499Y-80852128D01*
X164819091Y-80792517D01*
X164768796Y-80657669D01*
X164768795Y-80657668D01*
X164768793Y-80657664D01*
X164682547Y-80542455D01*
X164682544Y-80542452D01*
X164567335Y-80456206D01*
X164567328Y-80456202D01*
X164435401Y-80406997D01*
X164379467Y-80365126D01*
X164355050Y-80299662D01*
X164369902Y-80231389D01*
X164391053Y-80203133D01*
X164504728Y-80089458D01*
X164629620Y-79917557D01*
X164726095Y-79728217D01*
X164791757Y-79526129D01*
X164791757Y-79526126D01*
X164802231Y-79460000D01*
X163908012Y-79460000D01*
X163940925Y-79402993D01*
X163975000Y-79275826D01*
X163975000Y-79144174D01*
X163940925Y-79017007D01*
X163908012Y-78960000D01*
X164802231Y-78960000D01*
X164791757Y-78893873D01*
X164791757Y-78893870D01*
X164726095Y-78691782D01*
X164629620Y-78502442D01*
X164570985Y-78421736D01*
X164520431Y-78352155D01*
X171650000Y-78352155D01*
X171650000Y-79000000D01*
X172566988Y-79000000D01*
X172534075Y-79057007D01*
X172500000Y-79184174D01*
X172500000Y-79315826D01*
X172534075Y-79442993D01*
X172566988Y-79500000D01*
X171650000Y-79500000D01*
X171650000Y-80147844D01*
X171656401Y-80207372D01*
X171656403Y-80207379D01*
X171706645Y-80342086D01*
X171706649Y-80342093D01*
X171792809Y-80457187D01*
X171792812Y-80457190D01*
X171907906Y-80543350D01*
X171907913Y-80543354D01*
X172042620Y-80593596D01*
X172042627Y-80593598D01*
X172102155Y-80599999D01*
X172102172Y-80600000D01*
X172750000Y-80600000D01*
X172750000Y-79683012D01*
X172807007Y-79715925D01*
X172934174Y-79750000D01*
X173065826Y-79750000D01*
X173192993Y-79715925D01*
X173250000Y-79683012D01*
X173250000Y-80600000D01*
X173897828Y-80600000D01*
X173897844Y-80599999D01*
X173957372Y-80593598D01*
X173957379Y-80593596D01*
X174092086Y-80543354D01*
X174092093Y-80543350D01*
X174207187Y-80457190D01*
X174207190Y-80457187D01*
X174293350Y-80342093D01*
X174293354Y-80342086D01*
X174343596Y-80207379D01*
X174343598Y-80207372D01*
X174349999Y-80147844D01*
X174350000Y-80147827D01*
X174350000Y-79500000D01*
X173433012Y-79500000D01*
X173465925Y-79442993D01*
X173500000Y-79315826D01*
X173500000Y-79184174D01*
X173465925Y-79057007D01*
X173433012Y-79000000D01*
X174350000Y-79000000D01*
X174350000Y-78352172D01*
X174349999Y-78352155D01*
X174343598Y-78292627D01*
X174343596Y-78292620D01*
X174293354Y-78157913D01*
X174293350Y-78157906D01*
X174207190Y-78042812D01*
X174207187Y-78042809D01*
X174092093Y-77956649D01*
X174092086Y-77956645D01*
X173957379Y-77906403D01*
X173957372Y-77906401D01*
X173897844Y-77900000D01*
X173250000Y-77900000D01*
X173250000Y-78816988D01*
X173192993Y-78784075D01*
X173065826Y-78750000D01*
X172934174Y-78750000D01*
X172807007Y-78784075D01*
X172750000Y-78816988D01*
X172750000Y-77900000D01*
X172102155Y-77900000D01*
X172042627Y-77906401D01*
X172042620Y-77906403D01*
X171907913Y-77956645D01*
X171907906Y-77956649D01*
X171792812Y-78042809D01*
X171792809Y-78042812D01*
X171706649Y-78157906D01*
X171706645Y-78157913D01*
X171656403Y-78292620D01*
X171656401Y-78292627D01*
X171650000Y-78352155D01*
X164520431Y-78352155D01*
X164504727Y-78330540D01*
X164504723Y-78330535D01*
X164354464Y-78180276D01*
X164354459Y-78180272D01*
X164182557Y-78055379D01*
X163993215Y-77958903D01*
X163791124Y-77893241D01*
X163725000Y-77882768D01*
X163725000Y-78776988D01*
X163667993Y-78744075D01*
X163540826Y-78710000D01*
X163409174Y-78710000D01*
X163282007Y-78744075D01*
X163225000Y-78776988D01*
X163225000Y-77882768D01*
X163224999Y-77882768D01*
X163158875Y-77893241D01*
X162956784Y-77958903D01*
X162767442Y-78055379D01*
X162595540Y-78180272D01*
X162595535Y-78180276D01*
X162445276Y-78330535D01*
X162445272Y-78330540D01*
X162320379Y-78502442D01*
X162223904Y-78691782D01*
X162158242Y-78893870D01*
X162158242Y-78893873D01*
X162147769Y-78960000D01*
X163041988Y-78960000D01*
X163009075Y-79017007D01*
X162975000Y-79144174D01*
X162975000Y-79275826D01*
X163009075Y-79402993D01*
X163041988Y-79460000D01*
X162147769Y-79460000D01*
X162158242Y-79526126D01*
X162158242Y-79526129D01*
X162223904Y-79728217D01*
X162320379Y-79917557D01*
X162445272Y-80089459D01*
X162445276Y-80089464D01*
X162558946Y-80203134D01*
X162592431Y-80264457D01*
X162587447Y-80334149D01*
X162545575Y-80390082D01*
X162514598Y-80406997D01*
X162382671Y-80456202D01*
X162382664Y-80456206D01*
X162267455Y-80542452D01*
X162267452Y-80542455D01*
X162181206Y-80657664D01*
X162181202Y-80657671D01*
X162130908Y-80792517D01*
X162124501Y-80852116D01*
X162124501Y-80852123D01*
X162124500Y-80852135D01*
X158979509Y-80852135D01*
X158988477Y-80824534D01*
X159020500Y-80622352D01*
X159020500Y-80417648D01*
X158988477Y-80215466D01*
X158985849Y-80207379D01*
X158947535Y-80089459D01*
X158925220Y-80020781D01*
X158925218Y-80020778D01*
X158925218Y-80020776D01*
X158891503Y-79954607D01*
X158832287Y-79838390D01*
X158824556Y-79827749D01*
X158711971Y-79672786D01*
X158567213Y-79528028D01*
X158401611Y-79407713D01*
X158308369Y-79360203D01*
X158257574Y-79312229D01*
X158240779Y-79244407D01*
X158263317Y-79178273D01*
X158308371Y-79139234D01*
X158401347Y-79091861D01*
X158566894Y-78971582D01*
X158566895Y-78971582D01*
X158629095Y-78909383D01*
X158711582Y-78826895D01*
X158711582Y-78826894D01*
X158831859Y-78661349D01*
X158924755Y-78479029D01*
X158987990Y-78284413D01*
X158996609Y-78230000D01*
X158153012Y-78230000D01*
X158185925Y-78172993D01*
X158220000Y-78045826D01*
X158220000Y-77914174D01*
X158185925Y-77787007D01*
X158153012Y-77730000D01*
X158996609Y-77730000D01*
X158987990Y-77675586D01*
X158924755Y-77480970D01*
X158831859Y-77298650D01*
X158711582Y-77133105D01*
X158711582Y-77133104D01*
X158566895Y-76988417D01*
X158401349Y-76868140D01*
X158308370Y-76820765D01*
X158257574Y-76772790D01*
X158240779Y-76704969D01*
X158263316Y-76638835D01*
X158308370Y-76599795D01*
X158338761Y-76584310D01*
X158401610Y-76552287D01*
X158422770Y-76536913D01*
X158567213Y-76431971D01*
X158567215Y-76431968D01*
X158567219Y-76431966D01*
X158711966Y-76287219D01*
X158711968Y-76287215D01*
X158711971Y-76287213D01*
X158797614Y-76169333D01*
X158832287Y-76121610D01*
X158925220Y-75939219D01*
X158988477Y-75744534D01*
X159020500Y-75542352D01*
X159020500Y-75337648D01*
X158988477Y-75135466D01*
X158925220Y-74940781D01*
X158925218Y-74940778D01*
X158925218Y-74940776D01*
X158854586Y-74802155D01*
X158832287Y-74758390D01*
X158781123Y-74687968D01*
X158711971Y-74592786D01*
X158567213Y-74448028D01*
X158401613Y-74327715D01*
X158401612Y-74327714D01*
X158401610Y-74327713D01*
X158344653Y-74298691D01*
X158219223Y-74234781D01*
X158024534Y-74171522D01*
X157849995Y-74143878D01*
X157822352Y-74139500D01*
X157617648Y-74139500D01*
X157593329Y-74143351D01*
X157415465Y-74171522D01*
X157220776Y-74234781D01*
X157038386Y-74327715D01*
X156872786Y-74448028D01*
X156728028Y-74592786D01*
X156607715Y-74758386D01*
X156514781Y-74940776D01*
X156451522Y-75135465D01*
X156419500Y-75337648D01*
X143780499Y-75337648D01*
X143780499Y-74592128D01*
X143774091Y-74532517D01*
X143747354Y-74460832D01*
X143723797Y-74397671D01*
X143723793Y-74397664D01*
X143637547Y-74282455D01*
X143637544Y-74282452D01*
X143522335Y-74196206D01*
X143522328Y-74196202D01*
X143387482Y-74145908D01*
X143387483Y-74145908D01*
X143327883Y-74139501D01*
X143327881Y-74139500D01*
X143327873Y-74139500D01*
X143327864Y-74139500D01*
X141632129Y-74139500D01*
X141632123Y-74139501D01*
X141572516Y-74145908D01*
X141437671Y-74196202D01*
X141437664Y-74196206D01*
X141322455Y-74282452D01*
X141322452Y-74282455D01*
X141236206Y-74397664D01*
X141236202Y-74397671D01*
X141185908Y-74532517D01*
X141179501Y-74592116D01*
X141179501Y-74592123D01*
X141179500Y-74592135D01*
X127809010Y-74592135D01*
X127754025Y-74552187D01*
X127754024Y-74552186D01*
X127754022Y-74552185D01*
X127691096Y-74520122D01*
X127557606Y-74452104D01*
X127557603Y-74452103D01*
X127347952Y-74383985D01*
X127239086Y-74366742D01*
X127130222Y-74349500D01*
X126909778Y-74349500D01*
X126837201Y-74360995D01*
X126692047Y-74383985D01*
X126482396Y-74452103D01*
X126482393Y-74452104D01*
X126285974Y-74552187D01*
X126107641Y-74681752D01*
X126107636Y-74681756D01*
X126057075Y-74732317D01*
X125995752Y-74765801D01*
X125926060Y-74760816D01*
X125870127Y-74718945D01*
X125853213Y-74687968D01*
X125823354Y-74607913D01*
X125823350Y-74607906D01*
X125737190Y-74492812D01*
X125737187Y-74492809D01*
X125622093Y-74406649D01*
X125622086Y-74406645D01*
X125487379Y-74356403D01*
X125487372Y-74356401D01*
X125427844Y-74350000D01*
X124730000Y-74350000D01*
X124730000Y-75374722D01*
X124653694Y-75330667D01*
X124539244Y-75300000D01*
X124420756Y-75300000D01*
X124306306Y-75330667D01*
X124230000Y-75374722D01*
X124230000Y-74350000D01*
X123532155Y-74350000D01*
X123472627Y-74356401D01*
X123472620Y-74356403D01*
X123337913Y-74406645D01*
X123337906Y-74406649D01*
X123222812Y-74492809D01*
X123222809Y-74492812D01*
X123136649Y-74607906D01*
X123136645Y-74607913D01*
X123086403Y-74742620D01*
X123086401Y-74742627D01*
X123080000Y-74802155D01*
X121067814Y-74802155D01*
X121063184Y-74457187D01*
X121055779Y-73905513D01*
X161259500Y-73905513D01*
X161259500Y-74094486D01*
X161289059Y-74281118D01*
X161347454Y-74460836D01*
X161415099Y-74593596D01*
X161433240Y-74629199D01*
X161544310Y-74782073D01*
X161677927Y-74915690D01*
X161830801Y-75026760D01*
X161910347Y-75067290D01*
X161999163Y-75112545D01*
X161999165Y-75112545D01*
X161999168Y-75112547D01*
X162069702Y-75135465D01*
X162178881Y-75170940D01*
X162365514Y-75200500D01*
X162365519Y-75200500D01*
X162554486Y-75200500D01*
X162741118Y-75170940D01*
X162920832Y-75112547D01*
X163089199Y-75026760D01*
X163242073Y-74915690D01*
X163375690Y-74782073D01*
X163486760Y-74629199D01*
X163572547Y-74460832D01*
X163630940Y-74281118D01*
X163644389Y-74196204D01*
X163660500Y-74094486D01*
X163660500Y-73905513D01*
X166339500Y-73905513D01*
X166339500Y-74094486D01*
X166369059Y-74281118D01*
X166427454Y-74460836D01*
X166495099Y-74593596D01*
X166513240Y-74629199D01*
X166624310Y-74782073D01*
X166757927Y-74915690D01*
X166910801Y-75026760D01*
X166990347Y-75067290D01*
X167079163Y-75112545D01*
X167079165Y-75112545D01*
X167079168Y-75112547D01*
X167149702Y-75135465D01*
X167258881Y-75170940D01*
X167445514Y-75200500D01*
X167445519Y-75200500D01*
X167634486Y-75200500D01*
X167821118Y-75170940D01*
X168000832Y-75112547D01*
X168169199Y-75026760D01*
X168322073Y-74915690D01*
X168455690Y-74782073D01*
X168566760Y-74629199D01*
X168652547Y-74460832D01*
X168710940Y-74281118D01*
X168724389Y-74196204D01*
X168740500Y-74094486D01*
X168740500Y-73905513D01*
X168710940Y-73718881D01*
X168652544Y-73539160D01*
X168635105Y-73504934D01*
X168635104Y-73504933D01*
X168566759Y-73370800D01*
X168455690Y-73217927D01*
X168322073Y-73084310D01*
X168169199Y-72973240D01*
X168109836Y-72942993D01*
X168000836Y-72887454D01*
X167821118Y-72829059D01*
X167634486Y-72799500D01*
X167634481Y-72799500D01*
X167445519Y-72799500D01*
X167445514Y-72799500D01*
X167258881Y-72829059D01*
X167079163Y-72887454D01*
X166910800Y-72973240D01*
X166873969Y-73000000D01*
X166757927Y-73084310D01*
X166757925Y-73084312D01*
X166757924Y-73084312D01*
X166624312Y-73217924D01*
X166624312Y-73217925D01*
X166624310Y-73217927D01*
X166576610Y-73283579D01*
X166513240Y-73370800D01*
X166427454Y-73539163D01*
X166369059Y-73718881D01*
X166339500Y-73905513D01*
X163660500Y-73905513D01*
X163630940Y-73718881D01*
X163572545Y-73539163D01*
X163527290Y-73450347D01*
X163486760Y-73370801D01*
X163375690Y-73217927D01*
X163242073Y-73084310D01*
X163089199Y-72973240D01*
X163029836Y-72942993D01*
X162920836Y-72887454D01*
X162741118Y-72829059D01*
X162554486Y-72799500D01*
X162554481Y-72799500D01*
X162365519Y-72799500D01*
X162365514Y-72799500D01*
X162178881Y-72829059D01*
X161999163Y-72887454D01*
X161830800Y-72973240D01*
X161793969Y-73000000D01*
X161677927Y-73084310D01*
X161677925Y-73084312D01*
X161677924Y-73084312D01*
X161544312Y-73217924D01*
X161544312Y-73217925D01*
X161544310Y-73217927D01*
X161496610Y-73283579D01*
X161433240Y-73370800D01*
X161347454Y-73539163D01*
X161289059Y-73718881D01*
X161259500Y-73905513D01*
X121055779Y-73905513D01*
X121055736Y-73902311D01*
X121034928Y-72352155D01*
X171650000Y-72352155D01*
X171650000Y-73000000D01*
X172566988Y-73000000D01*
X172534075Y-73057007D01*
X172500000Y-73184174D01*
X172500000Y-73315826D01*
X172534075Y-73442993D01*
X172566988Y-73500000D01*
X171650000Y-73500000D01*
X171650000Y-74147844D01*
X171656401Y-74207372D01*
X171656403Y-74207379D01*
X171706645Y-74342086D01*
X171706649Y-74342093D01*
X171792809Y-74457187D01*
X171792812Y-74457190D01*
X171907906Y-74543350D01*
X171907913Y-74543354D01*
X172042620Y-74593596D01*
X172042627Y-74593598D01*
X172102155Y-74599999D01*
X172102172Y-74600000D01*
X172750000Y-74600000D01*
X172750000Y-73683012D01*
X172807007Y-73715925D01*
X172934174Y-73750000D01*
X173065826Y-73750000D01*
X173192993Y-73715925D01*
X173250000Y-73683012D01*
X173250000Y-74600000D01*
X173897828Y-74600000D01*
X173897844Y-74599999D01*
X173957372Y-74593598D01*
X173957379Y-74593596D01*
X174092086Y-74543354D01*
X174092093Y-74543350D01*
X174207187Y-74457190D01*
X174207190Y-74457187D01*
X174293350Y-74342093D01*
X174293354Y-74342086D01*
X174343596Y-74207379D01*
X174343598Y-74207372D01*
X174349999Y-74147844D01*
X174350000Y-74147827D01*
X174350000Y-73500000D01*
X173433012Y-73500000D01*
X173465925Y-73442993D01*
X173500000Y-73315826D01*
X173500000Y-73184174D01*
X173465925Y-73057007D01*
X173433012Y-73000000D01*
X174350000Y-73000000D01*
X174350000Y-72352172D01*
X174349999Y-72352155D01*
X174343598Y-72292627D01*
X174343596Y-72292620D01*
X174293354Y-72157913D01*
X174293350Y-72157906D01*
X174207190Y-72042812D01*
X174207187Y-72042809D01*
X174092093Y-71956649D01*
X174092086Y-71956645D01*
X173957379Y-71906403D01*
X173957372Y-71906401D01*
X173897844Y-71900000D01*
X173250000Y-71900000D01*
X173250000Y-72816988D01*
X173192993Y-72784075D01*
X173065826Y-72750000D01*
X172934174Y-72750000D01*
X172807007Y-72784075D01*
X172750000Y-72816988D01*
X172750000Y-71900000D01*
X172102155Y-71900000D01*
X172042627Y-71906401D01*
X172042620Y-71906403D01*
X171907913Y-71956645D01*
X171907906Y-71956649D01*
X171792812Y-72042809D01*
X171792809Y-72042812D01*
X171706649Y-72157906D01*
X171706645Y-72157913D01*
X171656403Y-72292620D01*
X171656401Y-72292627D01*
X171650000Y-72352155D01*
X121034928Y-72352155D01*
X121034906Y-72350515D01*
X121022825Y-71450500D01*
X121020240Y-71257882D01*
X161805669Y-71257882D01*
X161805670Y-71257883D01*
X161831059Y-71276329D01*
X161999362Y-71362085D01*
X162178997Y-71420451D01*
X162365553Y-71450000D01*
X162554447Y-71450000D01*
X162741002Y-71420451D01*
X162920637Y-71362085D01*
X163088937Y-71276331D01*
X163114328Y-71257883D01*
X163114328Y-71257882D01*
X162460001Y-70603554D01*
X162460000Y-70603554D01*
X161805669Y-71257882D01*
X121020240Y-71257882D01*
X121005443Y-70155552D01*
X161260000Y-70155552D01*
X161260000Y-70344447D01*
X161289548Y-70531002D01*
X161347914Y-70710637D01*
X161433666Y-70878933D01*
X161452116Y-70904328D01*
X162106446Y-70250000D01*
X162106446Y-70249999D01*
X162060369Y-70203922D01*
X162110000Y-70203922D01*
X162110000Y-70296078D01*
X162133852Y-70385095D01*
X162179930Y-70464905D01*
X162245095Y-70530070D01*
X162324905Y-70576148D01*
X162413922Y-70600000D01*
X162506078Y-70600000D01*
X162595095Y-70576148D01*
X162674905Y-70530070D01*
X162740070Y-70464905D01*
X162786148Y-70385095D01*
X162810000Y-70296078D01*
X162810000Y-70249999D01*
X162813554Y-70249999D01*
X162813554Y-70250000D01*
X163467882Y-70904328D01*
X163467883Y-70904328D01*
X163486331Y-70878937D01*
X163572085Y-70710637D01*
X163630451Y-70531002D01*
X163660000Y-70344447D01*
X163660000Y-70155552D01*
X163659994Y-70155513D01*
X166339500Y-70155513D01*
X166339500Y-70344486D01*
X166369059Y-70531118D01*
X166427454Y-70710836D01*
X166513104Y-70878933D01*
X166513240Y-70879199D01*
X166624310Y-71032073D01*
X166757927Y-71165690D01*
X166910801Y-71276760D01*
X166990347Y-71317290D01*
X167079163Y-71362545D01*
X167079165Y-71362545D01*
X167079168Y-71362547D01*
X167175497Y-71393846D01*
X167258881Y-71420940D01*
X167445514Y-71450500D01*
X167445519Y-71450500D01*
X167634486Y-71450500D01*
X167821118Y-71420940D01*
X167822623Y-71420451D01*
X168000832Y-71362547D01*
X168169199Y-71276760D01*
X168322073Y-71165690D01*
X168455690Y-71032073D01*
X168566760Y-70879199D01*
X168652547Y-70710832D01*
X168710940Y-70531118D01*
X168721427Y-70464905D01*
X168740500Y-70344486D01*
X168740500Y-70155513D01*
X168710940Y-69968881D01*
X168657727Y-69805110D01*
X168652547Y-69789168D01*
X168652545Y-69789165D01*
X168652545Y-69789163D01*
X168588296Y-69663068D01*
X168566760Y-69620801D01*
X168455690Y-69467927D01*
X168322073Y-69334310D01*
X168169199Y-69223240D01*
X168000836Y-69137454D01*
X167821118Y-69079059D01*
X167634486Y-69049500D01*
X167634481Y-69049500D01*
X167445519Y-69049500D01*
X167445514Y-69049500D01*
X167258881Y-69079059D01*
X167079163Y-69137454D01*
X166910800Y-69223240D01*
X166823579Y-69286610D01*
X166757927Y-69334310D01*
X166757925Y-69334312D01*
X166757924Y-69334312D01*
X166624312Y-69467924D01*
X166624312Y-69467925D01*
X166624310Y-69467927D01*
X166613490Y-69482820D01*
X166513240Y-69620800D01*
X166427454Y-69789163D01*
X166369059Y-69968881D01*
X166339500Y-70155513D01*
X163659994Y-70155513D01*
X163630451Y-69968997D01*
X163572085Y-69789362D01*
X163486329Y-69621059D01*
X163467883Y-69595670D01*
X163467882Y-69595669D01*
X162813554Y-70249999D01*
X162810000Y-70249999D01*
X162810000Y-70203922D01*
X162786148Y-70114905D01*
X162740070Y-70035095D01*
X162674905Y-69969930D01*
X162595095Y-69923852D01*
X162506078Y-69900000D01*
X162413922Y-69900000D01*
X162324905Y-69923852D01*
X162245095Y-69969930D01*
X162179930Y-70035095D01*
X162133852Y-70114905D01*
X162110000Y-70203922D01*
X162060369Y-70203922D01*
X161452116Y-69595669D01*
X161452116Y-69595670D01*
X161433669Y-69621060D01*
X161347914Y-69789362D01*
X161289548Y-69968997D01*
X161260000Y-70155552D01*
X121005443Y-70155552D01*
X121001641Y-69872281D01*
X121020424Y-69804986D01*
X121072609Y-69758526D01*
X121122244Y-69746666D01*
X149016779Y-68985906D01*
X149084328Y-69003755D01*
X149131505Y-69055292D01*
X149141394Y-69086556D01*
X149141616Y-69086503D01*
X149142365Y-69089625D01*
X149142630Y-69090461D01*
X149142754Y-69091243D01*
X149157918Y-69137914D01*
X149208444Y-69293414D01*
X149304951Y-69482820D01*
X149429890Y-69654786D01*
X149580213Y-69805109D01*
X149752179Y-69930048D01*
X149752181Y-69930049D01*
X149752184Y-69930051D01*
X149941588Y-70026557D01*
X150143757Y-70092246D01*
X150353713Y-70125500D01*
X150353714Y-70125500D01*
X150566286Y-70125500D01*
X150566287Y-70125500D01*
X150776243Y-70092246D01*
X150978412Y-70026557D01*
X151167816Y-69930051D01*
X151339792Y-69805104D01*
X151453329Y-69691566D01*
X151514648Y-69658084D01*
X151584340Y-69663068D01*
X151640274Y-69704939D01*
X151657189Y-69735917D01*
X151706202Y-69867328D01*
X151706206Y-69867335D01*
X151792452Y-69982544D01*
X151792455Y-69982547D01*
X151907664Y-70068793D01*
X151907671Y-70068797D01*
X152042517Y-70119091D01*
X152042516Y-70119091D01*
X152049444Y-70119835D01*
X152102127Y-70125500D01*
X153897872Y-70125499D01*
X153957483Y-70119091D01*
X154092331Y-70068796D01*
X154207546Y-69982546D01*
X154293796Y-69867331D01*
X154344091Y-69732483D01*
X154350500Y-69672873D01*
X154350499Y-69242116D01*
X161805669Y-69242116D01*
X162460000Y-69896446D01*
X162460001Y-69896446D01*
X163114328Y-69242116D01*
X163088933Y-69223666D01*
X162920637Y-69137914D01*
X162741002Y-69079548D01*
X162554447Y-69050000D01*
X162365553Y-69050000D01*
X162178997Y-69079548D01*
X161999362Y-69137914D01*
X161831060Y-69223669D01*
X161805670Y-69242116D01*
X161805669Y-69242116D01*
X154350499Y-69242116D01*
X154350499Y-68961101D01*
X154370184Y-68894065D01*
X154422988Y-68848310D01*
X154471111Y-68837151D01*
X175874798Y-68253414D01*
X175942348Y-68271264D01*
G37*
%TD.AperFunction*%
%TD*%
M02*
