M48
; DRILL file {KiCad 9.0.0} date 2025-03-11T23:00:02-0300
; FORMAT={-:-/ absolute / metric / decimal}
; #@! TF.CreationDate,2025-03-11T23:00:02-03:00
; #@! TF.GenerationSoftware,Kicad,Pcbnew,9.0.0
; #@! TF.FileFunction,Plated,1,2,PTH
FMAT,2
METRIC
; #@! TA.AperFunction,Plated,PTH,ComponentDrill
T1C0.700
; #@! TA.AperFunction,Plated,PTH,ComponentDrill
T2C0.800
; #@! TA.AperFunction,Plated,PTH,ComponentDrill
T3C1.000
%
G90
G05
T1
X121.275Y-88.5
X121.275Y-93.58
X127.0Y-88.5
X127.0Y-93.58
X160.75Y-92.75
X161.0Y-69.25
X165.83Y-92.75
X166.08Y-69.25
T2
X160.25Y-76.42
X160.25Y-84.04
X166.75Y-76.42
X166.75Y-84.04
T3
X121.25Y-70.96
X121.25Y-73.5
X121.25Y-76.04
X121.25Y-78.58
X121.25Y-81.12
X133.4Y-70.82
X133.4Y-73.36
X133.4Y-75.9
X133.4Y-78.44
X133.4Y-80.98
X133.4Y-83.52
X133.4Y-86.06
X133.4Y-88.6
X133.4Y-91.14
X133.4Y-93.68
X133.4Y-96.22
X133.4Y-98.76
X133.4Y-101.3
X133.4Y-103.84
X133.4Y-106.38
X148.64Y-70.82
X148.64Y-73.36
X148.64Y-75.9
X148.64Y-78.44
X148.64Y-80.98
X148.64Y-83.52
X148.64Y-86.06
X148.64Y-88.6
X148.64Y-91.14
X148.64Y-93.68
X148.64Y-96.22
X148.64Y-98.76
X148.64Y-101.3
X148.64Y-103.84
X148.64Y-106.38
X156.025Y-109.0
X156.025Y-111.54
M30
