M48
; DRILL file {KiCad 9.0.0} date 2025-03-12T10:53:59-0300
; FORMAT={-:-/ absolute / metric / decimal}
; #@! TF.CreationDate,2025-03-12T10:53:59-03:00
; #@! TF.GenerationSoftware,Kicad,Pcbnew,9.0.0
; #@! TF.FileFunction,Plated,1,2,PTH
FMAT,2
METRIC
; #@! TA.AperFunction,Plated,PTH,ComponentDrill
T1C0.700
; #@! TA.AperFunction,Plated,PTH,ComponentDrill
T2C0.800
; #@! TA.AperFunction,Plated,PTH,ComponentDrill
T3C0.900
; #@! TA.AperFunction,Plated,PTH,ComponentDrill
T4C1.000
%
G90
G05
T1
X131.21Y-77.5
X131.21Y-84.0
X131.21Y-90.75
X131.21Y-96.0
X136.29Y-77.5
X136.29Y-84.0
X136.29Y-90.75
X136.29Y-96.0
X162.46Y-70.25
X162.46Y-74.0
X162.96Y-97.75
X162.96Y-102.75
X167.54Y-70.25
X167.54Y-74.0
X168.04Y-97.75
X168.04Y-102.75
X178.355Y-76.71
X178.355Y-81.79
X180.895Y-76.71
X180.895Y-81.79
X186.75Y-83.75
X186.75Y-88.83
T2
X175.815Y-86.565
X175.815Y-94.435
X178.355Y-86.565
X178.355Y-94.435
X180.895Y-86.565
X180.895Y-94.435
X183.435Y-86.565
X183.435Y-94.435
T3
X124.48Y-75.75
X124.48Y-83.75
X124.48Y-91.0
X124.48Y-98.25
X127.02Y-75.75
X127.02Y-83.75
X127.02Y-91.0
X127.02Y-98.25
T4
X135.525Y-107.5
X135.525Y-110.04
X142.48Y-75.44
X142.48Y-77.98
X142.48Y-80.52
X142.48Y-83.06
X142.48Y-85.6
X142.48Y-88.14
X142.48Y-90.68
X142.48Y-93.22
X142.48Y-95.76
X142.48Y-98.3
X142.48Y-100.84
X142.48Y-103.38
X142.48Y-105.92
X142.48Y-108.46
X142.48Y-111.0
X150.46Y-68.775
X153.0Y-68.775
X157.72Y-75.44
X157.72Y-77.98
X157.72Y-80.52
X157.72Y-83.06
X157.72Y-85.6
X157.72Y-88.14
X157.72Y-90.68
X157.72Y-93.22
X157.72Y-95.76
X157.72Y-98.3
X157.72Y-100.84
X157.72Y-103.38
X157.72Y-105.92
X157.72Y-108.46
X157.72Y-111.0
X162.96Y-113.775
X163.475Y-79.21
X163.475Y-81.75
X163.5Y-91.25
X165.5Y-113.775
X173.0Y-73.25
X173.0Y-79.25
X173.5Y-113.725
X176.04Y-113.725
X177.895Y-99.5
X178.355Y-70.775
X180.895Y-70.775
M30
