%TF.GenerationSoftware,KiCad,Pcbnew,9.0.0*%
%TF.CreationDate,2025-03-11T22:59:59-03:00*%
%TF.ProjectId,TransmitterPCB,5472616e-736d-4697-9474-65725043422e,rev?*%
%TF.SameCoordinates,Original*%
%TF.FileFunction,Copper,L2,Bot*%
%TF.FilePolarity,Positive*%
%FSLAX46Y46*%
G04 Gerber Fmt 4.6, Leading zero omitted, Abs format (unit mm)*
G04 Created by KiCad (PCBNEW 9.0.0) date 2025-03-11 22:59:59*
%MOMM*%
%LPD*%
G01*
G04 APERTURE LIST*
%TA.AperFunction,ComponentPad*%
%ADD10C,1.600000*%
%TD*%
%TA.AperFunction,ComponentPad*%
%ADD11O,1.600000X1.600000*%
%TD*%
%TA.AperFunction,ComponentPad*%
%ADD12C,1.400000*%
%TD*%
%TA.AperFunction,ComponentPad*%
%ADD13O,1.400000X1.400000*%
%TD*%
%TA.AperFunction,ComponentPad*%
%ADD14R,1.700000X1.700000*%
%TD*%
%TA.AperFunction,ComponentPad*%
%ADD15O,1.700000X1.700000*%
%TD*%
%TA.AperFunction,ComponentPad*%
%ADD16R,1.600000X1.600000*%
%TD*%
G04 APERTURE END LIST*
D10*
%TO.P,R3,1*%
%TO.N,/Coil2*%
X160250000Y-84040000D03*
D11*
%TO.P,R3,2*%
%TO.N,/Out-*%
X160250000Y-76420000D03*
%TD*%
D10*
%TO.P,R2,1*%
%TO.N,/Out+*%
X166750000Y-76420000D03*
D11*
%TO.P,R2,2*%
%TO.N,/Coil1*%
X166750000Y-84040000D03*
%TD*%
D12*
%TO.P,R1,1*%
%TO.N,/R1-D5*%
X127000000Y-88500000D03*
D13*
%TO.P,R1,2*%
%TO.N,Net-(C1-Pad1)*%
X127000000Y-93580000D03*
%TD*%
D12*
%TO.P,L1,1,-*%
%TO.N,/Coil2*%
X160750000Y-92750000D03*
D13*
%TO.P,L1,2,+*%
%TO.N,/Coil1*%
X165830000Y-92750000D03*
%TD*%
D12*
%TO.P,J3,1,Pin_1*%
%TO.N,/Out-*%
X161000000Y-69250000D03*
D13*
%TO.P,J3,2,Pin_2*%
%TO.N,/Out+*%
X166080000Y-69250000D03*
%TD*%
D14*
%TO.P,J2,1,Pin_1*%
%TO.N,/A+*%
X121250000Y-81120000D03*
D15*
%TO.P,J2,2,Pin_2*%
%TO.N,GND*%
X121250000Y-78580000D03*
%TO.P,J2,3,Pin_3*%
%TO.N,unconnected-(J2-Pin_3-Pad3)*%
X121250000Y-76040000D03*
%TO.P,J2,4,Pin_4*%
%TO.N,+5V*%
X121250000Y-73500000D03*
%TO.P,J2,5,Pin_5*%
%TO.N,GND*%
X121250000Y-70960000D03*
%TD*%
D14*
%TO.P,J1,1,Pin_1*%
%TO.N,Net-(A1-VIN)*%
X156025000Y-109000000D03*
D15*
%TO.P,J1,2,Pin_2*%
%TO.N,GND*%
X156025000Y-111540000D03*
%TD*%
D12*
%TO.P,C1,1*%
%TO.N,Net-(C1-Pad1)*%
X121275000Y-93580000D03*
D13*
%TO.P,C1,2*%
%TO.N,/A+*%
X121275000Y-88500000D03*
%TD*%
D16*
%TO.P,A1,1,D1/TX*%
%TO.N,unconnected-(A1-D1{slash}TX-Pad1)*%
X133400000Y-70820000D03*
D11*
%TO.P,A1,2,D0/RX*%
%TO.N,unconnected-(A1-D0{slash}RX-Pad2)*%
X133400000Y-73360000D03*
%TO.P,A1,3,~{RESET}*%
%TO.N,unconnected-(A1-~{RESET}-Pad3)*%
X133400000Y-75900000D03*
%TO.P,A1,4,GND*%
%TO.N,GND*%
X133400000Y-78440000D03*
%TO.P,A1,5,D2*%
%TO.N,unconnected-(A1-D2-Pad5)*%
X133400000Y-80980000D03*
%TO.P,A1,6,D3*%
%TO.N,unconnected-(A1-D3-Pad6)*%
X133400000Y-83520000D03*
%TO.P,A1,7,D4*%
%TO.N,unconnected-(A1-D4-Pad7)*%
X133400000Y-86060000D03*
%TO.P,A1,8,D5*%
%TO.N,/R1-D5*%
X133400000Y-88600000D03*
%TO.P,A1,9,D6*%
%TO.N,unconnected-(A1-D6-Pad9)*%
X133400000Y-91140000D03*
%TO.P,A1,10,D7*%
%TO.N,unconnected-(A1-D7-Pad10)*%
X133400000Y-93680000D03*
%TO.P,A1,11,D8*%
%TO.N,unconnected-(A1-D8-Pad11)*%
X133400000Y-96220000D03*
%TO.P,A1,12,D9*%
%TO.N,unconnected-(A1-D9-Pad12)*%
X133400000Y-98760000D03*
%TO.P,A1,13,D10*%
%TO.N,unconnected-(A1-D10-Pad13)*%
X133400000Y-101300000D03*
%TO.P,A1,14,D11*%
%TO.N,unconnected-(A1-D11-Pad14)*%
X133400000Y-103840000D03*
%TO.P,A1,15,D12*%
%TO.N,unconnected-(A1-D12-Pad15)*%
X133400000Y-106380000D03*
%TO.P,A1,16,D13*%
%TO.N,unconnected-(A1-D13-Pad16)*%
X148640000Y-106380000D03*
%TO.P,A1,17,3V3*%
%TO.N,unconnected-(A1-3V3-Pad17)*%
X148640000Y-103840000D03*
%TO.P,A1,18,AREF*%
%TO.N,unconnected-(A1-AREF-Pad18)*%
X148640000Y-101300000D03*
%TO.P,A1,19,A0*%
%TO.N,unconnected-(A1-A0-Pad19)*%
X148640000Y-98760000D03*
%TO.P,A1,20,A1*%
%TO.N,unconnected-(A1-A1-Pad20)*%
X148640000Y-96220000D03*
%TO.P,A1,21,A2*%
%TO.N,unconnected-(A1-A2-Pad21)*%
X148640000Y-93680000D03*
%TO.P,A1,22,A3*%
%TO.N,unconnected-(A1-A3-Pad22)*%
X148640000Y-91140000D03*
%TO.P,A1,23,A4*%
%TO.N,unconnected-(A1-A4-Pad23)*%
X148640000Y-88600000D03*
%TO.P,A1,24,A5*%
%TO.N,unconnected-(A1-A5-Pad24)*%
X148640000Y-86060000D03*
%TO.P,A1,25,A6*%
%TO.N,unconnected-(A1-A6-Pad25)*%
X148640000Y-83520000D03*
%TO.P,A1,26,A7*%
%TO.N,unconnected-(A1-A7-Pad26)*%
X148640000Y-80980000D03*
%TO.P,A1,27,+5V*%
%TO.N,+5V*%
X148640000Y-78440000D03*
%TO.P,A1,28,~{RESET}*%
%TO.N,unconnected-(A1-~{RESET}-Pad28)*%
X148640000Y-75900000D03*
%TO.P,A1,29,GND*%
%TO.N,GND*%
X148640000Y-73360000D03*
%TO.P,A1,30,VIN*%
%TO.N,Net-(A1-VIN)*%
X148640000Y-70820000D03*
%TD*%
%TA.AperFunction,Conductor*%
%TO.N,GND*%
G36*
X155131731Y-66749232D02*
G01*
X155198641Y-66769351D01*
X155244052Y-66822451D01*
X155254823Y-66868172D01*
X156750000Y-103500000D01*
X160045733Y-103361468D01*
X160113539Y-103378320D01*
X160161472Y-103429156D01*
X160174937Y-103484568D01*
X160249192Y-115123359D01*
X160229936Y-115190523D01*
X160177425Y-115236613D01*
X160123372Y-115248137D01*
X143368975Y-115001749D01*
X143302232Y-114981080D01*
X143257258Y-114927609D01*
X143246842Y-114881053D01*
X143193100Y-112856757D01*
X143066871Y-108102135D01*
X154674500Y-108102135D01*
X154674500Y-109897870D01*
X154674501Y-109897876D01*
X154680908Y-109957483D01*
X154731202Y-110092328D01*
X154731206Y-110092335D01*
X154817452Y-110207544D01*
X154817455Y-110207547D01*
X154932664Y-110293793D01*
X154932671Y-110293797D01*
X154932674Y-110293798D01*
X155064598Y-110343002D01*
X155120531Y-110384873D01*
X155144949Y-110450337D01*
X155130098Y-110518610D01*
X155108947Y-110546865D01*
X154995271Y-110660541D01*
X154870379Y-110832442D01*
X154773904Y-111021782D01*
X154708242Y-111223870D01*
X154708242Y-111223873D01*
X154697769Y-111290000D01*
X155591988Y-111290000D01*
X155559075Y-111347007D01*
X155525000Y-111474174D01*
X155525000Y-111605826D01*
X155559075Y-111732993D01*
X155591988Y-111790000D01*
X154697769Y-111790000D01*
X154708242Y-111856126D01*
X154708242Y-111856129D01*
X154773904Y-112058217D01*
X154870379Y-112247557D01*
X154995272Y-112419459D01*
X154995276Y-112419464D01*
X155145535Y-112569723D01*
X155145540Y-112569727D01*
X155317442Y-112694620D01*
X155506782Y-112791095D01*
X155708871Y-112856757D01*
X155775000Y-112867231D01*
X155775000Y-111973012D01*
X155832007Y-112005925D01*
X155959174Y-112040000D01*
X156090826Y-112040000D01*
X156217993Y-112005925D01*
X156275000Y-111973012D01*
X156275000Y-112867230D01*
X156341126Y-112856757D01*
X156341129Y-112856757D01*
X156543217Y-112791095D01*
X156732557Y-112694620D01*
X156904459Y-112569727D01*
X156904464Y-112569723D01*
X157054723Y-112419464D01*
X157054727Y-112419459D01*
X157179620Y-112247557D01*
X157276095Y-112058217D01*
X157341757Y-111856129D01*
X157341757Y-111856126D01*
X157352231Y-111790000D01*
X156458012Y-111790000D01*
X156490925Y-111732993D01*
X156525000Y-111605826D01*
X156525000Y-111474174D01*
X156490925Y-111347007D01*
X156458012Y-111290000D01*
X157352231Y-111290000D01*
X157341757Y-111223873D01*
X157341757Y-111223870D01*
X157276095Y-111021782D01*
X157179620Y-110832442D01*
X157054727Y-110660540D01*
X157054723Y-110660535D01*
X156941053Y-110546865D01*
X156907568Y-110485542D01*
X156912552Y-110415850D01*
X156954424Y-110359917D01*
X156985400Y-110343002D01*
X157117331Y-110293796D01*
X157232546Y-110207546D01*
X157318796Y-110092331D01*
X157369091Y-109957483D01*
X157375500Y-109897873D01*
X157375499Y-108102128D01*
X157369091Y-108042517D01*
X157318796Y-107907669D01*
X157318795Y-107907668D01*
X157318793Y-107907664D01*
X157232547Y-107792455D01*
X157232544Y-107792452D01*
X157117335Y-107706206D01*
X157117328Y-107706202D01*
X156982482Y-107655908D01*
X156982483Y-107655908D01*
X156922883Y-107649501D01*
X156922881Y-107649500D01*
X156922873Y-107649500D01*
X156922864Y-107649500D01*
X155127129Y-107649500D01*
X155127123Y-107649501D01*
X155067516Y-107655908D01*
X154932671Y-107706202D01*
X154932664Y-107706206D01*
X154817455Y-107792452D01*
X154817452Y-107792455D01*
X154731206Y-107907664D01*
X154731202Y-107907671D01*
X154680908Y-108042517D01*
X154674503Y-108102097D01*
X154674501Y-108102123D01*
X154674500Y-108102135D01*
X143066871Y-108102135D01*
X143066871Y-108102123D01*
X143066870Y-108102097D01*
X142500000Y-86750000D01*
X134710362Y-86750000D01*
X134643323Y-86730315D01*
X134597568Y-86677511D01*
X134587624Y-86608353D01*
X134599878Y-86569704D01*
X134605217Y-86559225D01*
X134605218Y-86559223D01*
X134605220Y-86559219D01*
X134668477Y-86364534D01*
X134700500Y-86162352D01*
X134700500Y-85957648D01*
X134668477Y-85755466D01*
X134605220Y-85560781D01*
X134605218Y-85560778D01*
X134605218Y-85560776D01*
X134571503Y-85494607D01*
X134512287Y-85378390D01*
X134461493Y-85308477D01*
X134391971Y-85212786D01*
X134247213Y-85068028D01*
X134081614Y-84947715D01*
X134075006Y-84944348D01*
X133988917Y-84900483D01*
X133938123Y-84852511D01*
X133921328Y-84784690D01*
X133943865Y-84718555D01*
X133988917Y-84679516D01*
X134081610Y-84632287D01*
X134102770Y-84616913D01*
X134247213Y-84511971D01*
X134247215Y-84511968D01*
X134247219Y-84511966D01*
X134391966Y-84367219D01*
X134391968Y-84367215D01*
X134391971Y-84367213D01*
X134444732Y-84294590D01*
X134512287Y-84201610D01*
X134605220Y-84019219D01*
X134668477Y-83824534D01*
X134700500Y-83622352D01*
X134700500Y-83417648D01*
X134668477Y-83215466D01*
X134605220Y-83020781D01*
X134605218Y-83020778D01*
X134605218Y-83020776D01*
X134557799Y-82927713D01*
X134512287Y-82838390D01*
X134463706Y-82771523D01*
X134391971Y-82672786D01*
X134247213Y-82528028D01*
X134081614Y-82407715D01*
X134075006Y-82404348D01*
X133988917Y-82360483D01*
X133938123Y-82312511D01*
X133921328Y-82244690D01*
X133943865Y-82178555D01*
X133988917Y-82139516D01*
X134081610Y-82092287D01*
X134102770Y-82076913D01*
X134247213Y-81971971D01*
X134247215Y-81971968D01*
X134247219Y-81971966D01*
X134391966Y-81827219D01*
X134391968Y-81827215D01*
X134391971Y-81827213D01*
X134444732Y-81754590D01*
X134512287Y-81661610D01*
X134605220Y-81479219D01*
X134668477Y-81284534D01*
X134700500Y-81082352D01*
X134700500Y-80877648D01*
X134668477Y-80675466D01*
X134605220Y-80480781D01*
X134605218Y-80480778D01*
X134605218Y-80480776D01*
X134571503Y-80414607D01*
X134512287Y-80298390D01*
X134504556Y-80287749D01*
X134391971Y-80132786D01*
X134247213Y-79988028D01*
X134081611Y-79867713D01*
X133988369Y-79820203D01*
X133937574Y-79772229D01*
X133920779Y-79704407D01*
X133943317Y-79638273D01*
X133988371Y-79599234D01*
X134081347Y-79551861D01*
X134246894Y-79431582D01*
X134246895Y-79431582D01*
X134391582Y-79286895D01*
X134391582Y-79286894D01*
X134511859Y-79121349D01*
X134604755Y-78939029D01*
X134667990Y-78744413D01*
X134676609Y-78690000D01*
X133833012Y-78690000D01*
X133865925Y-78632993D01*
X133900000Y-78505826D01*
X133900000Y-78374174D01*
X133865925Y-78247007D01*
X133833012Y-78190000D01*
X134676609Y-78190000D01*
X134667990Y-78135586D01*
X134604755Y-77940970D01*
X134511859Y-77758650D01*
X134391582Y-77593105D01*
X134391582Y-77593104D01*
X134246895Y-77448417D01*
X134081349Y-77328140D01*
X133988370Y-77280765D01*
X133937574Y-77232790D01*
X133920779Y-77164969D01*
X133943316Y-77098835D01*
X133988370Y-77059795D01*
X133988920Y-77059515D01*
X134081610Y-77012287D01*
X134102770Y-76996913D01*
X134247213Y-76891971D01*
X134247215Y-76891968D01*
X134247219Y-76891966D01*
X134391966Y-76747219D01*
X134391968Y-76747215D01*
X134391971Y-76747213D01*
X134444732Y-76674590D01*
X134512287Y-76581610D01*
X134605220Y-76399219D01*
X134668477Y-76204534D01*
X134700500Y-76002352D01*
X134700500Y-75797648D01*
X134668477Y-75595466D01*
X134605220Y-75400781D01*
X134605218Y-75400778D01*
X134605218Y-75400776D01*
X134557799Y-75307713D01*
X134512287Y-75218390D01*
X134504556Y-75207749D01*
X134391971Y-75052786D01*
X134247213Y-74908028D01*
X134081614Y-74787715D01*
X134046846Y-74770000D01*
X133988917Y-74740483D01*
X133938123Y-74692511D01*
X133921328Y-74624690D01*
X133943865Y-74558555D01*
X133988917Y-74519516D01*
X134081610Y-74472287D01*
X134102770Y-74456913D01*
X134247213Y-74351971D01*
X134247215Y-74351968D01*
X134247219Y-74351966D01*
X134391966Y-74207219D01*
X134391968Y-74207215D01*
X134391971Y-74207213D01*
X134444732Y-74134590D01*
X134512287Y-74041610D01*
X134605220Y-73859219D01*
X134668477Y-73664534D01*
X134700500Y-73462352D01*
X134700500Y-73257648D01*
X134686144Y-73167007D01*
X134668477Y-73055465D01*
X134605218Y-72860776D01*
X134512419Y-72678650D01*
X134512287Y-72678390D01*
X134504556Y-72667749D01*
X134391971Y-72512786D01*
X134247219Y-72368034D01*
X134210930Y-72341669D01*
X134168264Y-72286339D01*
X134162285Y-72216726D01*
X134194890Y-72154931D01*
X134255728Y-72120573D01*
X134270562Y-72118060D01*
X134307483Y-72114091D01*
X134442328Y-72063797D01*
X134442327Y-72063797D01*
X134442331Y-72063796D01*
X134557546Y-71977546D01*
X134643796Y-71862331D01*
X134694091Y-71727483D01*
X134700500Y-71667873D01*
X134700499Y-70717648D01*
X147339500Y-70717648D01*
X147339500Y-70922351D01*
X147371522Y-71124534D01*
X147434781Y-71319223D01*
X147527715Y-71501613D01*
X147648028Y-71667213D01*
X147792786Y-71811971D01*
X147947749Y-71924556D01*
X147958390Y-71932287D01*
X148030424Y-71968990D01*
X148051629Y-71979795D01*
X148102425Y-72027770D01*
X148119220Y-72095591D01*
X148096682Y-72161726D01*
X148051629Y-72200765D01*
X147958650Y-72248140D01*
X147793105Y-72368417D01*
X147793104Y-72368417D01*
X147648417Y-72513104D01*
X147648417Y-72513105D01*
X147528140Y-72678650D01*
X147435244Y-72860970D01*
X147372009Y-73055586D01*
X147363391Y-73110000D01*
X148206988Y-73110000D01*
X148174075Y-73167007D01*
X148140000Y-73294174D01*
X148140000Y-73425826D01*
X148174075Y-73552993D01*
X148206988Y-73610000D01*
X147363391Y-73610000D01*
X147372009Y-73664413D01*
X147435244Y-73859029D01*
X147528140Y-74041349D01*
X147648417Y-74206894D01*
X147648417Y-74206895D01*
X147793104Y-74351582D01*
X147958652Y-74471861D01*
X148051628Y-74519234D01*
X148102425Y-74567208D01*
X148119220Y-74635029D01*
X148096683Y-74701164D01*
X148051630Y-74740203D01*
X147958388Y-74787713D01*
X147792786Y-74908028D01*
X147648028Y-75052786D01*
X147527715Y-75218386D01*
X147434781Y-75400776D01*
X147371522Y-75595465D01*
X147339500Y-75797648D01*
X147339500Y-76002351D01*
X147371522Y-76204534D01*
X147434781Y-76399223D01*
X147527715Y-76581613D01*
X147648028Y-76747213D01*
X147792786Y-76891971D01*
X147947749Y-77004556D01*
X147958390Y-77012287D01*
X148049840Y-77058883D01*
X148051080Y-77059515D01*
X148101876Y-77107490D01*
X148118671Y-77175311D01*
X148096134Y-77241446D01*
X148051080Y-77280485D01*
X147958386Y-77327715D01*
X147792786Y-77448028D01*
X147648028Y-77592786D01*
X147527715Y-77758386D01*
X147434781Y-77940776D01*
X147371522Y-78135465D01*
X147339500Y-78337648D01*
X147339500Y-78542351D01*
X147371522Y-78744534D01*
X147434781Y-78939223D01*
X147527715Y-79121613D01*
X147648028Y-79287213D01*
X147792786Y-79431971D01*
X147947749Y-79544556D01*
X147958390Y-79552287D01*
X148049840Y-79598883D01*
X148051080Y-79599515D01*
X148101876Y-79647490D01*
X148118671Y-79715311D01*
X148096134Y-79781446D01*
X148051080Y-79820485D01*
X147958386Y-79867715D01*
X147792786Y-79988028D01*
X147648028Y-80132786D01*
X147527715Y-80298386D01*
X147434781Y-80480776D01*
X147371522Y-80675465D01*
X147339500Y-80877648D01*
X147339500Y-81082351D01*
X147371522Y-81284534D01*
X147434781Y-81479223D01*
X147527715Y-81661613D01*
X147648028Y-81827213D01*
X147792786Y-81971971D01*
X147938012Y-82077482D01*
X147958390Y-82092287D01*
X148049840Y-82138883D01*
X148051080Y-82139515D01*
X148101876Y-82187490D01*
X148118671Y-82255311D01*
X148096134Y-82321446D01*
X148051080Y-82360485D01*
X147958386Y-82407715D01*
X147792786Y-82528028D01*
X147648028Y-82672786D01*
X147527715Y-82838386D01*
X147434781Y-83020776D01*
X147371522Y-83215465D01*
X147339500Y-83417648D01*
X147339500Y-83622351D01*
X147371522Y-83824534D01*
X147434781Y-84019223D01*
X147527715Y-84201613D01*
X147648028Y-84367213D01*
X147792786Y-84511971D01*
X147947749Y-84624556D01*
X147958390Y-84632287D01*
X148049840Y-84678883D01*
X148051080Y-84679515D01*
X148101876Y-84727490D01*
X148118671Y-84795311D01*
X148096134Y-84861446D01*
X148051080Y-84900485D01*
X147958386Y-84947715D01*
X147792786Y-85068028D01*
X147648028Y-85212786D01*
X147527715Y-85378386D01*
X147434781Y-85560776D01*
X147371522Y-85755465D01*
X147339500Y-85957648D01*
X147339500Y-86162351D01*
X147371522Y-86364534D01*
X147434781Y-86559223D01*
X147527715Y-86741613D01*
X147648028Y-86907213D01*
X147792786Y-87051971D01*
X147947749Y-87164556D01*
X147958390Y-87172287D01*
X148049840Y-87218883D01*
X148051080Y-87219515D01*
X148101876Y-87267490D01*
X148118671Y-87335311D01*
X148096134Y-87401446D01*
X148051080Y-87440485D01*
X147958386Y-87487715D01*
X147792786Y-87608028D01*
X147648028Y-87752786D01*
X147527715Y-87918386D01*
X147434781Y-88100776D01*
X147371522Y-88295465D01*
X147339500Y-88497648D01*
X147339500Y-88702351D01*
X147371522Y-88904534D01*
X147434781Y-89099223D01*
X147527715Y-89281613D01*
X147648028Y-89447213D01*
X147792786Y-89591971D01*
X147901480Y-89670940D01*
X147958390Y-89712287D01*
X148049840Y-89758883D01*
X148051080Y-89759515D01*
X148101876Y-89807490D01*
X148118671Y-89875311D01*
X148096134Y-89941446D01*
X148051080Y-89980485D01*
X147958386Y-90027715D01*
X147792786Y-90148028D01*
X147648028Y-90292786D01*
X147527715Y-90458386D01*
X147434781Y-90640776D01*
X147371522Y-90835465D01*
X147339500Y-91037648D01*
X147339500Y-91242351D01*
X147371522Y-91444534D01*
X147434781Y-91639223D01*
X147527715Y-91821613D01*
X147648028Y-91987213D01*
X147792786Y-92131971D01*
X147947749Y-92244556D01*
X147958390Y-92252287D01*
X148030773Y-92289168D01*
X148051080Y-92299515D01*
X148101876Y-92347490D01*
X148118671Y-92415311D01*
X148096134Y-92481446D01*
X148051080Y-92520485D01*
X147958386Y-92567715D01*
X147792786Y-92688028D01*
X147648028Y-92832786D01*
X147527715Y-92998386D01*
X147434781Y-93180776D01*
X147371522Y-93375465D01*
X147339500Y-93577648D01*
X147339500Y-93782351D01*
X147371522Y-93984534D01*
X147434781Y-94179223D01*
X147527715Y-94361613D01*
X147648028Y-94527213D01*
X147792786Y-94671971D01*
X147901480Y-94750940D01*
X147958390Y-94792287D01*
X148049840Y-94838883D01*
X148051080Y-94839515D01*
X148101876Y-94887490D01*
X148118671Y-94955311D01*
X148096134Y-95021446D01*
X148051080Y-95060485D01*
X147958386Y-95107715D01*
X147792786Y-95228028D01*
X147648028Y-95372786D01*
X147527715Y-95538386D01*
X147434781Y-95720776D01*
X147371522Y-95915465D01*
X147339500Y-96117648D01*
X147339500Y-96322351D01*
X147371522Y-96524534D01*
X147434781Y-96719223D01*
X147527715Y-96901613D01*
X147648028Y-97067213D01*
X147792786Y-97211971D01*
X147947749Y-97324556D01*
X147958390Y-97332287D01*
X148049840Y-97378883D01*
X148051080Y-97379515D01*
X148101876Y-97427490D01*
X148118671Y-97495311D01*
X148096134Y-97561446D01*
X148051080Y-97600485D01*
X147958386Y-97647715D01*
X147792786Y-97768028D01*
X147648028Y-97912786D01*
X147527715Y-98078386D01*
X147434781Y-98260776D01*
X147371522Y-98455465D01*
X147339500Y-98657648D01*
X147339500Y-98862351D01*
X147371522Y-99064534D01*
X147434781Y-99259223D01*
X147527715Y-99441613D01*
X147648028Y-99607213D01*
X147792786Y-99751971D01*
X147947749Y-99864556D01*
X147958390Y-99872287D01*
X148049840Y-99918883D01*
X148051080Y-99919515D01*
X148101876Y-99967490D01*
X148118671Y-100035311D01*
X148096134Y-100101446D01*
X148051080Y-100140485D01*
X147958386Y-100187715D01*
X147792786Y-100308028D01*
X147648028Y-100452786D01*
X147527715Y-100618386D01*
X147434781Y-100800776D01*
X147371522Y-100995465D01*
X147339500Y-101197648D01*
X147339500Y-101402351D01*
X147371522Y-101604534D01*
X147434781Y-101799223D01*
X147527715Y-101981613D01*
X147648028Y-102147213D01*
X147792786Y-102291971D01*
X147947749Y-102404556D01*
X147958390Y-102412287D01*
X148049840Y-102458883D01*
X148051080Y-102459515D01*
X148101876Y-102507490D01*
X148118671Y-102575311D01*
X148096134Y-102641446D01*
X148051080Y-102680485D01*
X147958386Y-102727715D01*
X147792786Y-102848028D01*
X147648028Y-102992786D01*
X147527715Y-103158386D01*
X147434781Y-103340776D01*
X147371522Y-103535465D01*
X147339500Y-103737648D01*
X147339500Y-103942351D01*
X147371522Y-104144534D01*
X147434781Y-104339223D01*
X147527715Y-104521613D01*
X147648028Y-104687213D01*
X147792786Y-104831971D01*
X147947749Y-104944556D01*
X147958390Y-104952287D01*
X148049840Y-104998883D01*
X148051080Y-104999515D01*
X148101876Y-105047490D01*
X148118671Y-105115311D01*
X148096134Y-105181446D01*
X148051080Y-105220485D01*
X147958386Y-105267715D01*
X147792786Y-105388028D01*
X147648028Y-105532786D01*
X147527715Y-105698386D01*
X147434781Y-105880776D01*
X147371522Y-106075465D01*
X147339500Y-106277648D01*
X147339500Y-106482351D01*
X147371522Y-106684534D01*
X147434781Y-106879223D01*
X147527715Y-107061613D01*
X147648028Y-107227213D01*
X147792786Y-107371971D01*
X147947749Y-107484556D01*
X147958390Y-107492287D01*
X148074607Y-107551503D01*
X148140776Y-107585218D01*
X148140778Y-107585218D01*
X148140781Y-107585220D01*
X148245137Y-107619127D01*
X148335465Y-107648477D01*
X148382389Y-107655909D01*
X148537648Y-107680500D01*
X148537649Y-107680500D01*
X148742351Y-107680500D01*
X148742352Y-107680500D01*
X148944534Y-107648477D01*
X149139219Y-107585220D01*
X149321610Y-107492287D01*
X149414590Y-107424732D01*
X149487213Y-107371971D01*
X149487215Y-107371968D01*
X149487219Y-107371966D01*
X149631966Y-107227219D01*
X149631968Y-107227215D01*
X149631971Y-107227213D01*
X149684732Y-107154590D01*
X149752287Y-107061610D01*
X149845220Y-106879219D01*
X149908477Y-106684534D01*
X149940500Y-106482352D01*
X149940500Y-106277648D01*
X149908477Y-106075466D01*
X149845220Y-105880781D01*
X149845218Y-105880778D01*
X149845218Y-105880776D01*
X149811503Y-105814607D01*
X149752287Y-105698390D01*
X149744556Y-105687749D01*
X149631971Y-105532786D01*
X149487213Y-105388028D01*
X149321614Y-105267715D01*
X149315006Y-105264348D01*
X149228917Y-105220483D01*
X149178123Y-105172511D01*
X149161328Y-105104690D01*
X149183865Y-105038555D01*
X149228917Y-104999516D01*
X149321610Y-104952287D01*
X149342770Y-104936913D01*
X149487213Y-104831971D01*
X149487215Y-104831968D01*
X149487219Y-104831966D01*
X149631966Y-104687219D01*
X149631968Y-104687215D01*
X149631971Y-104687213D01*
X149684732Y-104614590D01*
X149752287Y-104521610D01*
X149845220Y-104339219D01*
X149908477Y-104144534D01*
X149940500Y-103942352D01*
X149940500Y-103737648D01*
X149908477Y-103535466D01*
X149896953Y-103500000D01*
X149856651Y-103375962D01*
X149845220Y-103340781D01*
X149845218Y-103340778D01*
X149845218Y-103340776D01*
X149811503Y-103274607D01*
X149752287Y-103158390D01*
X149727329Y-103124038D01*
X149631971Y-102992786D01*
X149487213Y-102848028D01*
X149321614Y-102727715D01*
X149315006Y-102724348D01*
X149228917Y-102680483D01*
X149178123Y-102632511D01*
X149161328Y-102564690D01*
X149183865Y-102498555D01*
X149228917Y-102459516D01*
X149321610Y-102412287D01*
X149342770Y-102396913D01*
X149487213Y-102291971D01*
X149487215Y-102291968D01*
X149487219Y-102291966D01*
X149631966Y-102147219D01*
X149631968Y-102147215D01*
X149631971Y-102147213D01*
X149717706Y-102029207D01*
X149752287Y-101981610D01*
X149845220Y-101799219D01*
X149908477Y-101604534D01*
X149940500Y-101402352D01*
X149940500Y-101197648D01*
X149908477Y-100995466D01*
X149845220Y-100800781D01*
X149845218Y-100800778D01*
X149845218Y-100800776D01*
X149811503Y-100734607D01*
X149752287Y-100618390D01*
X149744556Y-100607749D01*
X149631971Y-100452786D01*
X149487213Y-100308028D01*
X149321614Y-100187715D01*
X149315006Y-100184348D01*
X149228917Y-100140483D01*
X149178123Y-100092511D01*
X149161328Y-100024690D01*
X149183865Y-99958555D01*
X149228917Y-99919516D01*
X149321610Y-99872287D01*
X149342770Y-99856913D01*
X149487213Y-99751971D01*
X149487215Y-99751968D01*
X149487219Y-99751966D01*
X149631966Y-99607219D01*
X149631968Y-99607215D01*
X149631971Y-99607213D01*
X149684732Y-99534590D01*
X149752287Y-99441610D01*
X149845220Y-99259219D01*
X149908477Y-99064534D01*
X149940500Y-98862352D01*
X149940500Y-98657648D01*
X149908477Y-98455466D01*
X149845220Y-98260781D01*
X149845218Y-98260778D01*
X149845218Y-98260776D01*
X149811503Y-98194607D01*
X149752287Y-98078390D01*
X149744556Y-98067749D01*
X149631971Y-97912786D01*
X149487213Y-97768028D01*
X149321614Y-97647715D01*
X149315006Y-97644348D01*
X149228917Y-97600483D01*
X149178123Y-97552511D01*
X149161328Y-97484690D01*
X149183865Y-97418555D01*
X149228917Y-97379516D01*
X149321610Y-97332287D01*
X149342770Y-97316913D01*
X149487213Y-97211971D01*
X149487215Y-97211968D01*
X149487219Y-97211966D01*
X149631966Y-97067219D01*
X149631968Y-97067215D01*
X149631971Y-97067213D01*
X149684732Y-96994590D01*
X149752287Y-96901610D01*
X149845220Y-96719219D01*
X149908477Y-96524534D01*
X149940500Y-96322352D01*
X149940500Y-96117648D01*
X149908477Y-95915466D01*
X149845220Y-95720781D01*
X149845218Y-95720778D01*
X149845218Y-95720776D01*
X149811503Y-95654607D01*
X149752287Y-95538390D01*
X149744556Y-95527749D01*
X149631971Y-95372786D01*
X149487213Y-95228028D01*
X149321614Y-95107715D01*
X149315006Y-95104348D01*
X149228917Y-95060483D01*
X149178123Y-95012511D01*
X149161328Y-94944690D01*
X149183865Y-94878555D01*
X149228917Y-94839516D01*
X149321610Y-94792287D01*
X149378520Y-94750940D01*
X149487213Y-94671971D01*
X149487215Y-94671968D01*
X149487219Y-94671966D01*
X149631966Y-94527219D01*
X149631968Y-94527215D01*
X149631971Y-94527213D01*
X149684732Y-94454590D01*
X149752287Y-94361610D01*
X149845220Y-94179219D01*
X149908477Y-93984534D01*
X149940500Y-93782352D01*
X149940500Y-93577648D01*
X149908477Y-93375466D01*
X149845220Y-93180781D01*
X149845218Y-93180778D01*
X149845218Y-93180776D01*
X149811503Y-93114607D01*
X149752287Y-92998390D01*
X149717712Y-92950801D01*
X149631971Y-92832786D01*
X149487213Y-92688028D01*
X149321614Y-92567715D01*
X149293205Y-92553240D01*
X149228917Y-92520483D01*
X149178123Y-92472511D01*
X149161328Y-92404690D01*
X149183865Y-92338555D01*
X149228917Y-92299516D01*
X149321610Y-92252287D01*
X149342770Y-92236913D01*
X149487213Y-92131971D01*
X149487215Y-92131968D01*
X149487219Y-92131966D01*
X149631966Y-91987219D01*
X149631968Y-91987215D01*
X149631971Y-91987213D01*
X149684732Y-91914590D01*
X149752287Y-91821610D01*
X149845220Y-91639219D01*
X149908477Y-91444534D01*
X149940500Y-91242352D01*
X149940500Y-91037648D01*
X149908477Y-90835466D01*
X149845220Y-90640781D01*
X149845218Y-90640778D01*
X149845218Y-90640776D01*
X149811503Y-90574607D01*
X149752287Y-90458390D01*
X149744556Y-90447749D01*
X149631971Y-90292786D01*
X149487213Y-90148028D01*
X149321614Y-90027715D01*
X149315006Y-90024348D01*
X149228917Y-89980483D01*
X149178123Y-89932511D01*
X149161328Y-89864690D01*
X149183865Y-89798555D01*
X149228917Y-89759516D01*
X149321610Y-89712287D01*
X149378520Y-89670940D01*
X149487213Y-89591971D01*
X149487215Y-89591968D01*
X149487219Y-89591966D01*
X149631966Y-89447219D01*
X149631968Y-89447215D01*
X149631971Y-89447213D01*
X149684732Y-89374590D01*
X149752287Y-89281610D01*
X149845220Y-89099219D01*
X149908477Y-88904534D01*
X149940500Y-88702352D01*
X149940500Y-88497648D01*
X149908477Y-88295466D01*
X149845220Y-88100781D01*
X149845218Y-88100778D01*
X149845218Y-88100776D01*
X149811503Y-88034607D01*
X149752287Y-87918390D01*
X149717712Y-87870801D01*
X149631971Y-87752786D01*
X149487213Y-87608028D01*
X149321614Y-87487715D01*
X149293205Y-87473240D01*
X149228917Y-87440483D01*
X149178123Y-87392511D01*
X149161328Y-87324690D01*
X149183865Y-87258555D01*
X149228917Y-87219516D01*
X149321610Y-87172287D01*
X149342770Y-87156913D01*
X149487213Y-87051971D01*
X149487215Y-87051968D01*
X149487219Y-87051966D01*
X149631966Y-86907219D01*
X149631968Y-86907215D01*
X149631971Y-86907213D01*
X149746191Y-86750000D01*
X149752287Y-86741610D01*
X149845220Y-86559219D01*
X149908477Y-86364534D01*
X149940500Y-86162352D01*
X149940500Y-85957648D01*
X149908477Y-85755466D01*
X149845220Y-85560781D01*
X149845218Y-85560778D01*
X149845218Y-85560776D01*
X149811503Y-85494607D01*
X149752287Y-85378390D01*
X149701493Y-85308477D01*
X149631971Y-85212786D01*
X149487213Y-85068028D01*
X149321614Y-84947715D01*
X149315006Y-84944348D01*
X149228917Y-84900483D01*
X149178123Y-84852511D01*
X149161328Y-84784690D01*
X149183865Y-84718555D01*
X149228917Y-84679516D01*
X149321610Y-84632287D01*
X149342770Y-84616913D01*
X149487213Y-84511971D01*
X149487215Y-84511968D01*
X149487219Y-84511966D01*
X149631966Y-84367219D01*
X149631968Y-84367215D01*
X149631971Y-84367213D01*
X149684732Y-84294590D01*
X149752287Y-84201610D01*
X149845220Y-84019219D01*
X149908477Y-83824534D01*
X149940500Y-83622352D01*
X149940500Y-83417648D01*
X149908477Y-83215466D01*
X149845220Y-83020781D01*
X149845218Y-83020778D01*
X149845218Y-83020776D01*
X149797799Y-82927713D01*
X149752287Y-82838390D01*
X149703706Y-82771523D01*
X149631971Y-82672786D01*
X149487213Y-82528028D01*
X149321614Y-82407715D01*
X149315006Y-82404348D01*
X149228917Y-82360483D01*
X149178123Y-82312511D01*
X149161328Y-82244690D01*
X149183865Y-82178555D01*
X149228917Y-82139516D01*
X149321610Y-82092287D01*
X149342770Y-82076913D01*
X149487213Y-81971971D01*
X149487215Y-81971968D01*
X149487219Y-81971966D01*
X149631966Y-81827219D01*
X149631968Y-81827215D01*
X149631971Y-81827213D01*
X149684732Y-81754590D01*
X149752287Y-81661610D01*
X149845220Y-81479219D01*
X149908477Y-81284534D01*
X149940500Y-81082352D01*
X149940500Y-80877648D01*
X149908477Y-80675466D01*
X149845220Y-80480781D01*
X149845218Y-80480778D01*
X149845218Y-80480776D01*
X149811503Y-80414607D01*
X149752287Y-80298390D01*
X149744556Y-80287749D01*
X149631971Y-80132786D01*
X149487213Y-79988028D01*
X149321614Y-79867715D01*
X149315006Y-79864348D01*
X149228917Y-79820483D01*
X149178123Y-79772511D01*
X149161328Y-79704690D01*
X149183865Y-79638555D01*
X149228917Y-79599516D01*
X149321610Y-79552287D01*
X149342770Y-79536913D01*
X149487213Y-79431971D01*
X149487215Y-79431968D01*
X149487219Y-79431966D01*
X149631966Y-79287219D01*
X149631968Y-79287215D01*
X149631971Y-79287213D01*
X149684732Y-79214590D01*
X149752287Y-79121610D01*
X149845220Y-78939219D01*
X149908477Y-78744534D01*
X149940500Y-78542352D01*
X149940500Y-78337648D01*
X149939289Y-78330000D01*
X149908477Y-78135465D01*
X149845218Y-77940776D01*
X149752419Y-77758650D01*
X149752287Y-77758390D01*
X149710257Y-77700540D01*
X149631971Y-77592786D01*
X149487213Y-77448028D01*
X149321614Y-77327715D01*
X149297811Y-77315587D01*
X149228917Y-77280483D01*
X149178123Y-77232511D01*
X149161328Y-77164690D01*
X149183865Y-77098555D01*
X149228917Y-77059516D01*
X149321610Y-77012287D01*
X149342770Y-76996913D01*
X149487213Y-76891971D01*
X149487215Y-76891968D01*
X149487219Y-76891966D01*
X149631966Y-76747219D01*
X149631968Y-76747215D01*
X149631971Y-76747213D01*
X149684732Y-76674590D01*
X149752287Y-76581610D01*
X149845220Y-76399219D01*
X149908477Y-76204534D01*
X149940500Y-76002352D01*
X149940500Y-75797648D01*
X149908477Y-75595466D01*
X149845220Y-75400781D01*
X149845218Y-75400778D01*
X149845218Y-75400776D01*
X149797799Y-75307713D01*
X149752287Y-75218390D01*
X149744556Y-75207749D01*
X149631971Y-75052786D01*
X149487213Y-74908028D01*
X149321611Y-74787713D01*
X149228369Y-74740203D01*
X149177574Y-74692229D01*
X149160779Y-74624407D01*
X149183317Y-74558273D01*
X149228371Y-74519234D01*
X149321347Y-74471861D01*
X149486894Y-74351582D01*
X149486895Y-74351582D01*
X149631582Y-74206895D01*
X149631582Y-74206894D01*
X149751859Y-74041349D01*
X149844755Y-73859029D01*
X149907990Y-73664413D01*
X149916609Y-73610000D01*
X149073012Y-73610000D01*
X149105925Y-73552993D01*
X149140000Y-73425826D01*
X149140000Y-73294174D01*
X149105925Y-73167007D01*
X149073012Y-73110000D01*
X149916609Y-73110000D01*
X149907990Y-73055586D01*
X149844755Y-72860970D01*
X149751859Y-72678650D01*
X149631582Y-72513105D01*
X149631582Y-72513104D01*
X149486895Y-72368417D01*
X149321349Y-72248140D01*
X149228370Y-72200765D01*
X149177574Y-72152790D01*
X149160779Y-72084969D01*
X149183316Y-72018835D01*
X149228370Y-71979795D01*
X149232788Y-71977544D01*
X149321610Y-71932287D01*
X149342770Y-71916913D01*
X149487213Y-71811971D01*
X149487215Y-71811968D01*
X149487219Y-71811966D01*
X149631966Y-71667219D01*
X149631968Y-71667215D01*
X149631971Y-71667213D01*
X149684732Y-71594590D01*
X149752287Y-71501610D01*
X149845220Y-71319219D01*
X149908477Y-71124534D01*
X149940500Y-70922352D01*
X149940500Y-70717648D01*
X149939289Y-70710000D01*
X149908477Y-70515465D01*
X149877764Y-70420940D01*
X149845220Y-70320781D01*
X149845218Y-70320778D01*
X149845218Y-70320776D01*
X149810399Y-70252442D01*
X149752287Y-70138390D01*
X149710257Y-70080540D01*
X149631971Y-69972786D01*
X149487213Y-69828028D01*
X149321613Y-69707715D01*
X149321612Y-69707714D01*
X149321610Y-69707713D01*
X149264653Y-69678691D01*
X149139223Y-69614781D01*
X148944534Y-69551522D01*
X148769995Y-69523878D01*
X148742352Y-69519500D01*
X148537648Y-69519500D01*
X148513329Y-69523351D01*
X148335465Y-69551522D01*
X148140776Y-69614781D01*
X147958386Y-69707715D01*
X147792786Y-69828028D01*
X147648028Y-69972786D01*
X147527715Y-70138386D01*
X147434781Y-70320776D01*
X147371522Y-70515465D01*
X147339500Y-70717648D01*
X134700499Y-70717648D01*
X134700499Y-69972128D01*
X134694091Y-69912517D01*
X134681664Y-69879199D01*
X134643797Y-69777671D01*
X134643793Y-69777664D01*
X134557547Y-69662455D01*
X134557544Y-69662452D01*
X134442335Y-69576206D01*
X134442328Y-69576202D01*
X134307482Y-69525908D01*
X134307483Y-69525908D01*
X134247883Y-69519501D01*
X134247881Y-69519500D01*
X134247873Y-69519500D01*
X134247864Y-69519500D01*
X132552129Y-69519500D01*
X132552123Y-69519501D01*
X132492516Y-69525908D01*
X132357671Y-69576202D01*
X132357664Y-69576206D01*
X132242455Y-69662452D01*
X132242452Y-69662455D01*
X132156206Y-69777664D01*
X132156202Y-69777671D01*
X132105908Y-69912517D01*
X132099501Y-69972116D01*
X132099501Y-69972123D01*
X132099500Y-69972135D01*
X132099500Y-71667870D01*
X132099501Y-71667876D01*
X132105908Y-71727483D01*
X132156202Y-71862328D01*
X132156206Y-71862335D01*
X132242452Y-71977544D01*
X132242455Y-71977547D01*
X132357664Y-72063793D01*
X132357671Y-72063797D01*
X132402618Y-72080561D01*
X132492517Y-72114091D01*
X132529441Y-72118060D01*
X132593989Y-72144796D01*
X132633838Y-72202188D01*
X132636333Y-72272013D01*
X132600681Y-72332102D01*
X132589071Y-72341666D01*
X132552784Y-72368030D01*
X132408028Y-72512786D01*
X132287715Y-72678386D01*
X132194781Y-72860776D01*
X132131522Y-73055465D01*
X132099500Y-73257648D01*
X132099500Y-73462351D01*
X132131522Y-73664534D01*
X132194781Y-73859223D01*
X132287715Y-74041613D01*
X132408028Y-74207213D01*
X132552786Y-74351971D01*
X132707749Y-74464556D01*
X132718390Y-74472287D01*
X132809840Y-74518883D01*
X132811080Y-74519515D01*
X132861876Y-74567490D01*
X132878671Y-74635311D01*
X132856134Y-74701446D01*
X132811080Y-74740485D01*
X132718386Y-74787715D01*
X132552786Y-74908028D01*
X132408028Y-75052786D01*
X132287715Y-75218386D01*
X132194781Y-75400776D01*
X132131522Y-75595465D01*
X132099500Y-75797648D01*
X132099500Y-76002351D01*
X132131522Y-76204534D01*
X132194781Y-76399223D01*
X132287715Y-76581613D01*
X132408028Y-76747213D01*
X132552786Y-76891971D01*
X132707749Y-77004556D01*
X132718390Y-77012287D01*
X132790424Y-77048990D01*
X132811629Y-77059795D01*
X132862425Y-77107770D01*
X132879220Y-77175591D01*
X132856682Y-77241726D01*
X132811629Y-77280765D01*
X132718650Y-77328140D01*
X132553105Y-77448417D01*
X132553104Y-77448417D01*
X132408417Y-77593104D01*
X132408417Y-77593105D01*
X132288140Y-77758650D01*
X132195244Y-77940970D01*
X132132009Y-78135586D01*
X132123391Y-78190000D01*
X132966988Y-78190000D01*
X132934075Y-78247007D01*
X132900000Y-78374174D01*
X132900000Y-78505826D01*
X132934075Y-78632993D01*
X132966988Y-78690000D01*
X132123391Y-78690000D01*
X132132009Y-78744413D01*
X132195244Y-78939029D01*
X132288140Y-79121349D01*
X132408417Y-79286894D01*
X132408417Y-79286895D01*
X132553104Y-79431582D01*
X132718652Y-79551861D01*
X132811628Y-79599234D01*
X132862425Y-79647208D01*
X132879220Y-79715029D01*
X132856683Y-79781164D01*
X132811630Y-79820203D01*
X132718388Y-79867713D01*
X132552786Y-79988028D01*
X132408028Y-80132786D01*
X132287715Y-80298386D01*
X132194781Y-80480776D01*
X132131522Y-80675465D01*
X132099500Y-80877648D01*
X132099500Y-81082351D01*
X132131522Y-81284534D01*
X132194781Y-81479223D01*
X132287715Y-81661613D01*
X132408028Y-81827213D01*
X132552786Y-81971971D01*
X132698012Y-82077482D01*
X132718390Y-82092287D01*
X132809840Y-82138883D01*
X132811080Y-82139515D01*
X132861876Y-82187490D01*
X132878671Y-82255311D01*
X132856134Y-82321446D01*
X132811080Y-82360485D01*
X132718386Y-82407715D01*
X132552786Y-82528028D01*
X132408028Y-82672786D01*
X132287715Y-82838386D01*
X132194781Y-83020776D01*
X132131522Y-83215465D01*
X132099500Y-83417648D01*
X132099500Y-83622351D01*
X132131522Y-83824534D01*
X132194781Y-84019223D01*
X132287715Y-84201613D01*
X132408028Y-84367213D01*
X132552786Y-84511971D01*
X132707749Y-84624556D01*
X132718390Y-84632287D01*
X132809840Y-84678883D01*
X132811080Y-84679515D01*
X132861876Y-84727490D01*
X132878671Y-84795311D01*
X132856134Y-84861446D01*
X132811080Y-84900485D01*
X132718386Y-84947715D01*
X132552786Y-85068028D01*
X132408028Y-85212786D01*
X132287715Y-85378386D01*
X132194781Y-85560776D01*
X132131522Y-85755465D01*
X132099500Y-85957648D01*
X132099500Y-86162351D01*
X132131522Y-86364534D01*
X132194782Y-86559225D01*
X132200122Y-86569704D01*
X132213019Y-86638373D01*
X132186744Y-86703113D01*
X132129638Y-86743371D01*
X132089638Y-86750000D01*
X117122479Y-86750000D01*
X117055440Y-86730315D01*
X117009685Y-86677511D01*
X116998488Y-86627531D01*
X116919387Y-80220337D01*
X116891244Y-77940776D01*
X116835107Y-73393713D01*
X119899500Y-73393713D01*
X119899500Y-73606286D01*
X119932753Y-73816239D01*
X119998444Y-74018414D01*
X120094951Y-74207820D01*
X120219890Y-74379786D01*
X120370213Y-74530109D01*
X120542182Y-74655050D01*
X120550946Y-74659516D01*
X120601742Y-74707491D01*
X120618536Y-74775312D01*
X120595998Y-74841447D01*
X120550946Y-74880484D01*
X120542182Y-74884949D01*
X120370213Y-75009890D01*
X120219890Y-75160213D01*
X120094951Y-75332179D01*
X119998444Y-75521585D01*
X119932753Y-75723760D01*
X119901548Y-75920781D01*
X119899500Y-75933713D01*
X119899500Y-76146287D01*
X119932754Y-76356243D01*
X119986726Y-76522352D01*
X119998444Y-76558414D01*
X120094951Y-76747820D01*
X120219890Y-76919786D01*
X120370213Y-77070109D01*
X120542179Y-77195048D01*
X120542181Y-77195049D01*
X120542184Y-77195051D01*
X120551493Y-77199794D01*
X120602290Y-77247766D01*
X120619087Y-77315587D01*
X120596552Y-77381722D01*
X120551502Y-77420762D01*
X120542443Y-77425378D01*
X120370540Y-77550272D01*
X120370535Y-77550276D01*
X120220276Y-77700535D01*
X120220272Y-77700540D01*
X120095379Y-77872442D01*
X119998904Y-78061782D01*
X119933242Y-78263870D01*
X119933242Y-78263873D01*
X119922769Y-78330000D01*
X120816988Y-78330000D01*
X120784075Y-78387007D01*
X120750000Y-78514174D01*
X120750000Y-78645826D01*
X120784075Y-78772993D01*
X120816988Y-78830000D01*
X119922769Y-78830000D01*
X119933242Y-78896126D01*
X119933242Y-78896129D01*
X119998904Y-79098217D01*
X120095379Y-79287557D01*
X120220272Y-79459459D01*
X120220276Y-79459464D01*
X120333946Y-79573134D01*
X120367431Y-79634457D01*
X120362447Y-79704149D01*
X120320575Y-79760082D01*
X120289598Y-79776997D01*
X120157671Y-79826202D01*
X120157664Y-79826206D01*
X120042455Y-79912452D01*
X120042452Y-79912455D01*
X119956206Y-80027664D01*
X119956202Y-80027671D01*
X119905908Y-80162517D01*
X119899692Y-80220337D01*
X119899501Y-80222123D01*
X119899500Y-80222135D01*
X119899500Y-82017870D01*
X119899501Y-82017876D01*
X119905908Y-82077483D01*
X119956202Y-82212328D01*
X119956206Y-82212335D01*
X120042452Y-82327544D01*
X120042455Y-82327547D01*
X120157664Y-82413793D01*
X120157671Y-82413797D01*
X120292517Y-82464091D01*
X120292516Y-82464091D01*
X120299444Y-82464835D01*
X120352127Y-82470500D01*
X122147872Y-82470499D01*
X122207483Y-82464091D01*
X122342331Y-82413796D01*
X122457546Y-82327546D01*
X122543796Y-82212331D01*
X122594091Y-82077483D01*
X122600500Y-82017873D01*
X122600499Y-80222128D01*
X122594091Y-80162517D01*
X122583000Y-80132781D01*
X122543797Y-80027671D01*
X122543793Y-80027664D01*
X122457547Y-79912455D01*
X122457544Y-79912452D01*
X122342335Y-79826206D01*
X122342328Y-79826202D01*
X122210401Y-79776997D01*
X122154467Y-79735126D01*
X122130050Y-79669662D01*
X122144902Y-79601389D01*
X122166053Y-79573133D01*
X122279728Y-79459458D01*
X122404620Y-79287557D01*
X122501095Y-79098217D01*
X122566757Y-78896129D01*
X122566757Y-78896126D01*
X122577231Y-78830000D01*
X121683012Y-78830000D01*
X121715925Y-78772993D01*
X121750000Y-78645826D01*
X121750000Y-78514174D01*
X121715925Y-78387007D01*
X121683012Y-78330000D01*
X122577231Y-78330000D01*
X122566757Y-78263873D01*
X122566757Y-78263870D01*
X122501095Y-78061782D01*
X122404620Y-77872442D01*
X122279727Y-77700540D01*
X122279723Y-77700535D01*
X122129464Y-77550276D01*
X122129459Y-77550272D01*
X121957555Y-77425377D01*
X121948500Y-77420763D01*
X121897706Y-77372788D01*
X121880912Y-77304966D01*
X121903451Y-77238832D01*
X121948508Y-77199793D01*
X121957816Y-77195051D01*
X122077949Y-77107770D01*
X122129786Y-77070109D01*
X122129788Y-77070106D01*
X122129792Y-77070104D01*
X122280104Y-76919792D01*
X122280106Y-76919788D01*
X122280109Y-76919786D01*
X122405048Y-76747820D01*
X122405047Y-76747820D01*
X122405051Y-76747816D01*
X122501557Y-76558412D01*
X122567246Y-76356243D01*
X122600500Y-76146287D01*
X122600500Y-75933713D01*
X122567246Y-75723757D01*
X122501557Y-75521588D01*
X122405051Y-75332184D01*
X122405049Y-75332181D01*
X122405048Y-75332179D01*
X122280109Y-75160213D01*
X122129786Y-75009890D01*
X121957820Y-74884951D01*
X121957115Y-74884591D01*
X121949054Y-74880485D01*
X121898259Y-74832512D01*
X121881463Y-74764692D01*
X121903999Y-74698556D01*
X121949054Y-74659515D01*
X121957816Y-74655051D01*
X122034276Y-74599500D01*
X122129786Y-74530109D01*
X122129788Y-74530106D01*
X122129792Y-74530104D01*
X122280104Y-74379792D01*
X122280106Y-74379788D01*
X122280109Y-74379786D01*
X122405048Y-74207820D01*
X122405047Y-74207820D01*
X122405051Y-74207816D01*
X122501557Y-74018412D01*
X122567246Y-73816243D01*
X122600500Y-73606287D01*
X122600500Y-73393713D01*
X122567246Y-73183757D01*
X122501557Y-72981588D01*
X122405051Y-72792184D01*
X122405049Y-72792181D01*
X122405048Y-72792179D01*
X122280109Y-72620213D01*
X122129786Y-72469890D01*
X121957817Y-72344949D01*
X121948504Y-72340204D01*
X121897707Y-72292230D01*
X121880912Y-72224409D01*
X121903449Y-72158274D01*
X121948507Y-72119232D01*
X121957558Y-72114620D01*
X122129459Y-71989727D01*
X122129464Y-71989723D01*
X122279723Y-71839464D01*
X122279727Y-71839459D01*
X122404620Y-71667557D01*
X122501095Y-71478217D01*
X122566757Y-71276129D01*
X122566757Y-71276126D01*
X122577231Y-71210000D01*
X121683012Y-71210000D01*
X121715925Y-71152993D01*
X121750000Y-71025826D01*
X121750000Y-70894174D01*
X121715925Y-70767007D01*
X121683012Y-70710000D01*
X122577231Y-70710000D01*
X122566757Y-70643873D01*
X122566757Y-70643870D01*
X122501095Y-70441782D01*
X122404620Y-70252442D01*
X122279727Y-70080540D01*
X122279723Y-70080535D01*
X122129464Y-69930276D01*
X122129459Y-69930272D01*
X121957557Y-69805379D01*
X121768215Y-69708903D01*
X121566124Y-69643241D01*
X121500000Y-69632768D01*
X121500000Y-70526988D01*
X121442993Y-70494075D01*
X121315826Y-70460000D01*
X121184174Y-70460000D01*
X121057007Y-70494075D01*
X121000000Y-70526988D01*
X121000000Y-69632768D01*
X120999999Y-69632768D01*
X120933875Y-69643241D01*
X120731784Y-69708903D01*
X120542442Y-69805379D01*
X120370540Y-69930272D01*
X120370535Y-69930276D01*
X120220276Y-70080535D01*
X120220272Y-70080540D01*
X120095379Y-70252442D01*
X119998904Y-70441782D01*
X119933242Y-70643870D01*
X119933242Y-70643873D01*
X119922769Y-70710000D01*
X120816988Y-70710000D01*
X120784075Y-70767007D01*
X120750000Y-70894174D01*
X120750000Y-71025826D01*
X120784075Y-71152993D01*
X120816988Y-71210000D01*
X119922769Y-71210000D01*
X119933242Y-71276126D01*
X119933242Y-71276129D01*
X119998904Y-71478217D01*
X120095379Y-71667557D01*
X120220272Y-71839459D01*
X120220276Y-71839464D01*
X120370535Y-71989723D01*
X120370540Y-71989727D01*
X120542444Y-72114622D01*
X120551495Y-72119234D01*
X120602292Y-72167208D01*
X120619087Y-72235029D01*
X120596550Y-72301164D01*
X120551499Y-72340202D01*
X120542182Y-72344949D01*
X120370213Y-72469890D01*
X120219890Y-72620213D01*
X120094951Y-72792179D01*
X119998444Y-72981585D01*
X119932753Y-73183760D01*
X119899500Y-73393713D01*
X116835107Y-73393713D01*
X116751559Y-66626345D01*
X116770415Y-66559070D01*
X116822650Y-66512667D01*
X116876352Y-66500820D01*
X155131731Y-66749232D01*
G37*
%TD.AperFunction*%
%TD*%
M02*
